<svg width="14" height="14" viewBox="0 0 14 14" fill="none" xmlns="http://www.w3.org/2000/svg">
<g clip-path="url(#clip0_4279_1356)">
<path d="M13.6735 7.13077C13.6735 6.5572 13.6269 6.13864 13.5262 5.70459H6.97656V8.29341H10.8211C10.7436 8.93677 10.325 9.90566 9.39488 10.5567L9.38184 10.6434L11.4527 12.2477L11.5962 12.262C12.9138 11.0451 13.6735 9.25455 13.6735 7.13077Z" fill="#4285F4"/>
<path d="M6.97601 13.9517C8.85949 13.9517 10.4407 13.3316 11.5956 12.262L9.39433 10.5567C8.80526 10.9675 8.01463 11.2543 6.97601 11.2543C5.13127 11.2543 3.56557 10.0374 3.00744 8.35547L2.92563 8.36242L0.772301 10.0289L0.744141 10.1072C1.89129 12.386 4.24761 13.9517 6.97601 13.9517Z" fill="#34A853"/>
<path d="M3.00738 8.35563C2.86012 7.92158 2.77489 7.45648 2.77489 6.97594C2.77489 6.49534 2.86012 6.0303 2.99963 5.59624L2.99573 5.5038L0.81542 3.81055L0.744084 3.84448C0.27129 4.79012 0 5.85204 0 6.97594C0 8.09984 0.27129 9.1617 0.744084 10.1073L3.00738 8.35563Z" fill="#FBBC05"/>
<path d="M6.97601 2.69735C8.28592 2.69735 9.16953 3.26318 9.67336 3.73602L11.6421 1.81375C10.433 0.689847 8.85949 0 6.97601 0C4.24761 0 1.89129 1.5657 0.744141 3.8445L2.99969 5.59626C3.56557 3.91428 5.13127 2.69735 6.97601 2.69735Z" fill="#EB4335"/>
</g>
<defs>
<clipPath id="clip0_4279_1356">
<rect width="13.6794" height="14" fill="white"/>
</clipPath>
</defs>
</svg>
