<svg width="22" height="22" viewBox="0 0 22 22" fill="none" xmlns="http://www.w3.org/2000/svg">
<circle cx="11" cy="11" r="11" fill="url(#paint0_radial_4279_1332)"/>
<circle cx="11" cy="11" r="11" fill="url(#paint1_radial_4279_1332)"/>
<g clip-path="url(#clip0_4279_1332)">
<path d="M10.69 8.58013C9.07515 8.58013 7.77261 9.88266 7.77261 11.4975C7.77261 13.1124 9.07515 14.4149 10.69 14.4149C12.3048 14.4149 13.6074 13.1124 13.6074 11.4975C13.6074 9.88266 12.3048 8.58013 10.69 8.58013ZM10.69 13.3942C9.64644 13.3942 8.79331 12.5436 8.79331 11.4975C8.79331 10.4514 9.6439 9.60083 10.69 9.60083C11.7361 9.60083 12.5867 10.4514 12.5867 11.4975C12.5867 12.5436 11.7335 13.3942 10.69 13.3942ZM14.4072 8.46079C14.4072 8.83911 14.1025 9.14126 13.7267 9.14126C13.3484 9.14126 13.0462 8.83657 13.0462 8.46079C13.0462 8.08501 13.3509 7.78032 13.7267 7.78032C14.1025 7.78032 14.4072 8.08501 14.4072 8.46079ZM16.3394 9.15142C16.2962 8.23989 16.088 7.43247 15.4203 6.76724C14.755 6.102 13.9476 5.8938 13.0361 5.8481C12.0966 5.79478 9.28081 5.79478 8.34136 5.8481C7.43237 5.89126 6.62495 6.09946 5.95718 6.7647C5.2894 7.42993 5.08374 8.23735 5.03804 9.14888C4.98472 10.0883 4.98472 12.9041 5.03804 13.8436C5.0812 14.7551 5.2894 15.5625 5.95718 16.2278C6.62495 16.893 7.42983 17.1012 8.34136 17.1469C9.28081 17.2002 12.0966 17.2002 13.0361 17.1469C13.9476 17.1038 14.755 16.8956 15.4203 16.2278C16.0855 15.5625 16.2937 14.7551 16.3394 13.8436C16.3927 12.9041 16.3927 10.0909 16.3394 9.15142ZM15.1257 14.8516C14.9277 15.3493 14.5443 15.7327 14.0441 15.9332C13.2951 16.2303 11.5177 16.1618 10.69 16.1618C9.86226 16.1618 8.08237 16.2278 7.33589 15.9332C6.83823 15.7352 6.45483 15.3518 6.25425 14.8516C5.95718 14.1026 6.02573 12.3252 6.02573 11.4975C6.02573 10.6698 5.95972 8.88989 6.25425 8.14341C6.45229 7.64575 6.83569 7.26235 7.33589 7.06177C8.08491 6.7647 9.86226 6.83325 10.69 6.83325C11.5177 6.83325 13.2976 6.76724 14.0441 7.06177C14.5417 7.25981 14.9251 7.64321 15.1257 8.14341C15.4228 8.89243 15.3542 10.6698 15.3542 11.4975C15.3542 12.3252 15.4228 14.1051 15.1257 14.8516Z" fill="white"/>
</g>
<defs>
<radialGradient id="paint0_radial_4279_1332" cx="0" cy="0" r="1" gradientUnits="userSpaceOnUse" gradientTransform="translate(11 11) rotate(-90) scale(11)">
<stop stop-color="#FFDD55"/>
<stop offset="0.503125" stop-color="#FF543E"/>
<stop offset="1" stop-color="#C837AB"/>
</radialGradient>
<radialGradient id="paint1_radial_4279_1332" cx="0" cy="0" r="1" gradientUnits="userSpaceOnUse" gradientTransform="translate(4.50603 3.04819) rotate(61.1443) scale(29.6583)">
<stop stop-color="#3771C8"/>
<stop offset="0.556869" stop-color="#6600FF" stop-opacity="0"/>
</radialGradient>
<clipPath id="clip0_4279_1332">
<rect width="11.375" height="13" fill="white" transform="translate(5 5)"/>
</clipPath>
</defs>
</svg>
