<svg width="22" height="22" viewBox="0 0 22 22" fill="none" xmlns="http://www.w3.org/2000/svg">
<circle cx="11" cy="11" r="11" fill="url(#paint0_radial_4280_420)"/>
<g clip-path="url(#clip0_4280_420)">
<path d="M4.00196 10.7894C4.00196 6.88692 7.05863 4 11.002 4C14.9453 4 18.0014 6.8875 18.0014 10.7894C18.0014 14.6913 14.9447 17.5783 11.0014 17.5783C10.2955 17.5783 9.61304 17.4849 8.97721 17.3099C8.85311 17.2765 8.72129 17.2868 8.60388 17.3391L7.20971 17.9516C7.12567 17.989 7.0337 18.0051 6.94194 17.9985C6.85019 17.992 6.76146 17.9629 6.68361 17.9139C6.60577 17.8649 6.54119 17.7974 6.4956 17.7175C6.45001 17.6376 6.4248 17.5477 6.42221 17.4558L6.38138 16.2074C6.37821 16.1322 6.36007 16.0584 6.32802 15.9903C6.29597 15.9222 6.25065 15.8611 6.19471 15.8108C5.49332 15.1778 4.93499 14.4026 4.55697 13.5368C4.17895 12.6711 3.98994 11.7346 4.00254 10.79L4.00196 10.7894ZM8.85529 9.51192L6.80196 12.7786C6.59779 13.0878 6.98863 13.443 7.28029 13.2161L9.49113 11.5419C9.64279 11.4253 9.84113 11.4253 9.99863 11.5419L11.632 12.7669C12.122 13.1344 12.822 13.0003 13.1486 12.4869L15.202 9.22025C15.4061 8.91108 15.0153 8.56108 14.7236 8.78275L12.5128 10.4569C12.367 10.5736 12.1628 10.5736 12.0111 10.4569L10.3778 9.23192C10.2616 9.14417 10.1285 9.08153 9.98686 9.04798C9.84521 9.01444 9.69813 9.01071 9.55496 9.03704C9.41179 9.06337 9.27566 9.11918 9.15521 9.20093C9.03476 9.28268 8.93263 9.38859 8.85529 9.51192Z" fill="white"/>
</g>
<defs>
<radialGradient id="paint0_radial_4280_420" cx="0" cy="0" r="1" gradientUnits="userSpaceOnUse" gradientTransform="translate(-1.07692 22) rotate(-38.4944) scale(24.9639)">
<stop offset="0.177022" stop-color="#0099FF"/>
<stop offset="0.535017" stop-color="#A033FF"/>
<stop offset="0.891265" stop-color="#FF5280"/>
<stop offset="1" stop-color="#FF7061"/>
</radialGradient>
<clipPath id="clip0_4280_420">
<rect width="14" height="14" fill="white" transform="translate(4 4)"/>
</clipPath>
</defs>
</svg>
