<svg width="22" height="22" viewBox="0 0 22 22" fill="none" xmlns="http://www.w3.org/2000/svg">
<g clip-path="url(#clip0_4279_1419)">
<path d="M11 22C17.0751 22 22 17.0751 22 11C22 4.92487 17.0751 0 11 0C4.92487 0 0 4.92487 0 11C0 17.0751 4.92487 22 11 22Z" fill="#FF4500"/>
<path d="M18.3168 11.1049C18.3168 10.2132 17.5957 9.505 16.7169 9.505C16.3018 9.50444 15.9025 9.66419 15.6023 9.95093C14.5007 9.164 12.9925 8.65268 11.314 8.58711L12.0483 5.15124L14.435 5.66257C14.4614 6.26585 14.9596 6.75114 15.5761 6.75114C16.2055 6.75114 16.7169 6.23981 16.7169 5.61006C16.7169 4.98065 16.2056 4.46924 15.5761 4.46924C15.1302 4.46924 14.7366 4.73152 14.5531 5.11188L11.8911 4.54796C11.8124 4.53472 11.7336 4.54796 11.6811 4.58732C11.6156 4.62668 11.5763 4.69216 11.5633 4.77088L10.75 8.60008C9.04526 8.65268 7.51084 9.164 6.39623 9.96408C6.09602 9.67735 5.69668 9.51763 5.28154 9.51824C4.38977 9.51824 3.68164 10.2393 3.68164 11.1181C3.68164 11.7738 4.07498 12.3244 4.62592 12.5738C4.59917 12.7342 4.586 12.8965 4.58656 13.059C4.58656 15.5242 7.45859 17.5309 10.9993 17.5309C14.5401 17.5309 17.4121 15.5375 17.4121 13.059C17.412 12.8965 17.3989 12.7343 17.3728 12.5738C17.9235 12.3244 18.3168 11.7605 18.3168 11.1049ZM7.32728 12.2457C7.32728 11.6163 7.83861 11.1049 8.46836 11.1049C9.09777 11.1049 9.60918 11.6162 9.60918 12.2457C9.60918 12.8752 9.09785 13.3868 8.46836 13.3868C7.8387 13.3997 7.32728 12.8752 7.32728 12.2457ZM13.7139 15.2751C12.9271 16.062 11.432 16.1145 10.9993 16.1145C10.5535 16.1145 9.05849 16.0488 8.28454 15.2751C8.16672 15.1571 8.16672 14.9735 8.28454 14.8555C8.40262 14.7377 8.58618 14.7377 8.70426 14.8555C9.2027 15.3539 10.2518 15.5242 10.9993 15.5242C11.7469 15.5242 12.809 15.3538 13.2942 14.8555C13.4123 14.7377 13.5958 14.7377 13.7139 14.8555C13.8187 14.9735 13.8187 15.1571 13.7139 15.2751ZM13.504 13.3998C12.8745 13.3998 12.3631 12.8884 12.3631 12.259C12.3631 11.6295 12.8745 11.1181 13.504 11.1181C14.1336 11.1181 14.6449 11.6295 14.6449 12.259C14.6449 12.8751 14.1336 13.3998 13.504 13.3998Z" fill="white"/>
</g>
<defs>
<clipPath id="clip0_4279_1419">
<rect width="22" height="22" fill="white"/>
</clipPath>
</defs>
</svg>
