<svg width="24" height="24" viewBox="0 0 24 24" fill="none" xmlns="http://www.w3.org/2000/svg">
<g clip-path="url(#clip0_4343_1228)">
<path d="M23.4375 12.2247C23.4375 11.2414 23.3577 10.5239 23.185 9.77979H11.957V14.2178H18.5476C18.4148 15.3207 17.6973 16.9816 16.1027 18.0977L16.0804 18.2463L19.6305 20.9965L19.8764 21.0211C22.1353 18.9349 23.4375 15.8654 23.4375 12.2247Z" fill="#4285F4"/>
<path d="M11.9606 23.9173C15.1894 23.9173 17.9001 22.8543 19.88 21.0206L16.1063 18.0973C15.0964 18.8016 13.7411 19.2932 11.9606 19.2932C8.79816 19.2932 6.11409 17.2071 5.1573 14.3237L5.01705 14.3356L1.32562 17.1925L1.27734 17.3267C3.24389 21.2332 7.28332 23.9173 11.9606 23.9173Z" fill="#34A853"/>
<path d="M5.15551 14.3238C4.90305 13.5797 4.75694 12.7824 4.75694 11.9586C4.75694 11.1347 4.90305 10.3375 5.14222 9.59343L5.13554 9.43495L1.39786 6.53223L1.27557 6.59039C0.465068 8.2115 0 10.0319 0 11.9586C0 13.8853 0.465068 15.7057 1.27557 17.3268L5.15551 14.3238Z" fill="#FBBC05"/>
<path d="M11.9606 4.62403C14.2061 4.62403 15.7209 5.59401 16.5846 6.40461L19.9596 3.10928C17.8868 1.18259 15.1894 0 11.9606 0C7.2833 0 3.24388 2.68406 1.27734 6.59056L5.144 9.59358C6.11408 6.7102 8.79814 4.62403 11.9606 4.62403Z" fill="#EB4335"/>
</g>
<defs>
<clipPath id="clip0_4343_1228">
<rect width="23.4504" height="24" fill="white"/>
</clipPath>
</defs>
</svg>
