<svg width="60" height="60" viewBox="0 0 60 60" fill="none" xmlns="http://www.w3.org/2000/svg">
<path d="M48.3298 21.0565H58.8281V13.3958C58.8281 11.4048 57.2133 9.79102 55.2233 9.79102H51.9245V12.6083C51.9245 13.9571 50.8311 15.0517 49.4822 15.0517C48.1332 15.0517 47.0388 13.9571 47.0388 12.6083V9.79102H38.9879V12.6083C38.9879 13.9571 37.8946 15.0517 36.5457 15.0517C35.1969 15.0517 34.1036 13.9571 34.1036 12.6083V9.79102H26.0527V12.6083C26.0527 13.9571 24.9593 15.0517 23.6093 15.0517C22.2605 15.0517 21.1671 13.9571 21.1671 12.6083V9.79102H13.1162V12.6083C13.1162 13.9571 12.0229 15.0517 10.674 15.0517C9.3252 15.0517 8.23184 13.9571 8.23184 12.6083V9.79102H4.77785C2.78672 9.79102 1.17188 11.4048 1.17188 13.3958V21.0565H38.0171H48.3298Z" fill="#FF7E96"/>
<path d="M48.3298 21.0565H58.8281V13.3958C58.8281 11.4048 57.2133 9.79102 55.2233 9.79102H51.9245V12.6083C51.9245 13.9571 50.8311 15.0517 49.4822 15.0517C48.1332 15.0517 47.0388 13.9571 47.0388 12.6083V9.79102H38.9879V12.6083C38.9879 13.9571 37.8946 15.0517 36.5457 15.0517C35.1969 15.0517 34.1036 13.9571 34.1036 12.6083V9.79102H26.0527V12.6083C26.0527 13.9571 24.9593 15.0517 23.6093 15.0517C22.2605 15.0517 21.1671 13.9571 21.1671 12.6083V9.79102H13.1162V12.6083C13.1162 13.9571 12.0229 15.0517 10.674 15.0517C9.3252 15.0517 8.23184 13.9571 8.23184 12.6083V9.79102H4.77785C2.78672 9.79102 1.17188 11.4048 1.17188 13.3958V21.0565H38.0171" stroke="black" stroke-width="2.34375" stroke-miterlimit="10" stroke-linecap="round" stroke-linejoin="round"/>
<path d="M38.0178 21.0562H1.17383V51.6078C1.17383 53.5984 2.78762 55.2123 4.7784 55.2123H55.2235C57.2143 55.2123 58.8281 53.5985 58.8281 51.6078V21.0562H48.3306H38.0178Z" fill="white"/>
<path d="M10.673 15.0509C9.32406 15.0509 8.23047 13.9574 8.23047 12.6085V7.23002C8.23047 5.88107 9.32395 4.7876 10.6729 4.7876C12.0218 4.7876 13.1153 5.88107 13.1153 7.23002V12.6085C13.1154 13.9573 12.022 15.0509 10.673 15.0509Z" fill="white"/>
<path d="M23.6105 15.0509C22.2616 15.0509 21.168 13.9574 21.168 12.6085V7.23002C21.168 5.88107 22.2614 4.7876 23.6104 4.7876C24.9593 4.7876 26.0528 5.88107 26.0528 7.23002V12.6085C26.0529 13.9573 24.9595 15.0509 23.6105 15.0509Z" fill="white"/>
<path d="M36.5461 15.0509C35.1971 15.0509 34.1035 13.9574 34.1035 12.6085V7.23002C34.1035 5.88107 35.1971 4.7876 36.5459 4.7876C37.8949 4.7876 38.9884 5.88107 38.9884 7.23002V12.6085C38.9885 13.9573 37.895 15.0509 36.5461 15.0509Z" fill="white"/>
<path d="M49.4816 15.0509C48.1327 15.0509 47.0391 13.9574 47.0391 12.6085V7.23002C47.0391 5.88107 48.1325 4.7876 49.4815 4.7876C50.8304 4.7876 51.9239 5.88107 51.9239 7.23002V12.6085C51.924 13.9573 50.8305 15.0509 49.4816 15.0509Z" fill="white"/>
<path d="M38.0178 21.0562H1.17383V51.6078C1.17383 53.5984 2.78762 55.2123 4.7784 55.2123H55.2235C57.2143 55.2123 58.8281 53.5985 58.8281 51.6078V21.0562H48.3305" stroke="black" stroke-width="2.34375" stroke-miterlimit="10" stroke-linecap="round" stroke-linejoin="round"/>
<path d="M10.673 15.0509C9.32406 15.0509 8.23047 13.9574 8.23047 12.6085V7.23002C8.23047 5.88107 9.32395 4.7876 10.6729 4.7876C12.0218 4.7876 13.1153 5.88107 13.1153 7.23002V12.6085C13.1154 13.9573 12.022 15.0509 10.673 15.0509Z" stroke="black" stroke-width="2.34375" stroke-miterlimit="10" stroke-linecap="round" stroke-linejoin="round"/>
<path d="M23.6105 15.0509C22.2616 15.0509 21.168 13.9574 21.168 12.6085V7.23002C21.168 5.88107 22.2614 4.7876 23.6104 4.7876C24.9593 4.7876 26.0528 5.88107 26.0528 7.23002V12.6085C26.0529 13.9573 24.9595 15.0509 23.6105 15.0509Z" stroke="black" stroke-width="2.34375" stroke-miterlimit="10" stroke-linecap="round" stroke-linejoin="round"/>
<path d="M36.5461 15.0509C35.1971 15.0509 34.1035 13.9574 34.1035 12.6085V7.23002C34.1035 5.88107 35.1971 4.7876 36.5459 4.7876C37.8949 4.7876 38.9884 5.88107 38.9884 7.23002V12.6085C38.9885 13.9573 37.895 15.0509 36.5461 15.0509Z" stroke="black" stroke-width="2.34375" stroke-miterlimit="10" stroke-linecap="round" stroke-linejoin="round"/>
<path d="M49.4816 15.0509C48.1327 15.0509 47.0391 13.9574 47.0391 12.6085V7.23002C47.0391 5.88107 48.1325 4.7876 49.4815 4.7876C50.8304 4.7876 51.9239 5.88107 51.9239 7.23002V12.6085C51.924 13.9573 50.8305 15.0509 49.4816 15.0509Z" stroke="black" stroke-width="2.34375" stroke-miterlimit="10" stroke-linecap="round" stroke-linejoin="round"/>
<path d="M9.59766 37.9258H51.3147" stroke="black" stroke-width="2.34375" stroke-miterlimit="10" stroke-linecap="round" stroke-linejoin="round"/>
<path d="M16.6602 37.9259V32.1626" stroke="black" stroke-width="2.34375" stroke-miterlimit="10" stroke-linecap="round" stroke-linejoin="round"/>
<path d="M31.5254 37.9259V32.1626" stroke="black" stroke-width="2.34375" stroke-miterlimit="10" stroke-linecap="round" stroke-linejoin="round"/>
<path d="M24.2969 44.1068V37.9258" stroke="black" stroke-width="2.34375" stroke-miterlimit="10" stroke-linecap="round" stroke-linejoin="round"/>
<path d="M40.5254 44.1068V37.9258" stroke="black" stroke-width="2.34375" stroke-miterlimit="10" stroke-linecap="round" stroke-linejoin="round"/>
<path d="M16.6609 32.1626C18.2125 32.1626 19.4702 30.9048 19.4702 29.3533C19.4702 27.8017 18.2125 26.5439 16.6609 26.5439C15.1093 26.5439 13.8516 27.8017 13.8516 29.3533C13.8516 30.9048 15.1093 32.1626 16.6609 32.1626Z" fill="#00D5F5"/>
<path d="M31.5261 32.1626C33.0777 32.1626 34.3355 30.9048 34.3355 29.3533C34.3355 27.8017 33.0777 26.5439 31.5261 26.5439C29.9746 26.5439 28.7168 27.8017 28.7168 29.3533C28.7168 30.9048 29.9746 32.1626 31.5261 32.1626Z" fill="#00D5F5"/>
<path d="M24.2976 49.7256C25.8492 49.7256 27.107 48.4678 27.107 46.9163C27.107 45.3647 25.8492 44.1069 24.2976 44.1069C22.7461 44.1069 21.4883 45.3647 21.4883 46.9163C21.4883 48.4678 22.7461 49.7256 24.2976 49.7256Z" fill="#00D5F5"/>
<path d="M40.5261 49.7256C42.0777 49.7256 43.3355 48.4678 43.3355 46.9163C43.3355 45.3647 42.0777 44.1069 40.5261 44.1069C38.9746 44.1069 37.7168 45.3647 37.7168 46.9163C37.7168 48.4678 38.9746 49.7256 40.5261 49.7256Z" fill="#00D5F5"/>
<path d="M16.6609 32.1626C18.2125 32.1626 19.4702 30.9048 19.4702 29.3533C19.4702 27.8017 18.2125 26.5439 16.6609 26.5439C15.1093 26.5439 13.8516 27.8017 13.8516 29.3533C13.8516 30.9048 15.1093 32.1626 16.6609 32.1626Z" stroke="black" stroke-width="2.34375" stroke-miterlimit="10" stroke-linecap="round" stroke-linejoin="round"/>
<path d="M31.5261 32.1626C33.0777 32.1626 34.3355 30.9048 34.3355 29.3533C34.3355 27.8017 33.0777 26.5439 31.5261 26.5439C29.9746 26.5439 28.7168 27.8017 28.7168 29.3533C28.7168 30.9048 29.9746 32.1626 31.5261 32.1626Z" stroke="black" stroke-width="2.34375" stroke-miterlimit="10" stroke-linecap="round" stroke-linejoin="round"/>
<path d="M24.2976 49.7256C25.8492 49.7256 27.107 48.4678 27.107 46.9163C27.107 45.3647 25.8492 44.1069 24.2976 44.1069C22.7461 44.1069 21.4883 45.3647 21.4883 46.9163C21.4883 48.4678 22.7461 49.7256 24.2976 49.7256Z" stroke="black" stroke-width="2.34375" stroke-miterlimit="10" stroke-linecap="round" stroke-linejoin="round"/>
<path d="M40.5261 49.7256C42.0777 49.7256 43.3355 48.4678 43.3355 46.9163C43.3355 45.3647 42.0777 44.1069 40.5261 44.1069C38.9746 44.1069 37.7168 45.3647 37.7168 46.9163C37.7168 48.4678 38.9746 49.7256 40.5261 49.7256Z" stroke="black" stroke-width="2.34375" stroke-miterlimit="10" stroke-linecap="round" stroke-linejoin="round"/>
<path d="M48.5664 40.6739L51.3146 37.9258L48.5664 35.1777" stroke="black" stroke-width="2.34375" stroke-miterlimit="10" stroke-linecap="round" stroke-linejoin="round"/>
</svg>
