<svg width="60" height="60" viewBox="0 0 60 60" fill="none" xmlns="http://www.w3.org/2000/svg">
<path d="M28.4789 15.5015H43.9348V27.9831L30.8426 41.0753L35.8512 46.0839L43.9348 38.0003V56.2558C43.9348 57.6761 42.784 58.828 41.3637 58.828H5.37305C3.95273 58.828 2.80078 57.6761 2.80078 56.2558V15.5015H18.1793H28.4789Z" fill="white"/>
<path d="M11.8242 24.2568H34.6882" stroke="black" stroke-width="2.34375" stroke-miterlimit="10" stroke-linecap="round" stroke-linejoin="round"/>
<path d="M11.8242 32.6035H32.3125" stroke="black" stroke-width="2.34375" stroke-miterlimit="10" stroke-linecap="round" stroke-linejoin="round"/>
<path d="M11.8242 40.9497H25.13" stroke="black" stroke-width="2.34375" stroke-miterlimit="10" stroke-linecap="round" stroke-linejoin="round"/>
<path d="M11.8242 49.2964H22.7875" stroke="black" stroke-width="2.34375" stroke-miterlimit="10" stroke-linecap="round" stroke-linejoin="round"/>
<path d="M49.7921 22.1249L30.8418 41.0752L35.8505 46.0839L54.8008 27.1335L49.7921 22.1249Z" fill="#FFCE62"/>
<path d="M30.8433 41.0752L27.6309 49.2964L35.852 46.084L30.8433 41.0752Z" fill="#EFD0C1"/>
<path d="M56.1613 20.7649C54.7781 19.3817 52.5356 19.3817 51.1526 20.7649L49.793 22.1245L54.8017 27.1332L56.1613 25.7736C57.5445 24.3906 57.5445 22.1481 56.1613 20.7649Z" fill="#FF7E96"/>
<path d="M49.7921 22.1249L30.8418 41.0752L35.8505 46.0839L54.8008 27.1335L49.7921 22.1249Z" stroke="black" stroke-width="2.34375" stroke-miterlimit="10" stroke-linecap="round" stroke-linejoin="round"/>
<path d="M30.8433 41.0752L27.6309 49.2964L35.852 46.084L30.8433 41.0752Z" stroke="black" stroke-width="2.34375" stroke-miterlimit="10" stroke-linecap="round" stroke-linejoin="round"/>
<path d="M56.1613 20.7649C54.7781 19.3817 52.5356 19.3817 51.1526 20.7649L49.793 22.1245L54.8017 27.1332L56.1613 25.7736C57.5445 24.3906 57.5445 22.1481 56.1613 20.7649Z" stroke="black" stroke-width="2.34375" stroke-miterlimit="10" stroke-linecap="round" stroke-linejoin="round"/>
<path d="M28.4795 15.5015H43.9359V8.36357C43.9359 6.94326 42.784 5.79248 41.3637 5.79248H37.8023V8.14326C37.8023 9.39834 36.7852 10.4155 35.5301 10.4155C34.2762 10.4155 33.259 9.39834 33.259 8.14326V5.79248H25.6395V8.14326C25.6395 9.39834 24.6234 10.4155 23.3684 10.4155C22.1133 10.4155 21.0973 9.39834 21.0973 8.14326V5.79248H13.4777V8.14326C13.4777 9.39834 12.4605 10.4155 11.2066 10.4155C9.95156 10.4155 8.93438 9.39834 8.93438 8.14326V5.79248H5.37305C3.95273 5.79248 2.80078 6.94326 2.80078 8.36357V15.5015H18.1793H28.4795Z" fill="#5C90AE"/>
<path d="M11.2052 10.4153C9.95055 10.4153 8.93359 9.3982 8.93359 8.14371V3.44344C8.93359 2.18895 9.95066 1.17188 11.2052 1.17188C12.4598 1.17188 13.4767 2.18895 13.4767 3.44344V8.14359C13.4768 9.3982 12.4598 10.4153 11.2052 10.4153Z" fill="white"/>
<path d="M35.5294 10.4153C34.2748 10.4153 33.2578 9.3982 33.2578 8.14371V3.44344C33.2578 2.18883 34.2749 1.17188 35.5294 1.17188C36.784 1.17188 37.8009 2.18895 37.8009 3.44344V8.14359C37.8009 9.3982 36.784 10.4153 35.5294 10.4153Z" fill="white"/>
<path d="M23.3673 10.4153C22.1127 10.4153 21.0957 9.3982 21.0957 8.14371V3.44344C21.0957 2.18883 22.1128 1.17188 23.3673 1.17188C24.6219 1.17188 25.6388 2.18895 25.6388 3.44344V8.14359C25.6388 9.3982 24.6218 10.4153 23.3673 10.4153Z" fill="white"/>
<path d="M28.4795 15.5015H43.9359V8.36357C43.9359 6.94326 42.784 5.79248 41.3637 5.79248H37.8023V8.14326C37.8023 9.39834 36.7852 10.4155 35.5301 10.4155C34.2762 10.4155 33.259 9.39834 33.259 8.14326V5.79248H25.6395V8.14326C25.6395 9.39834 24.6234 10.4155 23.3684 10.4155C22.1133 10.4155 21.0973 9.39834 21.0973 8.14326V5.79248H13.4777V8.14326C13.4777 9.39834 12.4605 10.4155 11.2066 10.4155C9.95156 10.4155 8.93438 9.39834 8.93438 8.14326V5.79248H5.37305C3.95273 5.79248 2.80078 6.94326 2.80078 8.36357V15.5015H18.1793" stroke="black" stroke-width="2.34375" stroke-miterlimit="10" stroke-linecap="round" stroke-linejoin="round"/>
<path d="M28.4789 15.5015H43.9348V27.9831L30.8426 41.0753L35.8512 46.0839L43.9348 38.0003V56.2558C43.9348 57.6761 42.784 58.828 41.3637 58.828H5.37305C3.95273 58.828 2.80078 57.6761 2.80078 56.2558V15.5015H18.1793" stroke="black" stroke-width="2.34375" stroke-miterlimit="10" stroke-linecap="round" stroke-linejoin="round"/>
<path d="M11.2052 10.4153C9.95055 10.4153 8.93359 9.3982 8.93359 8.14371V3.44344C8.93359 2.18895 9.95066 1.17188 11.2052 1.17188C12.4598 1.17188 13.4767 2.18895 13.4767 3.44344V8.14359C13.4768 9.3982 12.4598 10.4153 11.2052 10.4153Z" stroke="black" stroke-width="2.34375" stroke-miterlimit="10" stroke-linecap="round" stroke-linejoin="round"/>
<path d="M35.5294 10.4153C34.2748 10.4153 33.2578 9.3982 33.2578 8.14371V3.44344C33.2578 2.18883 34.2749 1.17188 35.5294 1.17188C36.784 1.17188 37.8009 2.18895 37.8009 3.44344V8.14359C37.8009 9.3982 36.784 10.4153 35.5294 10.4153Z" stroke="black" stroke-width="2.34375" stroke-miterlimit="10" stroke-linecap="round" stroke-linejoin="round"/>
<path d="M23.3673 10.4153C22.1127 10.4153 21.0957 9.3982 21.0957 8.14371V3.44344C21.0957 2.18883 22.1128 1.17188 23.3673 1.17188C24.6219 1.17188 25.6388 2.18895 25.6388 3.44344V8.14359C25.6388 9.3982 24.6218 10.4153 23.3673 10.4153Z" stroke="black" stroke-width="2.34375" stroke-miterlimit="10" stroke-linecap="round" stroke-linejoin="round"/>
</svg>
