<svg width="83" height="81" viewBox="0 0 83 81" fill="none" xmlns="http://www.w3.org/2000/svg">
<path d="M80.7051 0.00244141H43.4032C42.1113 0.00244141 41.1563 1.21824 41.5642 2.44401C45.5772 14.5016 55.9727 17.6287 62.9427 17.71C64.4293 17.7274 65.622 19.1912 65.4011 20.6615C63.7949 31.3568 73.2139 38.0767 80.1686 40.9272C81.4113 41.4365 82.7051 40.4803 82.7051 39.1372V2.00244C82.7051 0.897872 81.8097 0.00244141 80.7051 0.00244141Z" fill="#3584FB"/>
<path d="M60.793 19.5234H23.4911C22.1992 19.5234 21.2441 20.7392 21.6521 21.965C25.6651 34.0226 36.0606 37.1497 43.0306 37.231C44.5172 37.2484 45.7099 38.7122 45.489 40.1825C43.8828 50.8778 53.3018 57.5976 60.2565 60.4482C61.4992 60.9575 62.793 60.0012 62.793 58.6582V21.5234C62.793 20.4189 61.8976 19.5234 60.793 19.5234Z" fill="#3584FB"/>
<path d="M39.834 39.0488H2.5321C1.24022 39.0488 0.285164 40.2646 0.693123 41.4904C4.70611 53.548 15.1016 56.6751 22.0716 56.7564C23.5582 56.7738 24.7509 58.2376 24.5301 59.7079C22.9238 70.4032 32.3428 77.123 39.2975 79.9736C40.5402 80.4829 41.834 79.5266 41.834 78.1836V41.0488C41.834 39.9443 40.9386 39.0488 39.834 39.0488Z" fill="#3584FB"/>
</svg>
