<svg width="70" height="70" viewBox="0 0 70 70" fill="none" xmlns="http://www.w3.org/2000/svg">
<path d="M35.0234 23.2578L23.1641 30.5859L35.0234 37.9219L46.8594 30.5859L35.0234 23.2578ZM35 0C15.6719 0 0 15.6719 0 35C0 54.3281 15.6719 70 35 70C54.3281 70 70 54.3281 70 35C70 15.6719 54.3281 0 35 0ZM46.8125 46.5234L35.0469 53.5938L23.25 46.5234V43.9375L26.7969 46.2344L35.0469 39.3828L43.2969 46.2344L46.8203 43.9375V46.5234H46.8125ZM43.25 44.7734L35.0234 37.9219L26.7969 44.7734L15 37.0234L23.1641 30.5859L15 24L26.7969 16.4062L35.0234 23.2578L43.25 16.4062L55 24.0703L46.8594 30.5938L55 37.1094L43.25 44.7734Z" fill="#0F247F"/>
</svg>
