<svg width="70" height="70" viewBox="0 0 70 70" fill="none" xmlns="http://www.w3.org/2000/svg">
<circle cx="35" cy="35" r="35" fill="#F87B5E"/>
<path d="M45.6243 27.9167V22.9167C46.8743 22.2917 47.916 21.0417 47.916 19.5834V19.3751C47.916 17.2917 46.2493 15.6251 44.166 15.6251H43.9577C41.8743 15.6251 40.2077 17.2917 40.2077 19.3751V19.5834C40.2077 21.0417 41.041 22.2917 42.4993 22.9167V27.9167C40.6243 28.1251 38.7493 28.9584 37.291 30.2084L23.541 19.5834C24.166 17.2917 22.7077 14.7917 20.416 14.3751C18.1243 13.9584 15.8327 15.0001 15.2077 17.2917C14.5827 19.5834 16.041 22.0834 18.3327 22.7084C19.3743 22.9167 20.6243 22.9167 21.666 22.2917L34.9993 32.7084C32.4993 36.4584 32.4993 41.2501 35.2077 45.0001L31.041 49.1667C30.6243 49.1667 30.416 48.9584 29.9993 48.9584C28.1243 48.9584 26.4577 50.6251 26.4577 52.5001C26.4577 54.3751 28.1243 55.8334 29.9993 55.8334C31.8743 55.8334 33.541 54.1667 33.541 52.2917C33.541 51.8751 33.541 51.6667 33.3327 51.2501L37.291 47.2917C42.0827 50.8334 48.9577 50.0001 52.4993 45.2084C56.041 40.4167 55.2077 33.5417 50.416 30.0001C49.166 28.9584 47.4993 28.1251 45.6243 27.9167ZM43.9577 44.1667C40.8327 44.1667 38.3327 41.6667 38.3327 38.5417C38.3327 35.4167 40.8327 32.9167 43.9577 32.9167C47.0827 32.9167 49.5827 35.4167 49.5827 38.5417C49.5827 41.6667 47.0827 44.1667 43.9577 44.1667Z" fill="white"/>
</svg>
