<svg width="70" height="70" viewBox="0 0 70 70" fill="none" xmlns="http://www.w3.org/2000/svg">
<circle cx="35" cy="35" r="35" fill="#1A6BFB"/>
<path d="M47.5007 18.3335H22.5007C21.3956 18.3335 20.3358 18.7725 19.5544 19.5539C18.773 20.3353 18.334 21.3951 18.334 22.5002V47.5002C18.334 48.6052 18.773 49.6651 19.5544 50.4465C20.3358 51.2279 21.3956 51.6668 22.5007 51.6668H47.5007C48.6057 51.6668 49.6655 51.2279 50.4469 50.4465C51.2283 49.6651 51.6673 48.6052 51.6673 47.5002V22.5002C51.6673 21.3951 51.2283 20.3353 50.4469 19.5539C49.6655 18.7725 48.6057 18.3335 47.5007 18.3335ZM39.4507 24.4502C39.4484 24.3029 39.4758 24.1567 39.5311 24.0202C39.5864 23.8837 39.6686 23.7597 39.7727 23.6556C39.8769 23.5514 40.0009 23.4692 40.1374 23.4139C40.2738 23.3586 40.4201 23.3312 40.5673 23.3335C40.8564 23.3419 41.1314 23.4605 41.3359 23.665C41.5404 23.8695 41.6589 24.1444 41.6673 24.4335V39.2668C41.6341 39.5374 41.503 39.7864 41.2989 39.967C41.0947 40.1476 40.8316 40.2473 40.559 40.2473C40.2864 40.2473 40.0233 40.1476 39.8191 39.967C39.6149 39.7864 39.4839 39.5374 39.4507 39.2668V24.4502ZM33.884 23.8835C33.884 23.5873 34.0016 23.3033 34.2111 23.0939C34.4205 22.8845 34.7045 22.7668 35.0007 22.7668C35.2968 22.7668 35.5808 22.8845 35.7903 23.0939C35.9997 23.3033 36.1173 23.5873 36.1173 23.8835V40.0002C36.1173 40.2963 35.9997 40.5804 35.7903 40.7898C35.5808 40.9992 35.2968 41.1168 35.0007 41.1168C34.7045 41.1168 34.4205 40.9992 34.2111 40.7898C34.0016 40.5804 33.884 40.2963 33.884 40.0002V23.8835ZM28.334 24.4502C28.3672 24.1796 28.4983 23.9306 28.7024 23.75C28.9066 23.5694 29.1697 23.4697 29.4423 23.4697C29.7149 23.4697 29.9781 23.5694 30.1822 23.75C30.3864 23.9306 30.5174 24.1796 30.5507 24.4502V39.2835C30.5507 39.4294 30.5217 39.5738 30.4654 39.7083C30.409 39.8429 30.3265 39.9649 30.2226 40.0673C30.1187 40.1696 29.9954 40.2503 29.8601 40.3046C29.7247 40.3589 29.5798 40.3857 29.434 40.3835C29.1449 40.3751 28.87 40.2565 28.6655 40.052C28.461 39.8475 28.3424 39.5726 28.334 39.2835V24.4502ZM22.784 26.6668C22.8172 26.3963 22.9483 26.1472 23.1524 25.9666C23.3566 25.786 23.6197 25.6863 23.8923 25.6863C24.1649 25.6863 24.4281 25.786 24.6322 25.9666C24.8364 26.1472 24.9674 26.3963 25.0007 26.6668V36.6668C24.9963 36.9601 24.8767 37.2399 24.6678 37.4457C24.4588 37.6515 24.1773 37.7669 23.884 37.7668C23.5936 37.7625 23.3163 37.6453 23.1109 37.4399C22.9056 37.2345 22.7883 36.9572 22.784 36.6668V26.6668ZM46.834 43.6168C43.4073 46.1148 39.2379 47.3833 35.0007 47.2168C30.7634 47.3833 26.594 46.1148 23.1673 43.6168C22.9933 43.4133 22.8982 43.1541 22.8993 42.8863C22.9005 42.6186 22.9978 42.3602 23.1735 42.1582C23.3493 41.9562 23.5918 41.824 23.8568 41.7859C24.1218 41.7477 24.3917 41.806 24.6173 41.9502C27.6538 44.0708 31.2997 45.1417 35.0007 45.0002C38.7043 45.143 42.3523 44.0656 45.384 41.9335C45.6096 41.7893 45.8795 41.731 46.1445 41.7692C46.4096 41.8074 46.652 41.9395 46.8278 42.1415C47.0035 42.3435 47.1008 42.6019 47.102 42.8697C47.1031 43.1374 47.008 43.3967 46.834 43.6002V43.6168ZM47.2173 36.6668C47.1841 36.9374 47.053 37.1864 46.8489 37.367C46.6447 37.5476 46.3816 37.6473 46.109 37.6473C45.8364 37.6473 45.5733 37.5476 45.3691 37.367C45.1649 37.1864 45.0339 36.9374 45.0007 36.6668V26.6668C45.005 26.3736 45.1246 26.0938 45.3336 25.888C45.5425 25.6822 45.824 25.5668 46.1173 25.5668C46.4091 25.5668 46.6889 25.6827 46.8951 25.889C47.1014 26.0953 47.2173 26.3751 47.2173 26.6668V36.6668Z" fill="white"/>
</svg>
