<svg width="70" height="70" viewBox="0 0 70 70" fill="none" xmlns="http://www.w3.org/2000/svg">
<circle cx="35" cy="35" r="35" fill="#40CE7C"/>
<g clip-path="url(#clip0_4281_539)">
<path d="M27.7521 17C22.9521 17 19.0566 20.8685 19.0566 25.637V44.363C19.0566 49.13 22.9521 53 27.7521 53C29.1559 53.0035 30.5396 52.6671 31.7851 52.0196C33.0305 51.372 34.1007 50.4326 34.9041 49.2815L36.0951 50.4665C39.4851 53.834 45.0096 53.834 48.3996 50.4665C49.2071 49.6667 49.8478 48.7146 50.2845 47.6653C50.7212 46.6161 50.9453 45.4905 50.9436 44.354C50.9451 43.2178 50.7209 42.0925 50.2842 41.0435C49.8475 39.9945 49.207 39.0426 48.3996 38.243L45.1266 34.991L48.3996 31.757C49.207 30.9574 49.8475 30.0055 50.2842 28.9565C50.7209 27.9075 50.9451 26.7823 50.9436 25.646C50.9451 24.5098 50.7209 23.3845 50.2842 22.3355C49.8475 21.2865 49.207 20.3346 48.3996 19.535C45.0096 16.166 39.4866 16.166 36.0951 19.535L34.9041 20.7185C34.1007 19.5675 33.0305 18.628 31.7851 17.9805C30.5396 17.3329 29.1559 16.9965 27.7521 17Z" fill="white"/>
</g>
<defs>
<clipPath id="clip0_4281_539">
<rect width="36" height="36" fill="white" transform="translate(17 17)"/>
</clipPath>
</defs>
</svg>
