<svg width="90" height="91" viewBox="0 0 90 91" fill="none" xmlns="http://www.w3.org/2000/svg">
<path d="M81.5625 0.00244141H8.4375C3.79688 0.00244141 0 3.79932 0 8.43994V81.5649C0 86.2056 3.79688 90.0024 8.4375 90.0024H81.5625C86.2031 90.0024 90 86.2056 90 81.5649V8.43994C90 3.79932 86.2031 0.00244141 81.5625 0.00244141ZM33.75 73.1274H22.5V33.7524H33.75V73.1274ZM28.125 28.1274C26.6332 28.1274 25.2024 27.5348 24.1475 26.4799C23.0926 25.425 22.5 23.9943 22.5 22.5024C22.5 21.0106 23.0926 19.5799 24.1475 18.525C25.2024 17.4701 26.6332 16.8774 28.125 16.8774C29.6168 16.8774 31.0476 17.4701 32.1025 18.525C33.1574 19.5799 33.75 21.0106 33.75 22.5024C33.75 23.9943 33.1574 25.425 32.1025 26.4799C31.0476 27.5348 29.6168 28.1274 28.125 28.1274ZM73.125 73.1274H61.875V50.6274C61.875 49.1356 61.2824 47.7049 60.2275 46.65C59.1726 45.5951 57.7418 45.0024 56.25 45.0024C54.7582 45.0024 53.3274 45.5951 52.2725 46.65C51.2176 47.7049 50.625 49.1356 50.625 50.6274V73.1274H39.375V33.7524H50.625V40.7331C52.9425 37.5493 56.4975 33.7524 60.4688 33.7524C67.4662 33.7524 73.125 40.0468 73.125 47.8149V73.1274Z" fill="#D53B61"/>
</svg>
