<svg width="191" height="51" viewBox="0 0 191 51" fill="none" xmlns="http://www.w3.org/2000/svg">
<path d="M57.0149 35.2464L70.5318 34.9159L70.4324 30.8495L61.7197 31.0625L61.3452 15.7458L56.541 15.8633L57.0149 35.2464Z" fill="white"/>
<path d="M78.4754 32.009C76.5483 32.0561 75.5029 30.3999 75.4413 27.8787C75.3797 25.3576 76.3422 23.6251 78.2693 23.578C80.1964 23.5309 81.2695 25.2136 81.3312 27.7347C81.3928 30.2559 80.4025 31.9619 78.4754 32.009ZM78.5794 35.153C83.0579 35.0435 85.9117 31.8 85.8097 27.6252C85.7076 23.4504 82.6987 20.3503 78.2202 20.4598C73.7689 20.5686 70.8607 23.8134 70.9628 27.9882C71.0649 32.163 74.1281 35.2618 78.5794 35.153Z" fill="white"/>
<path d="M93.8476 39.147C95.9104 39.0966 97.7177 38.5913 98.9126 37.4771C100.001 36.4468 100.697 34.9108 100.646 32.8234L100.339 20.2989L96.1052 20.4024L96.1416 21.8934L96.0874 21.8948C95.2446 20.749 93.9782 20.0476 92.1325 20.0927C88.6854 20.177 86.3671 23.1089 86.4665 27.1753C86.5706 31.4315 89.5318 33.6918 92.6532 33.6155C94.336 33.5744 95.378 32.8708 96.1697 31.9292L96.2783 31.9265L96.3121 33.3091C96.3532 34.9899 95.5899 35.985 93.7171 36.0308C92.2514 36.0666 91.5033 35.4611 91.2412 34.7351L86.9527 34.8399C87.4579 37.73 90.0205 39.2406 93.8476 39.147ZM93.6044 30.3101C91.9487 30.3506 90.8299 29.0217 90.7789 26.9343C90.7272 24.8197 91.7797 23.4377 93.4354 23.3973C95.2811 23.3521 96.2966 24.9006 96.3424 26.7711C96.3901 28.723 95.5315 30.263 93.6044 30.3101Z" fill="white"/>
<path d="M109.317 31.2551C107.39 31.3022 106.345 29.646 106.283 27.1248C106.221 24.6036 107.184 22.8712 109.111 22.8241C111.038 22.777 112.111 24.4596 112.173 26.9808C112.235 29.502 111.244 31.208 109.317 31.2551ZM109.421 34.3991C113.9 34.2896 116.753 31.0461 116.651 26.8713C116.549 22.6965 113.54 19.5964 109.062 19.7059C104.611 19.8147 101.703 23.0595 101.805 27.2343C101.907 31.4091 104.97 34.5079 109.421 34.3991Z" fill="white"/>
<path d="M118.115 33.7522L122.539 33.6441L122.199 19.7641L117.775 19.8723L118.115 33.7522ZM117.728 17.9476L122.152 17.8394L122.065 14.261L117.641 14.3691L117.728 17.9476Z" fill="white"/>
<path d="M124.571 38.1786L128.995 38.0704L128.848 32.0522L128.902 32.0508C129.799 33.1953 131.092 33.8689 132.883 33.8251C136.52 33.7362 138.866 30.8036 138.756 26.3035C138.654 22.1286 136.323 19.0119 132.632 19.1022C130.732 19.1486 129.396 20.0222 128.476 21.2924L128.395 21.2944L128.354 19.6137L124.119 19.7172L124.571 38.1786ZM131.66 30.4373C129.76 30.4837 128.636 28.965 128.581 26.715C128.526 24.4649 129.462 22.7331 131.389 22.686C133.289 22.6396 134.223 24.19 134.281 26.5756C134.339 28.9341 133.343 30.3961 131.66 30.4373Z" fill="white"/>
<path d="M146.138 33.5014C149.775 33.4124 152.424 31.7744 152.349 28.7382C152.263 25.1869 149.37 24.6337 146.917 24.2868C145.145 24.0046 143.568 23.9076 143.544 22.9316C143.523 22.0641 144.354 21.6369 145.44 21.6104C146.661 21.5805 147.512 21.9395 147.705 23.1825L151.777 23.083C151.492 20.3503 149.334 18.6941 145.398 18.7903C142.114 18.8706 139.437 20.4551 139.508 23.3829C139.588 26.636 142.182 27.2236 144.608 27.5712C146.461 27.8514 148.148 27.9458 148.178 29.1928C148.2 30.0874 147.37 30.5959 146.04 30.6285C144.575 30.6643 143.635 30.0091 143.439 28.6305L139.259 28.7327C139.469 31.7927 142.067 33.6009 146.138 33.5014Z" fill="white"/>
<path d="M158.471 33.173C160.398 33.1259 161.601 32.3369 162.572 30.9569L162.654 30.9549L162.695 32.6628L166.93 32.5593L166.59 18.6794L162.166 18.7875L162.356 26.5408C162.396 28.1944 161.501 29.3556 159.981 29.3928C158.57 29.4273 157.871 28.6035 157.834 27.0853L157.633 18.8984L153.236 19.0059L153.459 28.1146C153.535 31.205 155.268 33.2513 158.471 33.173Z" fill="white"/>
<path d="M168.853 32.5121L173.277 32.404L173.087 24.6236C173.047 22.97 173.833 21.7844 175.217 21.7505C176.547 21.718 177.192 22.5702 177.229 24.0613L177.43 32.3025L181.854 32.1943L181.664 24.4139C181.624 22.7603 182.382 21.5753 183.794 21.5408C185.124 21.5083 185.769 22.3606 185.806 23.8516L186.007 32.0928L190.431 31.9846L190.211 22.9572C190.134 19.8397 188.508 17.7365 185.359 17.8135C183.568 17.8573 182.094 18.6529 181.049 20.3602L180.995 20.3615C180.253 18.8877 178.845 17.9728 177.027 18.0172C175.018 18.0663 173.711 19.0477 172.878 20.5057L172.796 20.5077L172.748 18.5287L168.514 18.6322L168.853 32.5121Z" fill="white"/>
<path d="M29.2781 5.43605L24.801 4.35441L21.3943 18.4181L17.7018 5.88677L13.2828 7.18591L17.2723 20.7251L7.94298 11.8519L4.76632 15.1837L14.9994 24.9166L2.47809 21.8915L1.39486 26.3632L15.076 29.6685C14.904 29.0019 14.8046 28.3054 14.7871 27.5877C14.6628 22.5074 18.6855 18.2882 23.772 18.1639C28.8585 18.0395 33.0825 22.0571 33.2067 27.1373C33.2242 27.8504 33.1598 28.5466 33.0224 29.2168L45.4561 32.2207L46.5392 27.749L32.8037 24.4306L45.1631 20.797L43.8626 16.3836L30.3062 20.369L39.1907 11.0506L35.855 7.87802L26.2449 17.9575L29.2781 5.43605Z" fill="white"/>
<path d="M33.0119 29.2692C32.6699 30.8888 31.9001 32.3551 30.8238 33.5411L39.9914 42.2606L43.168 38.9288L33.0119 29.2692Z" fill="white"/>
<path d="M30.7345 33.6367C29.6443 34.8045 28.2523 35.6902 26.6786 36.1675L30.2317 48.2261L34.6506 46.9269L30.7345 33.6367Z" fill="white"/>
<path d="M26.5145 36.2159C25.784 36.4227 25.016 36.5418 24.222 36.5612C23.3713 36.582 22.5447 36.4869 21.7574 36.2904L18.7951 48.5193L23.2721 49.6009L26.5145 36.2159Z" fill="white"/>
<path d="M21.598 36.2495C20.0265 35.8273 18.6177 34.9992 17.4945 33.8822L8.7425 43.0617L12.0782 46.2343L21.598 36.2495Z" fill="white"/>
<path d="M17.42 33.8042C16.3155 32.6795 15.4965 31.2714 15.0845 29.6951L2.77249 33.3147L4.07294 37.7281L17.42 33.8042Z" fill="white"/>
</svg>
