<svg width="179" height="54" viewBox="0 0 179 54" fill="none" xmlns="http://www.w3.org/2000/svg">
<path d="M62.2814 38.5558L76.4741 38.2088L76.3696 33.9339L67.2213 34.1576L66.8276 18.0554L61.7832 18.1787L62.2814 38.5558Z" fill="white"/>
<path d="M84.8154 35.1527C82.792 35.2022 81.6943 33.461 81.6295 30.8105C81.5647 28.1601 82.5753 26.3388 84.5988 26.2894C86.6222 26.2399 87.7491 28.0089 87.8139 30.6593C87.8787 33.3098 86.8389 35.1032 84.8154 35.1527ZM84.9248 38.4579C89.6272 38.343 92.6236 34.9333 92.5163 30.5444C92.409 26.1555 89.2495 22.8963 84.5471 23.0112C79.8732 23.1255 76.8198 26.5366 76.9271 30.9255C77.0344 35.3144 80.2509 38.5722 84.9248 38.4579Z" fill="white"/>
<path d="M100.956 42.6571C103.122 42.6042 105.02 42.073 106.274 40.9017C107.417 39.8186 108.148 38.2039 108.094 36.0094L107.772 22.8427L103.326 22.9514L103.364 24.5188L103.307 24.5202C102.422 23.3156 101.093 22.5782 99.1547 22.6256C95.5353 22.7141 93.1012 25.7963 93.2057 30.0712C93.3151 34.5457 96.4245 36.9221 99.7019 36.8419C101.469 36.7987 102.563 36.0591 103.394 35.0692L103.508 35.0664L103.544 36.5199C103.587 38.2868 102.786 39.333 100.819 39.3811C99.2801 39.4187 98.4946 38.782 98.2193 38.0188L93.7164 38.1289C94.2469 41.1672 96.9378 42.7554 100.956 42.6571ZM100.701 33.367C98.9621 33.4095 97.7873 32.0124 97.7336 29.818C97.6793 27.595 98.7844 26.1422 100.523 26.0997C102.461 26.0523 103.527 27.6802 103.575 29.6466C103.625 31.6986 102.724 33.3176 100.701 33.367Z" fill="white"/>
<path d="M117.198 34.3617C115.175 34.4111 114.077 32.67 114.012 30.0195C113.948 27.3691 114.958 25.5478 116.982 25.4984C119.005 25.4489 120.131 27.2179 120.196 29.8683C120.261 32.5188 119.222 34.3122 117.198 34.3617ZM117.308 37.6669C122.01 37.552 125.006 34.1423 124.899 29.7534C124.791 25.3645 121.632 22.1053 116.93 22.2202C112.256 22.3345 109.203 25.7456 109.31 30.1345C109.417 34.5234 112.634 37.7812 117.308 37.6669Z" fill="white"/>
<path d="M126.436 36.9874L131.081 36.8739L130.724 22.2822L126.079 22.3957L126.436 36.9874ZM126.029 20.3723L130.675 20.2587L130.583 16.4968L125.938 16.6104L126.029 20.3723Z" fill="white"/>
<path d="M133.213 41.6403L137.859 41.5267L137.704 35.1999L137.761 35.1985C138.703 36.4016 140.061 37.1099 141.942 37.0639C145.761 36.9705 148.223 33.8876 148.108 29.1567C148 24.7677 145.553 21.4911 141.677 21.5859C139.682 21.6347 138.279 22.553 137.314 23.8884L137.228 23.8904L137.185 22.1235L132.739 22.2322L133.213 41.6403ZM140.657 33.5022C138.662 33.551 137.482 31.9544 137.424 29.5889C137.367 27.2235 138.349 25.4029 140.372 25.3535C142.367 25.3047 143.348 26.9347 143.409 29.4426C143.47 31.9221 142.424 33.459 140.657 33.5022Z" fill="white"/>
<path d="M155.859 36.7236C159.678 36.6302 162.459 34.9083 162.381 31.7163C162.29 27.9829 159.253 27.4013 156.678 27.0365C154.817 26.7398 153.16 26.6377 153.135 25.6117C153.113 24.6997 153.986 24.2506 155.126 24.2228C156.409 24.1914 157.302 24.5688 157.505 25.8756L161.78 25.7711C161.481 22.8982 159.215 21.1571 155.082 21.2581C151.634 21.3424 148.823 23.0081 148.898 26.086C148.982 29.506 151.706 30.1238 154.253 30.4892C156.199 30.7838 157.969 30.8831 158.002 32.1941C158.025 33.1346 157.154 33.6692 155.757 33.7033C154.218 33.741 153.232 33.0522 153.025 31.6029L148.636 31.7102C148.858 34.9271 151.585 36.8281 155.859 36.7236Z" fill="white"/>
<path d="M168.81 36.3791C170.833 36.3297 172.096 35.5003 173.116 34.0496L173.201 34.0475L173.245 35.843L177.691 35.7343L177.334 21.1425L172.689 21.2561L172.888 29.407C172.931 31.1454 171.991 32.3661 170.395 32.4051C168.913 32.4413 168.179 31.5753 168.14 29.9793L167.929 21.3725L163.312 21.4854L163.547 31.0612C163.626 34.3101 165.447 36.4614 168.81 36.3791Z" fill="white"/>
<path fill-rule="evenodd" clip-rule="evenodd" d="M25.5807 52.5229C38.6973 52.2022 49.0702 41.3092 48.7496 28.1927C48.4289 15.0762 37.536 4.70318 24.4194 5.02386C11.3029 5.34453 0.92988 16.2375 1.25055 29.354C1.57123 42.4705 12.4642 52.8435 25.5807 52.5229ZM28.5338 23.2838C30.5087 21.2098 30.4284 17.9275 28.3545 15.9524C26.2805 13.9774 22.9982 14.0577 21.0232 16.1317C19.0482 18.2057 19.1285 21.488 21.2024 23.463L24.9576 27.039L28.5338 23.2838ZM30.4897 32.3071C32.5637 34.2821 35.846 34.2018 37.8211 32.1278C39.796 30.0538 39.7157 26.7715 37.6418 24.7965C35.5678 22.8215 32.2855 22.9018 30.3105 24.9757L26.7345 28.7311L30.4897 32.3071ZM28.977 41.4151C30.952 39.3411 30.8717 36.0588 28.7978 34.0838L25.0424 30.5078L21.4664 34.263C19.4915 36.337 19.5718 39.6193 21.6457 41.5944C23.7197 43.5694 27.002 43.4892 28.977 41.4151ZM12.3583 32.7503C10.2844 30.7753 10.2041 27.493 12.1791 25.419C14.1542 23.3451 17.4365 23.2648 19.5105 25.2397L23.2657 28.8159L19.6897 32.5711C17.7147 34.6451 14.4324 34.7254 12.3583 32.7503Z" fill="white"/>
</svg>
