<svg width="201" height="44" viewBox="0 0 201 44" fill="none" xmlns="http://www.w3.org/2000/svg">
<path d="M61.2665 33.9093L60.7734 13.7422L64.5953 13.6487L65.0039 30.3587L74.2692 30.1322L74.3537 33.5894L61.2665 33.9093Z" fill="white"/>
<path d="M82.614 33.7914C81.1856 33.8263 79.8949 33.5696 78.7419 33.0212C77.5889 32.4729 76.6709 31.6593 75.9879 30.5806C75.3048 29.5019 74.9445 28.1942 74.907 26.6577L74.8957 26.1967C74.8581 24.6601 75.1541 23.3364 75.7836 22.2256C76.4131 21.1148 77.2902 20.2573 78.4151 19.6532C79.5399 19.0493 80.8165 18.7298 82.2449 18.6949C83.6733 18.6599 84.964 18.9167 86.1169 19.4649C87.2698 20.0133 88.1878 20.8269 88.871 21.9057C89.554 22.9844 89.9143 24.292 89.9519 25.8286L89.9632 26.2896C90.0007 27.8261 89.7047 29.1498 89.0752 30.2606C88.4456 31.3715 87.5685 32.2289 86.4437 32.8329C85.319 33.437 84.0424 33.7565 82.614 33.7914ZM82.5351 30.5646C83.6546 30.5373 84.5725 30.1593 85.2887 29.4307C86.0042 28.6829 86.3457 27.6367 86.3128 26.2923L86.3058 26.0042C86.2729 24.6597 85.881 23.6411 85.1302 22.9483C84.3981 22.236 83.4626 21.8937 82.3238 21.9215C81.2042 21.9489 80.2866 22.3365 79.5709 23.0842C78.8547 23.8129 78.5131 24.8494 78.546 26.1939L78.5531 26.482C78.5859 27.8264 78.978 28.8547 79.7294 29.5666C80.4803 30.2593 81.4155 30.592 82.5351 30.5646Z" fill="white"/>
<path d="M91.3305 26.0825L91.3192 25.6215C91.2826 24.1233 91.5505 22.8387 92.1231 21.7677C92.6952 20.6776 93.4666 19.8419 94.4374 19.2608C95.4272 18.6602 96.5107 18.3454 97.6882 18.3166C99.0008 18.2845 100 18.4906 100.687 18.9351C101.374 19.3795 101.878 19.8476 102.199 20.3394L102.72 20.3267L102.678 18.5981L106.269 18.5103L106.68 35.3355C106.704 36.3151 106.433 37.1 105.868 37.6904C105.304 38.3 104.539 38.6165 103.574 38.6401L93.961 38.8751L93.8835 35.706L102.222 35.5022C102.763 35.489 103.026 35.1942 103.012 34.618L102.921 30.9015L102.4 30.9143C102.214 31.2263 101.952 31.5497 101.612 31.8849C101.272 32.2005 100.816 32.4713 100.242 32.6967C99.6676 32.922 98.9368 33.0457 98.0488 33.0674C96.8713 33.0962 95.7739 32.8443 94.7565 32.3119C93.758 31.7597 92.9466 30.9628 92.3224 29.921C91.6977 28.8602 91.3671 27.5805 91.3305 26.0825ZM99.0138 29.8727C100.133 29.8454 101.061 29.4671 101.796 28.7381C102.532 28.009 102.884 27.0011 102.852 25.7143L102.845 25.4262C102.813 24.1201 102.412 23.1306 101.643 22.4574C100.892 21.7648 99.9469 21.4323 98.8081 21.4602C97.6884 21.4875 96.761 21.8658 96.0255 22.5948C95.2896 23.3047 94.9376 24.3126 94.9695 25.6187L94.9766 25.9069C95.008 27.1937 95.4089 28.1832 96.1791 28.8755C96.9493 29.5677 97.8941 29.9001 99.0138 29.8727Z" fill="white"/>
<path d="M116.202 32.9701C114.774 33.005 113.483 32.7483 112.33 32.1999C111.177 31.6516 110.259 30.8381 109.576 29.7593C108.893 28.6806 108.532 27.3729 108.495 25.8364L108.484 25.3754C108.446 23.8388 108.742 22.5151 109.372 21.4043C110.001 20.2935 110.878 19.436 112.003 18.832C113.128 18.228 114.405 17.9085 115.833 17.8736C117.261 17.8386 118.552 18.0954 119.705 18.6437C120.858 19.1921 121.776 20.0056 122.459 21.0844C123.142 22.1631 123.502 23.4707 123.54 25.0073L123.551 25.4683C123.589 27.0048 123.293 28.3285 122.663 29.4394C122.034 30.5502 121.156 31.4076 120.032 32.0116C118.907 32.6157 117.63 32.9352 116.202 32.9701ZM116.123 29.7433C117.243 29.716 118.16 29.338 118.877 28.6094C119.592 27.8616 119.934 26.8154 119.901 25.471L119.894 25.1829C119.861 23.8384 119.469 22.8198 118.718 22.127C117.986 21.4147 117.051 21.0724 115.912 21.1002C114.792 21.1276 113.875 21.5153 113.159 22.263C112.443 22.9916 112.101 24.0281 112.134 25.3726L112.141 25.6608C112.174 27.0052 112.566 28.0334 113.317 28.7454C114.068 29.438 115.003 29.7707 116.123 29.7433Z" fill="white"/>
<path d="M125.786 32.3321L125.436 18.0423L129.085 17.9531L129.434 32.2429L125.786 32.3321ZM127.22 16.3268C126.563 16.3428 125.999 16.1451 125.525 15.7339C125.071 15.3223 124.835 14.7707 124.818 14.0792C124.801 13.3878 125.01 12.8254 125.443 12.392C125.897 11.9581 126.45 11.7331 127.107 11.7171C127.783 11.7006 128.348 11.8981 128.801 12.3099C129.256 12.7215 129.492 13.2731 129.509 13.9645C129.526 14.656 129.317 15.2185 128.883 15.6518C128.45 16.0852 127.896 16.3102 127.22 16.3268Z" fill="white"/>
<path d="M132.315 37.9376L131.824 17.8857L135.414 17.7979L135.457 19.5265L135.978 19.5138C136.292 18.9488 136.791 18.4465 137.476 18.0069C138.16 17.5483 139.149 17.3031 140.443 17.2715C141.6 17.2432 142.678 17.5051 143.677 18.0572C144.676 18.5901 145.488 19.3966 146.112 20.4768C146.737 21.557 147.069 22.875 147.107 24.4307L147.119 24.8917C147.157 26.4474 146.889 27.78 146.317 28.8894C145.747 29.9988 144.976 30.8536 144.004 31.454C143.034 32.0349 141.969 32.3397 140.812 32.368C139.943 32.3893 139.207 32.3016 138.603 32.1049C138.02 31.927 137.541 31.6888 137.166 31.3905C136.811 31.0724 136.523 30.7528 136.302 30.4315L135.781 30.4442L135.962 37.8484L132.315 37.9376ZM139.633 29.2257C140.773 29.1979 141.7 28.8198 142.416 28.0911C143.151 27.3428 143.502 26.2773 143.468 24.8944L143.461 24.6063C143.427 23.2234 143.025 22.1859 142.254 21.4936C141.484 20.7821 140.539 20.4401 139.419 20.4675C138.3 20.4948 137.372 20.8826 136.637 21.6309C135.902 22.36 135.552 23.416 135.585 24.7989L135.592 25.087C135.626 26.4699 136.028 27.517 136.799 28.2285C137.569 28.9208 138.514 29.2531 139.633 29.2257Z" fill="white"/>
<path d="M155.309 32.0139C153.436 32.0597 151.892 31.6938 150.675 30.9164C149.459 30.139 148.707 29.0042 148.419 27.5123L151.756 26.5658C151.908 27.2348 152.143 27.7575 152.462 28.1341C152.799 28.5102 153.201 28.7791 153.67 28.9406C154.155 29.0825 154.678 29.1465 155.238 29.1328C156.088 29.112 156.712 28.9527 157.109 28.6547C157.507 28.3375 157.701 27.958 157.69 27.5162C157.679 27.0744 157.478 26.7431 157.087 26.522C156.694 26.2818 156.072 26.0952 155.219 25.9623L154.404 25.838C153.395 25.6705 152.473 25.4337 151.635 25.1274C150.796 24.8021 150.118 24.3477 149.602 23.7646C149.086 23.1815 148.816 22.4194 148.793 21.4782C148.758 20.0568 149.253 18.959 150.278 18.1844C151.301 17.3906 152.662 16.973 154.361 16.9315C155.962 16.8924 157.304 17.215 158.383 17.8998C159.461 18.5845 160.179 19.499 160.535 20.6435L157.173 21.7633C157.001 21.0373 156.67 20.5265 156.18 20.231C155.708 19.935 155.126 19.7955 154.431 19.8125C153.736 19.8295 153.209 19.9674 152.848 20.2259C152.486 20.4655 152.311 20.7964 152.322 21.2189C152.333 21.6799 152.534 22.021 152.926 22.242C153.317 22.4438 153.842 22.5943 154.502 22.6935L155.315 22.8177C156.401 22.9833 157.382 23.2189 158.259 23.5242C159.155 23.8098 159.86 24.2441 160.377 24.8272C160.912 25.3908 161.192 26.1719 161.217 27.1706C161.253 28.6687 160.732 29.8442 159.652 30.6969C158.59 31.53 157.143 31.9691 155.309 32.0139Z" fill="white"/>
<path d="M168.693 31.5137C167.573 31.5411 166.583 31.3154 165.721 30.8368C164.878 30.3386 164.215 29.6436 163.729 28.7523C163.244 27.8608 162.987 26.8294 162.958 25.6577L162.75 17.1299L166.398 17.0407L166.6 25.2804C166.626 26.356 166.906 27.1563 167.441 27.6814C167.994 28.2059 168.763 28.4562 169.747 28.4322C170.867 28.4048 171.727 28.0187 172.326 27.2737C172.926 26.5095 173.21 25.4647 173.177 24.1395L173 16.8793L176.648 16.7901L176.998 31.08L173.406 31.1678L173.361 29.2952L172.84 29.3079C172.621 29.7937 172.197 30.2749 171.572 30.7514C170.946 31.2279 169.986 31.4821 168.693 31.5137Z" fill="white"/>
<path d="M179.753 31.0125L179.404 16.7226L182.994 16.6348L183.032 18.1906L183.553 18.1778C183.793 17.6915 184.199 17.2685 184.769 16.9086C185.338 16.5295 186.097 16.3284 187.043 16.3053C188.065 16.2803 188.892 16.4619 189.519 16.8501C190.145 17.2192 190.631 17.7165 190.975 18.3424L191.496 18.3297C191.809 17.707 192.26 17.1867 192.849 16.7687C193.437 16.3508 194.281 16.1283 195.381 16.1014C196.269 16.0797 197.075 16.2522 197.799 16.6189C198.541 16.9659 199.135 17.5183 199.578 18.2762C200.04 19.0144 200.285 19.9597 200.313 21.1121L200.543 30.5042L196.894 30.5934L196.671 21.4606C196.652 20.6731 196.435 20.0923 196.021 19.718C195.605 19.3247 195.031 19.1369 194.298 19.1548C193.468 19.1751 192.827 19.4597 192.377 20.0089C191.946 20.5383 191.743 21.2928 191.767 22.2723L191.973 30.7137L188.325 30.8029L188.101 21.6701C188.082 20.8827 187.865 20.3018 187.45 19.9276C187.034 19.5342 186.461 19.3464 185.727 19.3644C184.897 19.3847 184.256 19.6693 183.806 20.2185C183.375 20.7479 183.172 21.5024 183.196 22.4819L183.402 30.9233L179.753 31.0125Z" fill="white"/>
<path d="M49.4394 23.3884C49.3148 18.2943 47.1616 13.4586 43.4535 9.94503C39.7454 6.43149 34.786 4.52791 29.6665 4.65307C24.547 4.77823 19.6866 6.92189 16.1546 10.6124C12.6226 14.303 10.7083 19.2382 10.8329 24.3322L16.8652 24.1848C18.8641 24.1359 20.3823 22.431 21.0692 20.5623C21.5202 19.3354 22.2224 18.2008 23.1453 17.2363C24.9113 15.3911 27.3416 14.3193 29.9013 14.2567C32.4611 14.1941 34.9408 15.1459 36.7949 16.9026C38.6489 18.6594 39.7254 21.0773 39.7877 23.6243L49.4394 23.3884Z" fill="white"/>
<path d="M38.5004 31.0105C39.4135 28.6564 39.8518 26.1466 39.7901 23.6243L49.4407 23.3884C49.7 33.9962 41.2679 42.8068 30.607 43.0674C28.9374 43.1082 27.3121 42.937 25.7575 42.5783C26.6261 42.3328 27.4784 42.0264 28.3077 41.6607C30.626 40.6382 32.7194 39.1715 34.4683 37.3441C36.2172 35.5167 37.5874 33.3645 38.5004 31.0105Z" fill="white"/>
<path d="M1.18164 24.5684C1.24331 27.0907 1.80366 29.5762 2.83071 31.8828C3.85777 34.1894 5.3314 36.272 7.16748 38.0118C9.00355 39.7514 11.1661 41.1142 13.5317 42.0222C15.8972 42.9303 18.4195 43.3656 20.9545 43.3037C23.4894 43.2417 25.9873 42.6836 28.3057 41.661C30.6241 40.6385 32.7175 39.1716 34.4664 37.3444C36.2153 35.517 37.5853 33.3648 38.4984 31.0108C39.4116 28.6567 39.8499 26.1469 39.7882 23.6245L33.7558 23.772C31.7569 23.8208 30.2387 25.5258 29.5518 27.3944C29.5323 27.4476 29.5122 27.5006 29.4917 27.5537C29.0351 28.7306 28.3501 29.8068 27.4756 30.7204C26.6012 31.634 25.5545 32.3675 24.3953 32.8788C23.2362 33.3901 21.9872 33.6691 20.7197 33.7001C19.4522 33.7311 18.1911 33.5134 17.0083 33.0594C15.8255 32.6054 14.7443 31.9239 13.8262 31.0541C12.9081 30.1843 12.1713 29.1429 11.6578 27.9897C11.1443 26.8363 10.8641 25.5936 10.8333 24.3324L1.18164 24.5684Z" fill="white"/>
<path d="M1.18443 24.5686C0.925082 13.9607 9.35718 5.15004 20.018 4.8894C21.6872 4.84859 23.312 5.01979 24.8665 5.37833C21.5725 6.30905 18.5566 8.10335 16.1548 10.6129C12.6228 14.3034 10.7086 19.2386 10.8331 24.3327L1.18443 24.5686Z" fill="white"/>
</svg>
