<svg width="168" height="50" viewBox="0 0 168 50" fill="none" xmlns="http://www.w3.org/2000/svg">
<path d="M56.0142 32.2432L55.5512 13.3086L52.4355 13.3848L52.8985 32.3194L56.0142 32.2432Z" fill="white"/>
<path d="M57.7672 25.8855C57.8618 29.7539 60.5339 32.4388 64.4924 32.342C68.4509 32.2452 70.9886 29.4329 70.894 25.5646C70.7994 21.6962 68.1273 19.0113 64.1689 19.1081C60.2104 19.2049 57.6727 22.0171 57.7672 25.8855ZM60.9085 25.8087C60.8531 23.5437 62.1681 21.9327 64.2367 21.8821C66.3053 21.8315 67.6974 23.3763 67.7528 25.6414C67.8075 27.881 66.4932 29.5174 64.4246 29.568C62.356 29.6185 60.9632 28.0483 60.9085 25.8087Z" fill="white"/>
<path d="M71.9361 25.2844C72.0257 28.9492 74.4655 31.5379 78.0153 31.4511C79.8541 31.4062 81.4194 30.6294 82.1813 29.3885L82.2335 31.5263C82.2839 33.5877 81.0151 34.9938 78.8443 35.0469C76.9034 35.0943 75.5523 34.1852 75.3331 32.5353L72.1919 32.6121C72.6808 35.8851 75.2613 37.9611 78.7346 37.8762C82.8207 37.7763 85.3603 35.0404 85.2589 30.8921L84.9671 18.9561L82.2089 19.0235L82.0719 20.7331C81.2734 19.4284 79.6707 18.6782 77.8064 18.7237C74.2054 18.8118 71.8459 21.5942 71.9361 25.2844ZM75.101 25.1307C75.05 23.0438 76.3406 21.4843 78.3071 21.4363C80.4523 21.3838 81.9204 22.9013 81.9708 24.9627C82.0219 27.0496 80.6309 28.6879 78.4857 28.7403C76.5448 28.7878 75.1526 27.243 75.101 25.1307Z" fill="white"/>
<path d="M86.6618 25.1794C86.7563 29.0478 89.4285 31.7327 93.3869 31.6359C97.3454 31.5391 99.8831 28.7269 99.7885 24.8585C99.694 20.9902 97.0218 18.3053 93.0634 18.402C89.1049 18.4988 86.5672 21.3111 86.6618 25.1794ZM89.803 25.1026C89.7476 22.8376 91.0626 21.2266 93.1312 21.1761C95.1998 21.1255 96.5919 22.6703 96.6473 24.9353C96.7021 27.1749 95.3877 28.8113 93.3191 28.8619C91.2505 28.9125 89.8578 27.3422 89.803 25.1026Z" fill="white"/>
<path d="M102.945 15.9441C103.966 15.9191 104.789 15.0841 104.763 14.0407C104.739 13.0227 103.876 12.2289 102.854 12.2539C101.807 12.2795 101.036 13.1132 101.06 14.1312C101.086 15.1747 101.898 15.9697 102.945 15.9441ZM101.757 31.1248L104.873 31.0486L104.565 18.4764L101.45 18.5526L101.757 31.1248Z" fill="white"/>
<path d="M107.744 36.8103L110.784 36.736L110.599 29.1774C111.422 30.456 113.152 31.1776 115.042 31.1314C118.77 31.0403 120.923 28.1356 120.776 24.2175C120.603 20.2747 118.267 17.7598 114.692 17.8472C112.776 17.8941 111.06 18.7764 110.329 20.2457L110.104 18.3414L107.294 18.4101L107.744 36.8103ZM110.615 24.6187C110.56 22.3537 111.9 20.7421 114.071 20.689C116.242 20.636 117.583 22.2075 117.638 24.447C117.693 26.6866 116.429 28.2963 114.258 28.3494C112.088 28.4025 110.671 26.8838 110.615 24.6187Z" fill="white"/>
<path d="M121.633 26.871C121.796 29.3625 123.776 30.9184 126.79 30.8448C129.752 30.7723 131.731 29.1451 131.671 26.7019C131.627 24.895 130.474 23.7009 128.393 23.2425L126.158 22.7623C125.206 22.5309 124.56 22.2157 124.54 21.4013C124.519 20.536 125.193 19.9084 126.317 19.8809C127.492 19.8522 128.274 20.4951 128.301 21.5895L131.136 21.5202C130.973 19.0286 129.07 17.4963 126.337 17.5631C123.63 17.6293 121.651 19.2565 121.71 21.6488C121.749 23.2776 122.727 24.6033 125.169 25.1802L127.379 25.6864C128.202 25.8955 128.722 26.2647 128.739 26.9773C128.764 27.9699 127.83 28.4511 126.681 28.4792C125.302 28.5129 124.494 27.896 124.468 26.8017L121.633 26.871Z" fill="white"/>
<path d="M138.233 30.5644C139.944 30.5226 141.559 29.6937 142.271 28.5049L142.515 30.1287L145.427 30.0575L145.119 17.4853L142.004 17.5615L142.165 24.153C142.22 26.418 141.383 27.7117 139.34 27.7617C137.756 27.8004 136.64 27.0638 136.576 24.4679L136.411 17.6982L133.295 17.7744L133.487 25.6384C133.561 28.6415 135.245 30.6375 138.233 30.5644Z" fill="white"/>
<path d="M151.292 29.9139L151.115 22.6862C151.065 20.6502 152.242 19.6537 153.723 19.6175C155.204 19.5813 156.198 20.4992 156.241 22.2807L156.425 29.7884L159.464 29.7141L159.288 22.5118C159.238 20.4504 160.389 19.4546 161.87 19.4184C163.377 19.3815 164.37 20.2994 164.414 22.0809L164.597 29.5886L167.611 29.5149L167.41 21.2946C167.339 18.3934 165.685 16.6003 162.621 16.6752C160.705 16.7221 159.221 17.6751 158.644 19.1662C157.918 17.7069 156.517 16.8245 154.423 16.8757C152.942 16.9119 151.63 17.6315 150.917 18.7694L150.729 17.348L147.869 17.4179L148.176 29.9901L151.292 29.9139Z" fill="white"/>
<path d="M144.095 41.3324C144.559 41.321 144.953 40.9217 144.942 40.4592C144.93 39.9845 144.517 39.6048 144.053 39.6162C143.577 39.6278 143.183 40.0272 143.195 40.5019C143.206 40.9644 143.619 41.344 144.095 41.3324Z" fill="white"/>
<path d="M145.782 38.1486C145.828 40.0108 147.006 41.2364 148.68 41.1955C150.121 41.1603 151.199 40.2692 151.4 38.9733L150.3 39.0002C150.11 39.7234 149.486 40.165 148.728 40.1835C147.654 40.2098 146.949 39.3988 146.918 38.1086C146.886 36.7941 147.587 35.9731 148.649 35.9471C149.382 35.9292 150.027 36.3032 150.241 37.0652L151.34 37.0384C151.113 35.7408 150.065 34.8895 148.636 34.9244C146.902 34.9668 145.736 36.2741 145.782 38.1486Z" fill="white"/>
<path d="M151.809 37.9894C151.853 39.7787 153.107 41.0877 154.939 41.0429C156.771 40.9981 157.96 39.6294 157.916 37.8401C157.872 36.0509 156.618 34.7419 154.786 34.7867C152.954 34.8315 151.765 36.2002 151.809 37.9894ZM152.969 37.9611C152.939 36.7439 153.663 35.8372 154.811 35.8091C155.959 35.781 156.726 36.6513 156.756 37.8685C156.785 39.0857 156.062 39.9924 154.914 40.0205C153.766 40.0485 152.999 39.1782 152.969 37.9611Z" fill="white"/>
<path d="M160.118 40.7827L160.031 37.2043C160.008 36.2671 160.579 35.6441 161.434 35.6232C162.252 35.6032 162.778 36.1141 162.801 37.0513L162.891 40.715L164.014 40.6875L163.927 37.1212C163.904 36.1718 164.463 35.5492 165.33 35.528C166.136 35.5083 166.662 36.0191 166.685 36.9563L166.775 40.62L167.886 40.5928L167.791 36.6857C167.757 35.3103 166.93 34.4902 165.562 34.5236C164.634 34.5463 163.925 35.0143 163.649 35.7518C163.326 35.0289 162.643 34.595 161.666 34.6189C160.921 34.6371 160.27 34.994 159.954 35.5863L159.85 34.8338L158.824 34.8589L158.97 40.8108L160.118 40.7827Z" fill="white"/>
<path fill-rule="evenodd" clip-rule="evenodd" d="M0.968836 27.4283L0.965558 27.2065L0.964553 26.9846L0.965836 26.7625L0.969395 26.5405L0.975252 26.3183L0.983385 26.0961L0.99382 25.874L1.00653 25.6518L1.02154 25.4297L1.03884 25.2075L1.05844 24.9856L1.08031 24.7636L1.10448 24.5418L1.13095 24.3202L1.1597 24.0987L1.19075 23.8775L1.22408 23.6564L1.25969 23.4356L1.2976 23.215L1.33779 22.9947L1.38026 22.7747L1.425 22.555L1.47203 22.3357L1.52132 22.1168L1.57289 21.8983L1.62672 21.6801L1.68283 21.4623L1.74119 21.2451L1.80181 21.0284L1.86467 20.8122L1.9298 20.5965L1.99716 20.3813L2.06677 20.1666L2.13859 19.9526L2.21266 19.7393L2.28894 19.5265L2.36745 19.3144L2.44816 19.103L2.53109 18.8923L2.6162 18.6823L2.70351 18.473L2.79301 18.2646L2.88468 18.057L2.97853 17.8501L3.07454 17.644L3.1727 17.4389L3.27301 17.2346L3.37546 17.0311L3.48004 16.8287L3.58674 16.6272L3.69556 16.4265L3.80647 16.227L3.91948 16.0284L4.03458 15.8308L4.15175 15.6343L4.27099 15.4388L4.39229 15.2445L4.51563 15.0512L4.641 14.8591L4.7684 14.6681L4.8978 14.4783L5.02921 14.2898L5.1626 14.1023L5.29798 13.9162L5.43532 13.7312L5.57461 13.5475L5.71584 13.3651L5.859 13.1841L6.00408 13.0043L6.15106 12.8259L6.29993 12.6489L6.45067 12.4732L6.60328 12.299L6.75774 12.1262L6.91403 11.9548L7.07214 11.7849L7.23205 11.6164L7.39376 11.4495L7.55725 11.284L7.72249 11.1201L7.88949 10.9578L8.05821 10.797L8.22865 10.6378L8.4008 10.4802L8.57463 10.3242L8.75012 10.1699L8.92726 10.0172L9.10605 9.86619L9.28645 9.71686L9.46846 9.56923L9.65199 9.42334L9.83723 9.27916L10.024 9.13675L10.2122 8.99611L10.4019 8.85725L10.5932 8.72019L10.7859 8.58493L10.98 8.45152L11.1757 8.31995L11.3728 8.19024L11.5712 8.0624L11.7712 7.93644L11.9723 7.8124L12.1749 7.69028L12.3788 7.57008L12.584 7.45183L12.7905 7.33554L12.9982 7.22122L13.2073 7.10889L13.4175 6.99855L13.629 6.89023L13.8417 6.78392L14.0555 6.67966L14.2705 6.57744L14.4866 6.47729L14.7039 6.3792L14.9222 6.28321L15.1415 6.18931L15.3619 6.09751L15.5834 6.00784L15.8058 5.92028L16.0292 5.83488L16.2536 5.75161L16.479 5.67051L16.7051 5.59158L16.9322 5.51483L17.1603 5.44026L17.3892 5.36791L17.6188 5.29776L17.8493 5.22981L18.0806 5.16409L18.3126 5.10061L18.5453 5.03939L18.7788 4.98039L19.013 4.92367L19.2477 4.8692L19.4832 4.81701L19.7193 4.76711L19.956 4.71948L20.1933 4.67415L20.4312 4.63112L20.6695 4.5904L20.9083 4.552L21.1476 4.51591L21.3874 4.48215L21.6277 4.4507L21.8683 4.42161L22.1093 4.39485L22.3506 4.37042L22.5923 4.34836L23.8923 4.24245L24.1194 10.491L24.1619 10.4894L24.3417 10.4848L24.5215 10.4819L24.7013 10.4808L24.8814 10.4814L25.0615 10.4838L25.2417 10.4879L25.4219 10.4939L25.6022 10.5016L25.7824 10.511L25.9628 10.5222L26.143 10.5352L26.3232 10.55L26.5033 10.5665L26.6834 10.5848L26.8633 10.6049L27.0432 10.6268L27.2228 10.6504L27.4025 10.6758L27.5818 10.7029L27.761 10.7319L27.94 10.7626L28.1187 10.795L28.2973 10.8293L28.4755 10.8653L28.6534 10.903L28.8311 10.9426L29.0084 10.9838L29.1854 11.0269L29.362 11.0717L29.5383 11.1182L29.7142 11.1665L29.8896 11.2166L30.0646 11.2683L30.2393 11.3219L30.4134 11.3771L30.587 11.4341L30.7602 11.4928L30.9328 11.5533L31.1048 11.6154L31.2764 11.6793L31.4473 11.7449L31.6176 11.8122L31.7874 11.8812L31.9565 11.9519L32.125 12.0243L32.2928 12.0984L32.4599 12.1741L32.6264 12.2515L32.7921 12.3306L32.957 12.4114L33.1213 12.4938L33.2848 12.5779L33.4474 12.6636L33.6093 12.7509L33.7704 12.8399L33.9306 12.9305L34.0899 13.0227L34.2484 13.1165L34.406 13.2119L34.5626 13.3089L34.7184 13.4075L34.8733 13.5076L35.0271 13.6093L35.18 13.7126L35.3319 13.8174L35.4827 13.9238L35.6327 14.0317L35.7815 14.1411L35.9293 14.2521L36.0759 14.3644L36.2216 14.4783L36.366 14.5938L36.5094 14.7107L36.6518 14.829L36.7929 14.9487L36.9328 15.07L37.0715 15.1927L37.2091 15.3168L37.3455 15.4422L37.4806 15.5691L37.6145 15.6974L37.7471 15.8271L37.8785 15.9581L38.0085 16.0904L38.1373 16.2241L38.2647 16.3592L38.3908 16.4955L38.5156 16.6332L38.639 16.7721L38.7611 16.9123L38.8818 17.0538L39.0011 17.1965L39.1189 17.3404L39.2353 17.4856L39.3503 17.632L39.4638 17.7796L39.5759 17.9284L39.6865 18.0784L39.7956 18.2294L39.9032 18.3817L40.0093 18.5351L40.1138 18.6896L40.2167 18.8452L40.3182 19.0018L40.4181 19.1596L40.5164 19.3184L40.6131 19.4782L40.7082 19.6391L40.8017 19.801L40.8936 19.9639L40.9838 20.1277L41.0724 20.2925L41.1593 20.4582L41.2446 20.625L41.3283 20.7926L41.4101 20.9611L41.4904 21.1305L41.5689 21.3008L41.6456 21.4719L41.7207 21.6438L41.794 21.8166L41.8656 21.9901L41.9354 22.1646L42.0035 22.3396L42.0698 22.5156L42.1343 22.6922L42.1971 22.8695L42.258 23.0475L42.3171 23.2262L42.3744 23.4056L42.4299 23.5856L42.4835 23.7663L42.5354 23.9476L42.5853 24.1294L42.6335 24.3119L42.6798 24.4949L42.7242 24.6785L42.7668 24.8625L42.8074 25.0472L42.8461 25.2322L42.8831 25.4178L42.9181 25.6037L42.9512 25.7901L42.9824 25.977L43.0117 26.1642L43.039 26.3518L43.0645 26.5398L43.088 26.7281L43.1096 26.9166L43.1294 27.1056L43.1471 27.2948L43.1628 27.4843L43.1767 27.674L43.1887 27.864L43.1985 28.0541L43.2066 28.2444L43.2126 28.4349L43.2167 28.6256L43.2189 28.8164L43.219 29.0074L43.2172 29.1983L43.2134 29.3894L43.2078 29.5805L43.2 29.7717L43.1903 29.9629L43.1787 30.1541L43.165 30.3453L43.1495 30.5365L43.1318 30.7274L43.1123 30.9185L43.0908 31.1093L43.0673 31.3001L43.0418 31.4907L43.0144 31.6812L42.9849 31.8714L42.9535 32.0615L42.9202 32.2514L42.8848 32.4411L42.8475 32.6304L42.8082 32.8196L42.767 33.0084L42.7238 33.1969L42.6786 33.385L42.6315 33.5728L42.5824 33.7602L42.5315 33.9473L42.4785 34.134L42.4235 34.3202L42.3667 34.506L42.3079 34.6912L42.2471 34.8761L42.1845 35.0604L42.1199 35.2441L42.0533 35.4273L41.9849 35.61L41.9146 35.7921L41.8424 35.9735L41.7683 36.1545L41.6922 36.3346L41.6143 36.5142L41.5344 36.6931L41.4528 36.8712L41.3692 37.0488L41.2838 37.2254L41.1965 37.4015L41.1074 37.5766L41.0164 37.7511L40.9236 37.9247L40.8289 38.0975L40.7325 38.2695L40.6342 38.4405L40.5342 38.6108L40.4322 38.78L40.3286 38.9484L40.2232 39.1159L40.116 39.2823L40.007 39.4479L39.8963 39.6124L39.7838 39.776L39.6696 39.9385L39.5537 40.1L39.436 40.2604L39.3167 40.4197L39.1957 40.578L39.073 40.7351L38.9486 40.891L38.8225 41.0459L38.6948 41.1996L38.5655 41.3521L38.4345 41.5035L38.302 41.6536L38.1678 41.8025L38.032 41.9502L37.8947 42.0965L37.7557 42.2416L37.6152 42.3854L37.4733 42.528L37.3298 42.6692L37.1847 42.8091L37.0381 42.9476L36.8901 43.0846L36.7406 43.2204L36.5896 43.3548L36.4372 43.4878L36.2833 43.6192L36.128 43.7493L35.9713 43.8779L35.8132 44.005L35.6537 44.1306L35.4929 44.2548L35.3308 44.3774L35.1672 44.4984L35.0023 44.6181L34.8362 44.736L34.6689 44.8524L34.5001 44.9672L34.3303 45.0806L34.1591 45.1921L33.9867 45.3022L33.813 45.4105L33.6382 45.5173L33.4623 45.6224L33.2851 45.7257L33.1069 45.8275L32.9275 45.9274L32.747 46.0257L32.5654 46.1224L32.3827 46.2172L32.199 46.3103L32.0143 46.4017L31.8285 46.4913L31.6418 46.5791L31.454 46.6651L31.2653 46.7493L31.0756 46.8317L30.8851 46.9124L30.6936 46.9911L30.5011 47.0681L30.3079 47.1431L30.1137 47.2164L29.9188 47.2877L29.723 47.3573L29.5264 47.4249L29.329 47.4906L29.1309 47.5544L28.9321 47.6163L28.7325 47.6763L28.5322 47.7345L28.3312 47.7906L28.1296 47.8448L27.9274 47.8971L27.7244 47.9473L27.5209 47.9957L27.3168 48.0421L27.1122 48.0865L26.907 48.129L26.7013 48.1693L26.4951 48.2078L26.2884 48.2443L26.0812 48.2787L25.8736 48.3111L25.6656 48.3416L25.4571 48.3699L25.2483 48.3963L25.0391 48.4206L24.8297 48.4429L24.6199 48.4632L24.4098 48.4814L24.1993 48.4976L23.9887 48.5118L23.7779 48.5238L23.5667 48.5338L23.3555 48.5417L23.1439 48.5477L22.9324 48.5515L22.7207 48.5533L22.5088 48.553L22.2969 48.5506L22.0849 48.5461L21.8728 48.5397L21.6609 48.531L21.4487 48.5204L21.2368 48.5076L21.0248 48.4928L20.8128 48.4759L20.601 48.457L20.3893 48.4359L20.1776 48.4127L19.9663 48.3874L19.7549 48.3602L19.5439 48.3308L19.333 48.2994L19.1223 48.2658L18.912 48.2302L18.7019 48.1926L18.4922 48.1528L18.2826 48.111L18.0736 48.0671L17.8648 48.0212L17.6564 47.9731L17.4484 47.9231L17.2409 47.871L17.0338 47.8169L16.8272 47.7607L16.6211 47.7024L16.4155 47.6421L16.2104 47.5798L16.0059 47.5154L15.8019 47.449L15.5986 47.3806L15.3959 47.3102L15.1938 47.2377L14.9925 47.1633L14.7917 47.0868L14.5917 47.0083L14.3924 46.9279L14.1939 46.8456L13.996 46.7612L13.799 46.6747L13.6029 46.5864L13.4076 46.4961L13.213 46.4039L13.0194 46.3097L12.8267 46.2136L12.6348 46.1156L12.4439 46.0157L12.254 45.9138L12.065 45.81L11.877 45.7044L11.6901 45.5969L11.5041 45.4874L11.3191 45.3762L11.1354 45.263L10.9526 45.1481L10.771 45.0312L10.5905 44.9126L10.4111 44.7922L10.233 44.6699L10.056 44.5459L9.88016 44.42L9.7056 44.2924L9.53228 44.1631L9.3602 44.0319L9.18942 43.8992L9.01993 43.7646L8.85176 43.6283L8.68492 43.4903L8.51944 43.3505L8.35532 43.2092L8.19261 43.0662L8.03128 42.9215L7.87139 42.7753L7.71294 42.6272L7.55594 42.4777L7.40043 42.3266L7.2464 42.1739L7.09389 42.0196L6.9429 41.8637L6.79346 41.7063L6.64557 41.5474L6.49926 41.387L6.35454 41.225L6.21144 41.0616L6.06996 40.8967L5.93011 40.7304L5.79193 40.5626L5.65542 40.3934L5.52059 40.2228L5.38746 40.0508L5.25605 39.8774L5.12637 39.7027L4.99844 39.5266L4.87227 39.3493L4.74787 39.1705L4.62527 38.9906L4.50446 38.8093L4.38547 38.6268L4.26832 38.4431L4.153 38.258L4.03956 38.0719L3.92798 37.8845L3.81828 37.696L3.71048 37.5062L3.60457 37.3154L3.50061 37.1235L3.39857 36.9305L3.29848 36.7364L3.20035 36.5412L3.10418 36.345L3.01 36.1477L2.91781 35.9495L2.82762 35.7502L2.73945 35.5501L2.6533 35.3489L2.56918 35.1468L2.48713 34.9439L2.40711 34.74L2.32917 34.5353L2.2533 34.3298L2.17951 34.1234L2.10783 33.9162L2.03824 33.7082L1.97077 33.4995L1.90542 33.2899L1.84219 33.0797L1.78111 32.8688L1.72217 32.6572L1.66539 32.4449L1.61077 32.232L1.55832 32.0184L1.50805 31.8043L1.45995 31.5896L1.41405 31.3744L1.37034 31.1585L1.32885 30.9422L1.28955 30.7254L1.25247 30.5081L1.21761 30.2903L1.18499 30.0721L1.1546 29.8535L1.12643 29.6345L1.10052 29.4152L1.07685 29.1955L1.05542 28.9755L1.03626 28.7552L1.01936 28.5346L1.00472 28.3137L0.992334 28.0927L0.982224 27.8714L0.974399 27.6499L0.968836 27.4283ZM22.0888 10.6716L21.9341 6.41255L21.8861 6.41835L21.6659 6.44716L21.4464 6.47808L21.227 6.51117L21.0085 6.54629L20.7903 6.58358L20.5724 6.623L20.3552 6.66449L20.1383 6.70813L19.9225 6.75374L19.7065 6.80162L19.4921 6.85137L19.2774 6.90337L19.0638 6.95733L18.8505 7.01345L18.6383 7.0715L18.4267 7.13166L18.2156 7.19385L18.0053 7.25808L17.7961 7.32426L17.5872 7.39255L17.3795 7.46276L17.1724 7.53503L16.9664 7.60913L16.7609 7.6854L16.5565 7.76355L16.3531 7.84361L16.1504 7.9257L15.9488 8.00965L15.7483 8.09548L15.5485 8.18337L15.3497 8.27311L15.1519 8.36477L14.9553 8.45823L14.7598 8.55359L14.5654 8.65075L14.3717 8.74992L14.1796 8.85079L13.9884 8.9535L13.7984 9.05804L13.6096 9.16439L13.4221 9.27245L13.2355 9.38241L13.0501 9.49416L12.8665 9.60739L12.6834 9.72274L12.5022 9.83952L12.3222 9.95801L12.1432 10.0784L11.9656 10.2004L11.7894 10.324L11.6149 10.4491L11.4412 10.5763L11.2692 10.7047L11.0986 10.8348L10.9293 10.9666L10.7616 11.0999L10.5954 11.2347L10.4303 11.3714L10.2672 11.5092L10.1053 11.6488L9.94494 11.7898L9.7861 11.9323L9.62897 12.0762L9.47307 12.2217L9.31903 12.3685L9.16637 12.517L9.01555 12.6666L8.86617 12.8177L8.71853 12.9701L8.57247 13.124L8.4279 13.2793L8.2853 13.4357L8.14438 13.5934L8.00479 13.7528L7.86721 13.9131L7.73138 14.0746L7.59704 14.2376L7.46472 14.4016L7.33395 14.567L7.20502 14.7335L7.07787 14.9012L6.95245 15.07L6.82896 15.2399L6.70718 15.4109L6.58716 15.5833L6.46915 15.7563L6.35281 15.9308L6.23842 16.1061L6.12588 16.2824L6.01513 16.4598L5.90634 16.6382L5.79943 16.8174L5.69441 16.9977L5.59137 17.1788L5.49012 17.361L5.39079 17.5441L5.29353 17.7278L5.1981 17.9125L5.10462 18.0981L5.01314 18.2845L4.92356 18.4717L4.83603 18.6595L4.75044 18.8482L4.66685 19.0375L4.58521 19.2278L4.50562 19.4185L4.42796 19.61L4.35233 19.8022L4.27877 19.9949L4.20718 20.1883L4.13761 20.3823L4.07009 20.5768L4.00459 20.7719L3.94118 20.9675L3.87975 21.1637L3.82038 21.3604L3.76308 21.5575L3.70785 21.755L3.65463 21.9531L3.60352 22.1514L3.55446 22.3503L3.50745 22.5494L3.46253 22.749L3.41968 22.9488L3.37891 23.149L3.34021 23.3494L3.3036 23.5502L3.26907 23.7511L3.23662 23.9523L3.20625 24.1536L3.17798 24.3553L3.15179 24.557L3.12768 24.7588L3.10567 24.9609L3.08573 25.163L3.06789 25.3652L3.05213 25.5675L3.03847 25.7698L3.02688 25.972L3.01739 26.1744L3.00998 26.3768L3.00464 26.5789L3.0014 26.7812L3.00023 26.9833L3.00115 27.1853L3.00413 27.3872L3.0092 27.589L3.01632 27.7906L3.02553 27.9921L3.03679 28.1933L3.05012 28.3943L3.06551 28.5951L3.08294 28.7955L3.10244 28.9957L3.12398 29.1956L3.14757 29.3952L3.17319 29.5945L3.20085 29.7934L3.23053 29.9919L3.26224 30.19L3.29597 30.3877L3.33173 30.585L3.36946 30.7817L3.40923 30.978L3.45098 31.1739L3.49472 31.3691L3.54045 31.564L3.58814 31.7581L3.63782 31.9517L3.68946 32.1448L3.74305 32.3372L3.7986 32.5291L3.85607 32.7201L3.9155 32.9106L3.97685 33.1004L4.04011 33.2896L4.10529 33.478L4.17235 33.6655L4.24131 33.8524L4.31217 34.0384L4.38489 34.2238L4.45947 34.4082L4.53594 34.5919L4.61421 34.7746L4.69433 34.9566L4.7763 35.1376L4.86006 35.3177L4.94565 35.4969L5.03303 35.6753L5.12219 35.8526L5.21312 36.0289L5.30582 36.2043L5.40026 36.3786L5.49646 36.552L5.59438 36.7243L5.69403 36.8956L5.79537 37.0657L5.89841 37.2348L6.00313 37.4029L6.10953 37.5697L6.21755 37.7354L6.32727 37.9L6.43858 38.0634L6.55154 38.2257L6.66611 38.3868L6.78224 38.5466L6.89995 38.7052L7.01927 38.8626L7.1401 39.0188L7.26251 39.1737L7.38639 39.3272L7.51185 39.4795L7.63873 39.6304L7.76714 39.78L7.89704 39.9284L8.02833 40.0754L8.1611 40.2209L8.29527 40.3651L8.4309 40.5079L8.56788 40.6493L8.70621 40.7893L8.84594 40.9278L8.98701 41.065L9.12945 41.2007L9.27316 41.3348L9.41822 41.4675L9.56451 41.5987L9.71208 41.7285L9.86095 41.8567L10.011 41.9834L10.1622 42.1084L10.3148 42.232L10.4685 42.354L10.6232 42.4745L10.7794 42.5935L10.9364 42.7106L11.0947 42.8263L11.254 42.9405L11.4146 43.0529L11.576 43.1637L11.7386 43.2728L11.9021 43.3803L12.0668 43.4862L12.2323 43.5904L12.399 43.6929L12.5665 43.7938L12.735 43.8929L12.9045 43.9903L13.0747 44.0861L13.246 44.1801L13.418 44.2723L13.591 44.3628L13.7647 44.4516L13.9394 44.5387L14.1147 44.624L14.2908 44.7076L14.4678 44.7893L14.6455 44.8693L14.8239 44.9475L15.0029 45.024L15.1826 45.0985L15.3632 45.1714L15.5442 45.2424L15.726 45.3116L15.9083 45.379L16.0912 45.4445L16.2748 45.5084L16.4587 45.5703L16.6433 45.6303L16.8285 45.6886L17.0141 45.7451L17.2002 45.7996L17.3866 45.8523L17.5737 45.9032L17.761 45.9522L17.9488 45.9993L18.137 46.0447L18.3255 46.0881L18.5144 46.1297L18.7034 46.1693L18.893 46.2072L19.0828 46.2431L19.2727 46.2772L19.463 46.3094L19.6535 46.3397L19.8442 46.3682L20.0351 46.3947L20.2261 46.4194L20.4173 46.4422L20.6087 46.4631L20.8001 46.4822L20.9916 46.4993L21.1832 46.5146L21.3748 46.5281L21.5665 46.5395L21.7582 46.5492L21.9498 46.557L22.1415 46.5629L22.333 46.5669L22.5245 46.569L22.7159 46.5693L22.9073 46.5677L23.0985 46.5642L23.2895 46.5589L23.4805 46.5516L23.6711 46.5427L23.8616 46.5317L24.0519 46.519L24.242 46.5043L24.4317 46.4879L24.6213 46.4696L24.8105 46.4495L24.9994 46.4275L25.1879 46.4036L25.3762 46.378L25.5639 46.3506L25.7514 46.3213L25.9384 46.2902L26.1251 46.2573L26.3112 46.2226L26.497 46.186L26.6822 46.1477L26.8669 46.1077L27.0511 46.0659L27.2348 46.0222L27.4179 45.9769L27.6004 45.9297L27.7824 45.8807L27.9637 45.8301L28.1444 45.7776L28.3244 45.7235L28.5039 45.6676L28.6826 45.61L28.8607 45.5508L29.038 45.4898L29.2147 45.4271L29.3905 45.3628L29.5654 45.2967L29.7399 45.2289L29.9134 45.1595L30.0861 45.0884L30.258 45.0158L30.4289 44.9416L30.599 44.8655L30.7684 44.788L30.9367 44.7088L31.1041 44.6281L31.2707 44.5458L31.4363 44.4618L31.6009 44.3764L31.7647 44.2892L31.9273 44.2007L32.0889 44.1106L32.2497 44.0188L32.4092 43.9257L32.5677 43.831L32.7251 43.735L32.8817 43.6372L33.0369 43.5382L33.1913 43.4376L33.3442 43.3356L33.4961 43.2322L33.647 43.1273L33.7967 43.0209L33.945 42.9134L34.0922 42.8043L34.2382 42.6939L34.3831 42.5822L34.5267 42.4689L34.6689 42.3546L34.8102 42.2387L34.9499 42.1217L35.0883 42.0034L35.2257 41.8836L35.3616 41.7626L35.4961 41.6405L35.6294 41.517L35.7612 41.3925L35.8918 41.2666L36.021 41.1395L36.1486 41.0114L36.2751 40.8819L36.4002 40.7513L36.5237 40.6196L36.6459 40.4868L36.7665 40.3529L36.8856 40.2181L37.0036 40.0816L37.1198 39.9446L37.2348 39.8063L37.348 39.6671L37.4599 39.5268L37.5702 39.3855L37.679 39.2433L37.7863 39.0999L37.892 38.9558L37.9964 38.8106L38.0989 38.6646L38.2001 38.5175L38.2998 38.3695L38.3975 38.221L38.4939 38.0712L38.5886 37.9209L38.6817 37.7695L38.7735 37.6172L38.8633 37.4644L38.9515 37.3108L39.0383 37.156L39.1231 37.001L39.2066 36.845L39.2884 36.6882L39.3683 36.531L39.4468 36.3728L39.5235 36.2139L39.5984 36.055L39.6718 35.8947L39.7436 35.734L39.8135 35.5728L39.8818 35.4111L39.9484 35.2487L40.0131 35.0859L40.0764 34.9223L40.1378 34.7582L40.1974 34.5941L40.2554 34.4289L40.3116 34.2636L40.3662 34.0976L40.419 33.9314L40.47 33.7646L40.5192 33.5979L40.5668 33.43L40.6125 33.2623L40.6565 33.0942L40.6988 32.9259L40.7394 32.7569L40.778 32.588L40.8151 32.4186L40.8503 32.2489L40.8838 32.0791L40.9155 31.9089L40.9454 31.7389L40.9735 31.5682L40.9999 31.3979L41.0245 31.227L41.0473 31.0561L41.0684 30.8852L41.0877 30.714L41.1052 30.543L41.121 30.3714L41.1349 30.2004L41.1472 30.029L41.1576 29.8579L41.1663 29.6863L41.1732 29.5154L41.1783 29.344L41.1817 29.1725L41.1833 29.0015L41.1832 28.8309L41.1813 28.6597L41.1777 28.4888L41.1723 28.3182L41.1651 28.1478L41.1562 27.9774L41.1454 27.8077L41.1331 27.6374L41.1189 27.4679L41.103 27.2984L41.0854 27.1296L41.0661 26.9604L41.0451 26.7921L41.0223 26.6237L40.9977 26.4559L40.9715 26.2882L40.9437 26.1212L40.9139 25.9541L40.8826 25.7877L40.8497 25.622L40.815 25.4563L40.7785 25.2911L40.7405 25.1266L40.7007 24.962L40.6595 24.7987L40.6163 24.6353L40.5717 24.4729L40.5252 24.3104L40.4773 24.1492L40.4277 23.9882L40.3764 23.8276L40.3236 23.668L40.2692 23.509L40.213 23.3502L40.1555 23.1926L40.0961 23.0352L40.0354 22.8788L39.9729 22.7227L39.909 22.5679L39.8433 22.4132L39.7762 22.2596L39.7077 22.1069L39.6377 21.9549L39.5658 21.8032L39.4929 21.653L39.418 21.5029L39.3419 21.3543L39.2643 21.2063L39.185 21.0589L39.1046 20.9127L39.0225 20.7672L38.9388 20.6225L38.8542 20.4792L38.7677 20.3362L38.68 20.1946L38.5907 20.0536L38.5004 19.9141L38.4082 19.775L38.3151 19.6372L38.2203 19.5001L38.1243 19.3643L38.0272 19.2297L37.9283 19.0957L37.8283 18.963L37.7271 18.8312L37.6245 18.7008L37.5207 18.5711L37.4155 18.4428L37.3092 18.3154L37.2016 18.1893L37.0927 18.0643L36.9826 17.9403L36.8713 17.8176L36.7589 17.696L36.6454 17.5757L36.5306 17.4565L36.4144 17.3383L36.2976 17.2218L36.179 17.106L36.0599 16.9919L35.9395 16.8787L35.8181 16.767L35.6952 16.6562L35.5719 16.5471L35.447 16.439L35.3212 16.3323L35.1947 16.227L35.0671 16.1229L34.938 16.0199L34.8083 15.9184L34.6778 15.8183L34.5461 15.7196L34.4136 15.6221L34.2803 15.5262L34.1457 15.4312L34.0106 15.3381L33.8745 15.2462L33.7374 15.1555L33.5998 15.0664L33.4608 14.9785L33.3218 14.8924L33.1813 14.8074L33.0404 14.7239L32.8984 14.6418L32.7558 14.5612L32.6126 14.4821L32.4688 14.4046L32.3237 14.3281L32.1787 14.2534L32.0325 14.1801L31.8857 14.1082L31.7385 14.038L31.5903 13.9691L31.4417 13.9017L31.2925 13.8359L31.1426 13.7715L30.9925 13.7087L30.8415 13.6473L30.6852 13.5856L30.5383 13.5293L30.3855 13.4723L30.2329 13.4173L30.0792 13.3633L29.9255 13.3113L29.7711 13.2606L29.6165 13.2116L29.4612 13.1639L29.3059 13.118L29.1499 13.0735L28.9937 13.0306L28.8374 12.9894L28.6804 12.9495L28.5229 12.9112L28.3657 12.8746L28.2082 12.8396L28.0497 12.806L27.8918 12.7741L27.7332 12.7436L27.5746 12.7148L27.4155 12.6875L27.2567 12.6619L27.0974 12.6378L26.9383 12.6153L26.7785 12.5943L26.6192 12.5749L26.4595 12.5571L26.2997 12.5408L26.1399 12.5262L25.9801 12.5131L25.8203 12.5016L25.6604 12.4916L25.5004 12.4832L25.3404 12.4764L25.1808 12.4711L25.0212 12.4675L24.8611 12.4653L24.7018 12.4648L24.5423 12.4658L24.3829 12.4683L24.2234 12.4725L24.1914 12.4736L24.3451 16.7017L24.4356 16.699L24.5521 16.6969L24.6686 16.6958L24.7853 16.6959L24.9021 16.6972L25.0189 16.6996L25.1358 16.7032L25.2528 16.7079L25.3698 16.7137L25.4868 16.7207L25.6039 16.7289L25.7209 16.7383L25.838 16.7488L25.9551 16.7604L26.0721 16.7732L26.1891 16.7873L26.306 16.8023L26.4228 16.8186L26.5397 16.8362L26.6564 16.8548L26.7729 16.8746L26.8895 16.8956L27.0059 16.9177L27.1221 16.9409L27.2381 16.9654L27.3541 16.9911L27.4697 17.0178L27.5853 17.0458L27.7007 17.0748L27.8158 17.1051L27.9308 17.1365L28.0455 17.169L28.1599 17.2028L28.274 17.2376L28.388 17.2737L28.5016 17.3109L28.615 17.3492L28.7279 17.3886L28.8407 17.4293L28.953 17.471L29.0651 17.5139L29.1767 17.558L29.288 17.6031L29.3989 17.6494L29.5094 17.6968L29.6195 17.7454L29.7292 17.795L29.8385 17.8459L29.9473 17.8978L30.0557 17.9508L30.1636 18.0049L30.271 18.0601L30.3779 18.1164L30.4843 18.1738L30.5903 18.2324L30.6958 18.292L30.8006 18.3527L30.9049 18.4144L31.0086 18.4773L31.1118 18.5412L31.2144 18.6062L31.3165 18.6722L31.4179 18.7394L31.5186 18.8074L31.6188 18.8766L31.7183 18.9469L31.8172 19.0181L31.9153 19.0905L32.0129 19.1638L32.1097 19.2381L32.2059 19.3134L32.3013 19.3898L32.396 19.4671L32.4901 19.5454L32.5833 19.6247L32.6758 19.7051L32.7675 19.7863L32.8585 19.8686L32.9486 19.9517L33.038 20.0359L33.1266 20.121L33.2144 20.2071L33.3014 20.294L33.3874 20.3819L33.4727 20.4707L33.5571 20.5604L33.6407 20.6509L33.7233 20.7425L33.8052 20.8348L33.8861 20.928L33.9661 21.0222L34.0452 21.1171L34.1233 21.213L34.2005 21.3096L34.2768 21.4072L34.3521 21.5054L34.4265 21.6046L34.4998 21.7045L34.5723 21.8053L34.6436 21.9068L34.714 22.0091L34.7834 22.1122L34.8519 22.2161L34.9193 22.3206L34.9856 22.4259L35.0509 22.5321L35.1152 22.6388L35.1783 22.7463L35.2404 22.8545L35.3015 22.9634L35.3615 23.073L35.4204 23.1833L35.4782 23.2942L35.5349 23.4058L35.5904 23.5179L35.6448 23.6308L35.6982 23.7442L35.7504 23.8583L35.8014 23.973L35.8513 24.0882L35.9 24.2041L35.9476 24.3204L35.994 24.4374L36.0392 24.5549L36.0833 24.6729L36.1262 24.7914L36.1677 24.9105L36.2082 25.03L36.2475 25.1501L36.2855 25.2706L36.3224 25.3916L36.3579 25.5131L36.3923 25.6349L36.4254 25.7572L36.4573 25.8799L36.488 26.003L36.5173 26.1265L36.5455 26.2504L36.5723 26.3746L36.5979 26.4993L36.6223 26.6243L36.6453 26.7495L36.6671 26.8752L36.6876 27.001L36.7068 27.1272L36.7248 27.2538L36.7413 27.3806L36.7566 27.5075L36.7708 27.6348L36.7834 27.7623L36.7949 27.89L36.8049 28.0179L36.8137 28.146L36.8212 28.2743L36.8273 28.4027L36.8321 28.5314L36.8356 28.6602L36.8377 28.789L36.8386 28.9179L36.8381 29.0471L36.8362 29.1763L36.833 29.3055L36.8285 29.4348L36.8227 29.5643L36.8155 29.6936L36.8069 29.8231L36.7971 29.9525L36.7858 30.0819L36.7733 30.2114L36.7594 30.3407L36.7441 30.4701L36.7275 30.5994L36.7095 30.7286L36.6902 30.8577L36.6695 30.9867L36.6475 31.1157L36.6241 31.2445L36.5994 31.3732L36.5734 31.5017L36.546 31.63L36.5173 31.7582L36.4872 31.8862L36.4557 32.014L36.423 32.1416L36.3889 32.2688L36.3534 32.3959L36.3166 32.5228L36.2784 32.6494L36.2389 32.7756L36.1981 32.9016L36.1561 33.0273L36.1126 33.1526L36.0678 33.2776L36.0217 33.4023L35.9743 33.5265L35.9256 33.6505L35.8755 33.774L35.8242 33.8971L35.7715 34.0199L35.7175 34.1421L35.6623 34.2639L35.6057 34.3853L35.5477 34.5062L35.4886 34.6267L35.4282 34.7465L35.3664 34.8659L35.3035 34.9848L35.2392 35.1032L35.1737 35.2209L35.1069 35.3383L35.0389 35.4549L34.9696 35.571L34.899 35.6865L34.8272 35.8014L34.7541 35.9155L34.6799 36.0292L34.6045 36.1422L34.5278 36.2544L34.4498 36.3661L34.3708 36.4771L34.2905 36.5873L34.209 36.6968L34.1263 36.8056L34.0424 36.9137L33.9573 37.0209L33.8712 37.1276L33.7838 37.2333L33.6952 37.3383L33.6056 37.4425L33.5148 37.5459L33.4228 37.6485L33.3299 37.7503L33.2357 37.8511L33.1405 37.9512L33.044 38.0503L32.9467 38.1487L32.848 38.2461L32.7485 38.3426L32.6479 38.4382L32.5461 38.5328L32.4434 38.6266L32.3395 38.7195L32.2348 38.8113L32.1289 38.9022L32.0221 38.9921L31.9142 39.081L31.8053 39.1689L31.6956 39.2558L31.5848 39.3417L31.473 39.4266L31.3604 39.5105L31.2468 39.5932L31.1322 39.6749L31.0166 39.7556L30.9003 39.8352L30.783 39.9136L30.6649 39.991L30.5457 40.0672L30.4259 40.1425L30.3051 40.2165L30.1835 40.2893L30.0611 40.3611L29.9378 40.4318L29.8137 40.5012L29.6889 40.5695L29.5632 40.6365L29.4368 40.7024L29.3096 40.7672L29.1816 40.8307L29.0529 40.8929L28.9235 40.954L28.7935 41.0139L28.6626 41.0724L28.5311 41.1298L28.3989 41.1859L28.266 41.2408L28.1326 41.2944L27.9984 41.3467L27.8637 41.3978L27.7282 41.4475L27.5923 41.496L27.4557 41.543L27.3186 41.5889L27.1809 41.6335L27.0427 41.6766L26.9039 41.7185L26.7646 41.759L26.6248 41.7982L26.4845 41.836L26.3437 41.8726L26.2024 41.9077L26.0608 41.9415L25.9186 41.9739L25.776 42.0049L25.6331 42.0347L25.4897 42.063L25.3459 42.0899L25.2019 42.1153L25.0573 42.1394L24.9125 42.1621L24.7673 42.1835L24.6219 42.2033L24.4762 42.2218L24.3302 42.2389L24.1839 42.2546L24.0374 42.2688L23.8906 42.2815L23.7435 42.2929L23.5963 42.3028L23.4489 42.3113L23.3013 42.3183L23.1536 42.3239L23.0056 42.3281L22.8575 42.3308L22.7094 42.332L22.5611 42.3319L22.4128 42.3302L22.2644 42.3271L22.1158 42.3225L21.9673 42.3165L21.8187 42.3091L21.6702 42.3001L21.5216 42.2896L21.373 42.2778L21.2245 42.2645L21.076 42.2497L20.9275 42.2334L20.7792 42.2157L20.6309 42.1965L20.4828 42.1759L20.3347 42.1537L20.1868 42.1302L20.0391 42.1051L19.8916 42.0785L19.7441 42.0505L19.597 42.0212L19.45 41.9902L19.3032 41.9578L19.1567 41.924L19.0104 41.8887L18.8644 41.8519L18.7188 41.8138L18.5734 41.7741L18.4283 41.7331L18.2836 41.6904L18.1393 41.6465L17.9952 41.6011L17.8517 41.5542L17.7085 41.5059L17.5656 41.4561L17.4233 41.4049L17.2813 41.3523L17.1398 41.2982L16.9988 41.2428L16.8583 41.186L16.7183 41.1276L16.5788 41.0679L16.4398 41.0069L16.3014 40.9444L16.1635 40.8804L16.0262 40.8152L15.8896 40.7485L15.7535 40.6804L15.618 40.611L15.4832 40.5402L15.349 40.468L15.2154 40.3945L15.0826 40.3196L14.9504 40.2434L14.8189 40.1659L14.6882 40.0869L14.5583 40.0067L14.4291 39.9251L14.3006 39.8422L14.1729 39.7581L14.046 39.6726L13.9199 39.5858L13.7947 39.4977L13.6702 39.4083L13.5466 39.3177L13.4239 39.2258L13.3021 39.1325L13.1812 39.0382L13.061 38.9425L12.9419 38.8456L12.8237 38.7474L12.7064 38.6481L12.5901 38.5475L12.4748 38.4458L12.3604 38.3429L12.247 38.2387L12.1347 38.1334L12.0234 38.027L11.9131 37.9193L11.8038 37.8106L11.6956 37.7006L11.5885 37.5896L11.4824 37.4774L11.3775 37.3642L11.2737 37.2498L11.1709 37.1344L11.0694 37.0178L10.9688 36.9002L10.8696 36.7816L10.7714 36.6619L10.6745 36.5411L10.5788 36.4193L10.4841 36.2967L10.3907 36.1728L10.2987 36.0481L10.2077 35.9223L10.1181 35.7956L10.0297 35.668L9.94259 35.5394L9.85672 35.4099L9.77216 35.2794L9.68889 35.148L9.60693 35.0158L9.52628 34.8826L9.44696 34.7487L9.36897 34.6138L9.29234 34.4781L9.21705 34.3416L9.14313 34.2042L9.07059 34.066L8.99943 33.9271L8.92967 33.7874L8.8613 33.6468L8.79434 33.5056L8.72881 33.3636L8.6647 33.2208L8.60202 33.0774L8.5408 32.9333L8.48102 32.7884L8.4227 32.6429L8.36584 32.4968L8.31046 32.3499L8.25658 32.2025L8.20417 32.0545L8.15326 31.9058L8.10386 31.7566L8.05597 31.6068L8.0096 31.4565L7.96474 31.3055L7.92143 31.154L7.87965 31.0022L7.83941 30.8497L7.80072 30.6967L7.76359 30.5433L7.72802 30.3895L7.69402 30.2352L7.66158 30.0805L7.63072 29.9253L7.60145 29.7698L7.57377 29.6139L7.54767 29.4577L7.52318 29.3011L7.50028 29.1441L7.479 28.9868L7.45931 28.8293L7.44124 28.6714L7.4248 28.5133L7.40997 28.355L7.39676 28.1963L7.38519 28.0375L7.37525 27.8785L7.36695 27.7193L7.36027 27.5599L7.35524 27.4003L7.35185 27.2406L7.3501 27.0808L7.35002 26.9209L7.35156 26.7609L7.35476 26.6007L7.35963 26.4406L7.36613 26.2803L7.3743 26.1201L7.38411 25.9598L7.3956 25.7996L7.40874 25.6393L7.42354 25.4792L7.44 25.319L7.45812 25.1589L7.47789 24.9989L7.49934 24.8391L7.52243 24.6793L7.54719 24.5197L7.57361 24.3602L7.60169 24.2008L7.63142 24.0418L7.66282 23.8828L7.69587 23.7241L7.73057 23.5656L7.76693 23.4074L7.80494 23.2495L7.84459 23.0917L7.8859 22.9344L7.92885 22.7773L7.97344 22.6206L8.01968 22.4641L8.06755 22.3081L8.11705 22.1525L8.1682 21.9972L8.22096 21.8424L8.27535 21.6879L8.33136 21.534L8.38899 21.3804L8.44823 21.2274L8.50909 21.0749L8.57154 20.9228L8.63561 20.7713L8.70126 20.6204L8.76851 20.4699L8.83734 20.3201L8.90777 20.1709L8.97976 20.0222L9.05333 19.8743L9.12845 19.7268L9.20515 19.5801L9.28339 19.4341L9.36317 19.2886L9.44451 19.144L9.52739 19.0001L9.61178 18.8569L9.69771 18.7144L9.78513 18.5726L9.87412 18.4317L9.96446 18.2915L10.0565 18.1522L10.1499 18.0136L10.2447 17.8759L10.3412 17.7392L10.4389 17.6031L10.5383 17.4681L10.639 17.3338L10.7412 17.2006L10.8447 17.0683L10.9497 16.9369L11.0562 16.8064L11.164 16.6769L11.2732 16.5484L11.3838 16.4209L11.4957 16.2944L11.6091 16.169L11.7238 16.0445L11.8398 15.9212L11.9572 15.7989L12.0758 15.6776L12.1959 15.5575L12.3172 15.4384L12.4398 15.3206L12.5637 15.2038L12.6888 15.0882L12.8151 14.9737L12.9428 14.8605L13.0717 14.7484L13.2018 14.6374L13.3331 14.5277L13.4656 14.4193L13.5993 14.3121L13.7342 14.2061L13.8703 14.1014L14.0074 13.998L14.1457 13.8958L14.2852 13.795L14.4258 13.6954L14.5674 13.5973L14.7102 13.5004L14.854 13.4048L14.9989 13.3107L15.1448 13.2179L15.2918 13.1264L15.4397 13.0364L15.5887 12.9477L15.7387 12.8605L15.8896 12.7747L16.0415 12.6903L16.1944 12.6073L16.3481 12.5258L16.5028 12.4458L16.6585 12.3673L16.815 12.2902L16.9724 12.2146L17.1307 12.1405L17.2898 12.0679L17.4497 11.9968L17.6104 11.9273L17.7719 11.8593L17.9342 11.7928L18.0973 11.7279L18.2612 11.6646L18.4258 11.6028L18.5911 11.5426L18.7571 11.484L18.9236 11.427L19.0911 11.3716L19.2591 11.3178L19.4278 11.2656L19.597 11.215L19.7669 11.1661L19.9374 11.1188L20.1085 11.0731L20.28 11.0291L20.4522 10.9868L20.6249 10.9461L20.798 10.9071L20.9718 10.8697L21.1459 10.8341L21.3205 10.8001L21.4956 10.7678L21.671 10.7372L21.8469 10.7083L22.0231 10.6811L22.0888 10.6716ZM22.3168 16.9427L22.1614 12.6682L22.017 12.6919L21.8618 12.719L21.7065 12.7476L21.5523 12.7776L21.3978 12.8093L21.2442 12.8423L21.0909 12.8768L20.9383 12.9128L20.786 12.9503L20.6341 12.9892L20.4826 13.0296L20.3319 13.0715L20.1813 13.1149L20.0367 13.158L19.8826 13.2057L19.7339 13.2533L19.5859 13.3023L19.4387 13.3527L19.2919 13.4045L19.1456 13.4578L19.0001 13.5124L18.8553 13.5683L18.7112 13.6258L18.5678 13.6844L18.4249 13.7446L18.2832 13.806L18.1415 13.8689L18.001 13.933L17.8612 13.9984L17.7223 14.0651L17.5839 14.1333L17.4463 14.2027L17.3099 14.2733L17.1738 14.3454L17.0392 14.4185L16.9048 14.4932L16.7717 14.5688L16.639 14.6461L16.5075 14.7241L16.3771 14.8036L16.2473 14.8844L16.1185 14.9663L15.9904 15.0496L15.8637 15.1337L15.7376 15.2193L15.6127 15.3059L15.4888 15.3936L15.3657 15.4827L15.2435 15.5729L15.1227 15.6639L15.0027 15.7564L14.8836 15.8499L14.7657 15.9444L14.649 16.0399L14.533 16.1368L14.4184 16.2345L14.3048 16.3332L14.1922 16.4333L14.081 16.534L13.9706 16.636L13.8613 16.739L13.7533 16.8428L13.6466 16.9476L13.5406 17.0536L13.4362 17.1603L13.3329 17.268L13.2305 17.3768L13.1295 17.4863L13.0297 17.5969L12.9311 17.7083L12.8337 17.8205L12.7375 17.9337L12.6424 18.0478L12.549 18.1625L12.4565 18.2782L12.3653 18.3948L12.2754 18.5121L12.1868 18.63L12.0993 18.7491L12.0132 18.8687L11.9284 18.9891L11.8449 19.1103L11.7627 19.2322L11.6819 19.3546L11.6024 19.4779L11.5241 19.602L11.4471 19.7266L11.3716 19.8518L11.2975 19.9777L11.2246 20.1045L11.153 20.2316L11.0829 20.3594L11.0141 20.4879L10.9468 20.6166L10.8807 20.7462L10.8159 20.8765L10.7528 21.0069L10.6909 21.1382L10.6305 21.2698L10.5714 21.4018L10.5137 21.5345L10.4574 21.6676L10.4026 21.8011L10.3491 21.935L10.2971 22.0694L10.2466 22.2042L10.1973 22.3394L10.1495 22.475L10.1033 22.6109L10.0583 22.7473L10.015 22.8838L9.97287 23.0207L9.93234 23.158L9.89315 23.2956L9.85552 23.4334L9.81923 23.5714L9.78451 23.7097L9.75113 23.8483L9.71924 23.9871L9.6888 24.1261L9.65983 24.2653L9.6323 24.4046L9.60621 24.5442L9.58162 24.6839L9.55845 24.8236L9.53674 24.9636L9.51651 25.1036L9.4977 25.2438L9.48038 25.3839L9.46449 25.5242L9.45008 25.6645L9.43711 25.8049L9.4256 25.9452L9.41555 26.0856L9.40694 26.226L9.3998 26.3662L9.3941 26.5067L9.38984 26.6469L9.38703 26.7871L9.38568 26.9271L9.38576 27.0671L9.38729 27.207L9.39025 27.3469L9.39465 27.4865L9.4005 27.626L9.40777 27.7653L9.41646 27.9044L9.42659 28.0434L9.43814 28.1822L9.4511 28.3206L9.46549 28.459L9.48129 28.597L9.4985 28.7347L9.51711 28.8722L9.53713 29.0095L9.55855 29.1465L9.58135 29.283L9.60556 29.4193L9.63114 29.5551L9.65811 29.6907L9.68646 29.826L9.71616 29.9607L9.74725 30.0952L9.77967 30.2292L9.81348 30.3629L9.8486 30.4959L9.88511 30.6286L9.92294 30.7609L9.96212 30.8927L10.0025 31.0239L10.0444 31.1547L10.0875 31.285L10.132 31.4148L10.1777 31.5441L10.2247 31.6727L10.2731 31.8007L10.3226 31.9283L10.3735 32.0552L10.4257 32.1816L10.4791 32.3073L10.5337 32.4324L10.5897 32.5569L10.6468 32.6807L10.7052 32.8039L10.7648 32.9264L10.8256 33.0482L10.8877 33.1693L10.9509 33.2898L11.0154 33.4094L11.0809 33.5285L11.1477 33.6468L11.2157 33.7643L11.2848 33.881L11.355 33.997L11.4264 34.1122L11.499 34.2266L11.5726 34.3402L11.6474 34.453L11.7232 34.565L11.8003 34.6762L11.8782 34.7864L11.9574 34.8959L12.0375 35.0045L12.1188 35.1122L12.2011 35.219L12.2844 35.3249L12.3688 35.4299L12.4542 35.5341L12.5405 35.6373L12.6279 35.7396L12.7162 35.8409L12.8056 35.9414L12.8959 36.0407L12.9872 36.1394L13.0793 36.2367L13.1725 36.3333L13.2665 36.4288L13.3614 36.5234L13.4573 36.6169L13.5541 36.7094L13.6516 36.8009L13.7502 36.8914L13.8496 36.9809L13.9496 37.0692L14.0508 37.1566L14.1525 37.2428L14.2552 37.328L14.3586 37.4122L14.4629 37.4952L14.5679 37.5772L14.6736 37.658L14.7801 37.7378L14.8874 37.8164L14.9954 37.8941L15.1041 37.9705L15.2134 38.0457L15.3234 38.1199L15.4342 38.1929L15.5456 38.2648L15.6578 38.3356L15.7705 38.4051L15.8838 38.4735L15.9978 38.5408L16.1123 38.6069L16.2274 38.6718L16.3432 38.7356L16.4594 38.798L16.5763 38.8594L16.6936 38.9195L16.8115 38.9785L16.9299 39.0363L17.0488 39.0928L17.1682 39.1482L17.2882 39.2023L17.4085 39.2552L17.5292 39.3069L17.6505 39.3574L17.7721 39.4066L17.8941 39.4545L18.0166 39.5013L18.1395 39.5468L18.2625 39.5911L18.3861 39.6341L18.51 39.6759L18.6342 39.7165L18.7587 39.7558L18.8837 39.7939L19.0088 39.8306L19.1342 39.8662L19.2599 39.9004L19.3858 39.9334L19.5119 39.9652L19.6383 39.9957L19.7649 40.025L19.8917 40.0529L20.0187 40.0796L20.1458 40.1051L20.2732 40.1293L20.4007 40.1522L20.5282 40.1738L20.656 40.1941L20.7837 40.2132L20.9117 40.2311L21.0396 40.2476L21.1676 40.263L21.2957 40.277L21.4238 40.2898L21.552 40.3013L21.6801 40.3116L21.8083 40.3205L21.9365 40.3282L22.0647 40.3346L22.1928 40.3399L22.3208 40.3437L22.4487 40.3465L22.5767 40.3479L22.7045 40.3481L22.8321 40.347L22.9597 40.3446L23.0872 40.341L23.2145 40.3362L23.3417 40.3302L23.4686 40.3229L23.5955 40.3143L23.722 40.3045L23.8484 40.2935L23.9745 40.2813L24.1005 40.2678L24.2262 40.2531L24.3517 40.2372L24.4769 40.22L24.6018 40.2017L24.7264 40.1822L24.8507 40.1615L24.9747 40.1396L25.0983 40.1164L25.2215 40.0921L25.3445 40.0665L25.4671 40.0398L25.5893 40.0121L25.7112 39.9829L25.8325 39.9527L25.9535 39.9214L26.074 39.8888L26.1942 39.8552L26.3139 39.8204L26.4331 39.7844L26.5519 39.7473L26.6701 39.7091L26.7878 39.6698L26.9051 39.6292L27.0219 39.5876L27.1381 39.5449L27.2538 39.5011L27.3689 39.4563L27.4834 39.4103L27.5974 39.3632L27.7108 39.315L27.8237 39.2658L27.9359 39.2155L28.0474 39.1642L28.1584 39.1119L28.2687 39.0585L28.3785 39.004L28.4875 38.9485L28.5957 38.8922L28.7036 38.8345L28.8105 38.7761L28.9169 38.7165L29.0223 38.6561L29.1273 38.5946L29.2315 38.5322L29.3348 38.4688L29.4376 38.4044L29.5396 38.3391L29.6406 38.2728L29.7412 38.2056L29.8406 38.1376L29.9395 38.0686L30.0376 37.9985L30.1348 37.9277L30.231 37.8562L30.3268 37.7834L30.4214 37.7101L30.5154 37.6357L30.6086 37.5605L30.7005 37.4846L30.792 37.4077L30.8826 37.3299L30.9719 37.2516L31.0608 37.172L31.1485 37.092L31.2353 37.0113L31.3215 36.9294L31.4064 36.8471L31.4906 36.7639L31.5738 36.68L31.656 36.5954L31.7373 36.5099L31.8178 36.4238L31.8972 36.3369L31.9755 36.2494L32.053 36.1612L32.1296 36.0723L32.205 35.9828L32.2796 35.8924L32.3531 35.8016L32.4255 35.7102L32.4971 35.6179L32.5675 35.5254L32.637 35.4319L32.7055 35.338L32.773 35.2433L32.8393 35.1482L32.9045 35.0528L32.9689 34.9563L33.0321 34.8597L33.0943 34.7624L33.1556 34.6644L33.2154 34.5663L33.2745 34.4674L33.3324 34.368L33.3893 34.2683L33.445 34.1681L33.4998 34.0672L33.5532 33.9664L33.6059 33.8646L33.6573 33.7627L33.7074 33.6604L33.7568 33.5573L33.8047 33.4545L33.8518 33.3506L33.8975 33.247L33.9425 33.1424L33.986 33.0381L34.0286 32.9328L34.07 32.8277L34.1102 32.7222L34.1494 32.6163L34.1875 32.5101L34.2242 32.4039L34.2602 32.2971L34.2946 32.1902L34.3281 32.0831L34.3605 31.9757L34.3918 31.8679L34.4219 31.7601L34.4508 31.6523L34.4786 31.544L34.5052 31.4357L34.5308 31.3271L34.5551 31.2185L34.5783 31.1098L34.6004 31.0007L34.6213 30.8917L34.6412 30.7826L34.6598 30.6735L34.6773 30.5642L34.6936 30.4546L34.7088 30.3453L34.7229 30.2358L34.7358 30.1262L34.7476 30.0169L34.7582 29.9074L34.7678 29.7975L34.7761 29.6885L34.7834 29.5786L34.7895 29.4691L34.7944 29.36L34.7983 29.2505L34.801 29.1413L34.8025 29.0322L34.8029 28.9228L34.8022 28.8141L34.8004 28.7049L34.7974 28.5962L34.7934 28.4874L34.7882 28.3792L34.7819 28.2707L34.7745 28.1625L34.7659 28.0548L34.7563 27.9467L34.7456 27.839L34.7338 27.7319L34.7209 27.6245L34.7068 27.5178L34.6917 27.4109L34.6755 27.3045L34.6582 27.1983L34.6399 27.0923L34.6204 26.9867L34.5999 26.8814L34.5784 26.7765L34.5557 26.6718L34.5319 26.5671L34.5072 26.4632L34.4814 26.3597L34.4546 26.2562L34.4266 26.1531L34.3978 26.0508L34.3677 25.9482L34.3368 25.8466L34.3047 25.7451L34.2717 25.6442L34.2377 25.5435L34.2026 25.4433L34.1666 25.3438L34.1296 25.2446L34.0914 25.1455L34.0526 25.0474L34.0125 24.9495L33.9716 24.8523L33.9297 24.7553L33.8868 24.6589L33.843 24.5633L33.7981 24.4678L33.7525 24.3732L33.7058 24.2791L33.6582 24.1853L33.6096 24.092L33.5603 23.9996L33.5099 23.9075L33.4587 23.8163L33.4066 23.7257L33.3535 23.6352L33.2998 23.5459L33.245 23.4569L33.1894 23.3687L33.1328 23.2808L33.0757 23.194L33.0173 23.1074L32.9585 23.0218L32.8986 22.9368L32.838 22.8525L32.7764 22.7686L32.7142 22.6856L32.6513 22.6035L32.5873 22.5217L32.5227 22.4409L32.4572 22.3607L32.3913 22.2813L32.3243 22.2025L32.2566 22.1245L32.1881 22.0473L32.1191 21.9707L32.0493 21.8951L31.9786 21.82L31.9075 21.7459L31.8354 21.6724L31.763 21.5999L31.6895 21.5279L31.6156 21.457L31.5408 21.3865L31.4656 21.3171L31.3898 21.2486L31.3132 21.1807L31.2359 21.1136L31.1581 21.0475L31.0797 20.9822L31.0005 20.9175L30.9213 20.8541L30.841 20.7911L30.7602 20.7292L30.679 20.6682L30.5971 20.6077L30.5147 20.5484L30.4321 20.4901L30.3485 20.4324L30.2643 20.3754L30.1802 20.3198L30.0949 20.2646L30.0098 20.2108L29.924 20.1575L29.8376 20.1052L29.7507 20.0537L29.6637 20.0034L29.5758 19.9537L29.4878 19.9051L29.3991 19.8573L29.3105 19.8106L29.2212 19.7647L29.1314 19.7196L29.0414 19.6756L28.9511 19.6326L28.8603 19.5903L28.7691 19.549L28.6778 19.5087L28.5863 19.4695L28.4938 19.4309L28.4017 19.3935L28.3091 19.357L28.216 19.3213L28.1228 19.2867L28.0296 19.2531L27.9359 19.2204L27.8417 19.1885L27.7477 19.1578L27.6532 19.1279L27.5585 19.099L27.4639 19.0711L27.3689 19.0442L27.274 19.0182L27.1783 18.993L27.0829 18.969L26.9874 18.9459L26.8916 18.9238L26.7957 18.9025L26.6995 18.8823L26.6035 18.863L26.5075 18.8448L26.4111 18.8275L26.3144 18.811L26.2184 18.7957L26.1217 18.7813L26.0253 18.7678L25.9284 18.7552L25.8322 18.7437L25.7351 18.733L25.6388 18.7235L25.5421 18.7148L25.4455 18.7071L25.349 18.7004L25.2523 18.6946L25.1561 18.6897L25.0594 18.6859L24.9631 18.6829L24.867 18.681L24.7703 18.6799L24.6745 18.6798L24.5785 18.6807L24.4826 18.6825L24.4171 18.6843L24.5689 22.8606L24.5986 22.86L24.6536 22.8595L24.7089 22.8594L24.7642 22.8598L24.8196 22.861L24.875 22.8627L24.9305 22.8649L24.9862 22.8677L25.0418 22.8711L25.0976 22.8751L25.1533 22.8796L25.2091 22.8846L25.265 22.8903L25.3208 22.8966L25.3768 22.9034L25.4327 22.9109L25.4887 22.919L25.5446 22.9276L25.6006 22.9368L25.6565 22.9465L25.7124 22.957L25.7683 22.9679L25.8243 22.9795L25.88 22.9917L25.9359 23.0044L25.9916 23.0177L26.0473 23.0316L26.103 23.0461L26.1586 23.0613L26.2141 23.0769L26.2695 23.0933L26.3249 23.1102L26.3801 23.1277L26.4353 23.1457L26.4903 23.1644L26.5452 23.1837L26.6 23.2035L26.6548 23.2239L26.7093 23.245L26.7637 23.2666L26.818 23.2888L26.8721 23.3116L26.9261 23.335L26.9799 23.359L27.0335 23.3835L27.087 23.4087L27.1402 23.4345L27.1933 23.4608L27.2462 23.4877L27.2988 23.5152L27.3513 23.5433L27.4035 23.5719L27.4555 23.6011L27.5073 23.6309L27.5588 23.6613L27.6101 23.6923L27.6611 23.7237L27.7119 23.7558L27.7625 23.7885L27.8127 23.8217L27.8627 23.8555L27.9124 23.8898L27.9618 23.9247L28.0109 23.9602L28.0596 23.9962L28.1082 24.0327L28.1563 24.0699L28.2041 24.1075L28.2517 24.1457L28.2989 24.1844L28.3457 24.2237L28.3923 24.2635L28.4384 24.3039L28.4841 24.3447L28.5295 24.3862L28.5746 24.4281L28.6192 24.4705L28.6635 24.5135L28.7074 24.557L28.7508 24.601L28.7939 24.6455L28.8366 24.6905L28.8789 24.736L28.9207 24.782L28.962 24.8285L29.0031 24.8755L29.0436 24.923L29.0836 24.9709L29.1232 25.0193L29.1624 25.0683L29.2012 25.1176L29.2394 25.1675L29.2771 25.2177L29.3144 25.2685L29.3512 25.3198L29.3875 25.3715L29.4233 25.4235L29.4587 25.4761L29.4935 25.5291L29.5278 25.5825L29.5615 25.6364L29.5947 25.6906L29.6275 25.7453L29.6596 25.8004L29.6913 25.8559L29.7225 25.9118L29.753 25.9681L29.783 26.0247L29.8124 26.0818L29.8412 26.1393L29.8695 26.1971L29.8973 26.2553L29.9245 26.3138L29.9511 26.3728L29.9771 26.432L30.0024 26.4916L30.0272 26.5516L30.0515 26.6119L30.075 26.6725L30.098 26.7335L30.1204 26.7948L30.1421 26.8564L30.1632 26.9183L30.1837 26.9804L30.2035 27.043L30.2227 27.1058L30.2414 27.1688L30.2594 27.2321L30.2766 27.2958L30.2933 27.3597L30.3093 27.4238L30.3246 27.4883L30.3393 27.5529L30.3532 27.6177L30.3666 27.6829L30.3793 27.7483L30.3914 27.8137L30.4026 27.8795L30.4133 27.9455L30.4232 28.0117L30.4325 28.0781L30.4411 28.1447L30.449 28.2113L30.4562 28.2783L30.4627 28.3454L30.4684 28.4126L30.4735 28.48L30.4779 28.5475L30.4816 28.6152L30.4845 28.683L30.4868 28.7509L30.4883 28.8189L30.4892 28.8871L30.4893 28.9554L30.4886 29.0237L30.4873 29.0922L30.4852 29.1606L30.4824 29.2292L30.4789 29.2979L30.4746 29.3666L30.4696 29.4354L30.4639 29.5042L30.4574 29.573L30.4502 29.6419L30.4423 29.7108L30.4337 29.7797L30.4242 29.8486L30.414 29.9175L30.4032 29.9864L30.3915 30.0553L30.3792 30.1241L30.366 30.193L30.3521 30.2618L30.3376 30.3305L30.3221 30.3992L30.306 30.4679L30.2893 30.5364L30.2716 30.605L30.2533 30.6733L30.2342 30.7416L30.2144 30.8099L30.1939 30.8779L30.1725 30.946L30.1505 31.0138L30.1276 31.0815L30.1041 31.1491L30.0798 31.2165L30.0548 31.2839L30.029 31.3509L30.0025 31.4179L29.9753 31.4847L29.9472 31.5513L29.9185 31.6177L29.889 31.6838L29.8588 31.7499L29.8279 31.8156L29.7962 31.8812L29.7638 31.9465L29.7306 32.0116L29.6968 32.0764L29.6622 32.141L29.6269 32.2053L29.5908 32.2694L29.5542 32.3331L29.5166 32.3967L29.4785 32.4598L29.4396 32.5227L29.3999 32.5853L29.3596 32.6475L29.3186 32.7095L29.2769 32.7711L29.2344 32.8324L29.1913 32.8933L29.1475 32.9539L29.1029 33.0141L29.0577 33.074L29.0119 33.1334L28.9653 33.1925L28.9181 33.2512L28.8702 33.3095L28.8215 33.3674L28.7722 33.4248L28.7223 33.482L28.6717 33.5386L28.6205 33.5947L28.5685 33.6506L28.516 33.7059L28.4628 33.7607L28.409 33.8151L28.3545 33.8691L28.2993 33.9224L28.2436 33.9754L28.1872 34.0279L28.1303 34.0799L28.0727 34.1314L28.0145 34.1823L27.9556 34.2328L27.8962 34.2827L27.8361 34.332L27.7756 34.3809L27.7144 34.4292L27.6526 34.477L27.5903 34.5241L27.5273 34.5707L27.4639 34.6169L27.3998 34.6623L27.3352 34.7073L27.2701 34.7515L27.2044 34.7953L27.1381 34.8384L27.0714 34.8809L27.0041 34.9228L26.9363 34.9641L26.868 35.0047L26.7991 35.0447L26.7298 35.0841L26.66 35.1228L26.5897 35.161L26.5189 35.1984L26.4477 35.2352L26.3759 35.2713L26.3036 35.3067L26.2311 35.3415L26.1579 35.3755L26.0844 35.4089L26.0104 35.4416L25.936 35.4736L25.8611 35.5049L25.7858 35.5355L25.7101 35.5653L25.6341 35.5945L25.5577 35.623L25.4808 35.6507L25.4036 35.6777L25.326 35.7038L25.2481 35.7293L25.1697 35.7542L25.091 35.7781L25.0121 35.8014L24.9327 35.8238L24.853 35.8456L24.773 35.8665L24.6927 35.8867L24.6121 35.9061L24.5312 35.9248L24.45 35.9426L24.3685 35.9596L24.2868 35.9759L24.2048 35.9914L24.1226 36.0061L24.04 36.0199L23.9573 36.033L23.8743 36.0453L23.7912 36.0568L23.7078 36.0674L23.6241 36.0773L23.5403 36.0862L23.4563 36.0944L23.3721 36.1017L23.2878 36.1083L23.2033 36.114L23.1186 36.1188L23.0337 36.1228L22.9488 36.126L22.8638 36.1284L22.7786 36.1299L22.6933 36.1306L22.6078 36.1303L22.5224 36.1293L22.4368 36.1274L22.351 36.1247L22.2653 36.1211L22.1795 36.1167L22.0937 36.1114L22.0078 36.1051L21.922 36.0982L21.836 36.0902L21.7501 36.0814L21.6641 36.0718L21.5782 36.0614L21.4923 36.05L21.4064 36.0378L21.3206 36.0247L21.2348 36.0108L21.149 35.9961L21.0633 35.9803L20.9776 35.9638L20.8921 35.9463L20.8067 35.928L20.7212 35.909L20.636 35.8889L20.5509 35.868L20.4658 35.8462L20.381 35.8236L20.2963 35.8001L20.2117 35.7757L20.1273 35.7506L20.043 35.7245L19.959 35.6975L19.8751 35.6697L19.7914 35.641L19.708 35.6114L19.6247 35.581L19.5417 35.5497L19.459 35.5177L19.3765 35.4847L19.2942 35.4508L19.2122 35.4162L19.1305 35.3807L19.049 35.3442L18.9678 35.307L18.887 35.2689L18.8065 35.23L18.7263 35.1902L18.6465 35.1497L18.5669 35.1082L18.4878 35.066L18.4088 35.0229L18.3304 34.9789L18.2523 34.9342L18.1747 34.8886L18.0973 34.8423L18.0204 34.7951L17.9439 34.747L17.8678 34.6982L17.7923 34.6485L17.717 34.5981L17.6422 34.5469L17.568 34.4948L17.4941 34.442L17.4208 34.3885L17.3479 34.334L17.2756 34.2789L17.2037 34.2229L17.1323 34.1662L17.0615 34.1087L16.9912 34.0504L16.9214 33.9915L16.8521 33.9317L16.7834 33.8712L16.7153 33.8099L16.6478 33.7479L16.5807 33.6852L16.5144 33.6218L16.4486 33.5576L16.3833 33.4927L16.3187 33.4271L16.2548 33.3607L16.1915 33.2937L16.1287 33.2261L16.0667 33.1576L16.0053 33.0886L15.9444 33.0188L15.8844 32.9483L15.825 32.8772L15.7662 32.8055L15.7081 32.733L15.6508 32.6599L15.5942 32.5862L15.5383 32.5119L15.483 32.4368L15.4285 32.3612L15.3748 32.285L15.3218 32.2082L15.2696 32.1307L15.218 32.0527L15.1673 31.9741L15.1172 31.8949L15.0681 31.8151L15.0197 31.7347L14.972 31.6538L14.9252 31.5724L14.8792 31.4904L14.8339 31.4078L14.7894 31.3247L14.7458 31.2412L14.7031 31.157L14.6612 31.0724L14.6201 30.9873L14.5799 30.9017L14.5405 30.8155L14.5019 30.729L14.4642 30.6419L14.4274 30.5544L14.3915 30.4664L14.3566 30.378L14.3224 30.2892L14.2891 30.2L14.2567 30.1103L14.2253 30.0202L14.1947 29.9297L14.165 29.8389L14.1363 29.7476L14.1085 29.6559L14.0817 29.5639L14.0556 29.4715L14.0307 29.3788L14.0067 29.2858L13.9835 29.1924L13.9613 29.0987L13.9401 29.0047L13.9198 28.9104L13.9005 28.8158L13.8822 28.7209L13.8649 28.6258L13.8484 28.5303L13.833 28.4347L13.8186 28.3387L13.8052 28.2426L13.7927 28.1461L13.7812 28.0495L13.7707 27.9527L13.7613 27.8557L13.7528 27.7585L13.7453 27.6611L13.7388 27.5636L13.7333 27.4659L13.7289 27.368L13.7255 27.2701L13.723 27.172L13.7216 27.0737L13.7213 26.9754L13.7219 26.8769L13.7236 26.7784L13.7263 26.6797L13.73 26.5811L13.7347 26.4824L13.7405 26.3836L13.7473 26.2847L13.7551 26.1859L13.764 26.087L13.7739 25.9882L13.7848 25.8893L13.7969 25.7905L13.8099 25.6917L13.824 25.5929L13.8391 25.4941L13.8552 25.3954L13.8725 25.2967L13.8907 25.1982L13.91 25.0998L13.9302 25.0014L13.9516 24.9032L13.974 24.805L13.9975 24.707L14.022 24.6092L14.0475 24.5115L14.074 24.4138L14.1016 24.3165L14.1302 24.2193L14.1598 24.1222L14.1906 24.0255L14.2223 23.9288L14.2551 23.8325L14.2888 23.7363L14.3237 23.6405L14.3596 23.5448L14.3965 23.4494L14.4344 23.3543L14.4733 23.2595L14.5133 23.1649L14.5542 23.0707L14.5962 22.9768L14.6392 22.8833L14.6832 22.79L14.7282 22.6971L14.7742 22.6046L14.8212 22.5125L14.8693 22.4207L14.9183 22.3293L14.9683 22.2383L15.0193 22.1478L15.0713 22.0576L15.1242 21.9679L15.1782 21.8786L15.2332 21.7897L15.289 21.7013L15.3459 21.6135L15.4037 21.526L15.4625 21.4391L15.5222 21.3527L15.5829 21.2668L15.6445 21.1814L15.7071 21.0966L15.7706 21.0122L15.8351 20.9285L15.9005 20.8452L15.9667 20.7626L16.0339 20.6805L16.102 20.599L16.171 20.5181L16.2409 20.4378L16.3118 20.3582L16.3835 20.2792L16.4561 20.2008L16.5296 20.1231L16.6039 20.046L16.6791 19.9695L16.7552 19.8938L16.8321 19.8187L16.9098 19.7443L16.9883 19.6706L17.0678 19.5976L17.1481 19.5255L17.2291 19.4538L17.3111 19.3831L17.3937 19.3131L17.4772 19.2437L17.5614 19.1752L17.6465 19.1075L17.7323 19.0405L17.8189 18.9743L17.9063 18.9089L17.9944 18.8443L18.0833 18.7805L18.173 18.7175L18.2632 18.6554L18.3543 18.5942L18.4461 18.5337L18.5385 18.4741L18.6318 18.4153L18.7256 18.3575L18.8202 18.3005L18.9153 18.2443L19.0112 18.1891L19.1078 18.1348L19.2049 18.0814L19.3027 18.0288L19.4011 17.9772L19.5002 17.9265L19.5999 17.8768L19.7001 17.828L19.8009 17.7801L19.9023 17.7333L20.0044 17.6873L20.107 17.6422L20.21 17.5983L20.3137 17.5552L20.4179 17.5132L20.5226 17.4721L20.6278 17.4321L20.7336 17.393L20.8398 17.3549L20.9465 17.3179L21.0536 17.2818L21.1613 17.2469L21.2694 17.2129L21.3779 17.18L21.4869 17.1481L21.5962 17.1172L21.7061 17.0874L21.8162 17.0587L21.9269 17.0311L22.0378 17.0045L22.1492 16.9789L22.2608 16.9545L22.3168 16.9427ZM23.8922 24.9426L22.6198 25.2786L22.3902 18.9628L22.3302 18.9778L22.2399 19.0014L22.1498 19.0259L22.0603 19.0511L21.9709 19.0772L21.8821 19.1041L21.7934 19.1321L21.7055 19.1606L21.6175 19.1902L21.5306 19.2204L21.4434 19.2516L21.3569 19.2836L21.2708 19.3164L21.1851 19.3499L21.1002 19.3842L21.0154 19.4195L20.931 19.4554L20.8473 19.4922L20.7636 19.5298L20.6811 19.568L20.5986 19.6072L20.517 19.6469L20.4354 19.6877L20.3546 19.729L20.2741 19.7711L20.1945 19.8139L20.1152 19.8575L20.0366 19.9018L19.9584 19.9468L19.8808 19.9925L19.8037 20.039L19.7275 20.0861L19.6513 20.1341L19.576 20.1826L19.5014 20.2318L19.4273 20.2816L19.3537 20.3323L19.2808 20.3835L19.2086 20.4354L19.1368 20.4879L19.0659 20.541L18.9954 20.5949L18.9256 20.6494L18.8565 20.7045L18.788 20.7602L18.7202 20.8163L18.6532 20.8732L18.5866 20.9307L18.5207 20.9889L18.4557 21.0474L18.3912 21.1067L18.3275 21.1664L18.2644 21.2267L18.202 21.2877L18.1404 21.3491L18.0795 21.4109L18.0191 21.4735L17.9597 21.5364L17.9009 21.5999L17.8429 21.6638L17.7854 21.7285L17.7289 21.7934L17.673 21.8588L17.6179 21.9248L17.5636 21.9911L17.5099 22.058L17.4572 22.1251L17.405 22.193L17.3538 22.261L17.3031 22.3297L17.2534 22.3988L17.2044 22.4681L17.1561 22.5378L17.1087 22.6079L17.062 22.6786L17.0161 22.7495L16.971 22.8209L16.9268 22.8924L16.8833 22.9643L16.8405 23.0367L16.7988 23.1093L16.7576 23.1825L16.7173 23.2555L16.6778 23.3292L16.6391 23.4032L16.6013 23.4773L16.5643 23.5517L16.5281 23.6264L16.4926 23.7016L16.4581 23.7766L16.4243 23.8523L16.3914 23.9279L16.3593 24.0039L16.328 24.08L16.2975 24.1565L16.2679 24.233L16.2392 24.3099L16.2113 24.3868L16.184 24.464L16.1578 24.5411L16.1324 24.6187L16.1077 24.6964L16.084 24.7741L16.061 24.852L16.0389 24.9301L16.0176 25.0083L15.9973 25.0864L15.9776 25.1648L15.9588 25.2433L15.9409 25.3218L15.9238 25.4004L15.9075 25.4791L15.8921 25.5578L15.8776 25.6367L15.8639 25.7154L15.8509 25.7942L15.8389 25.8732L15.8277 25.952L15.8173 26.0309L15.8076 26.1099L15.7989 26.1886L15.7911 26.2677L15.784 26.3463L15.7777 26.4252L15.7723 26.5042L15.7677 26.5828L15.7639 26.6615L15.7609 26.7402L15.7588 26.8186L15.7575 26.897L15.7569 26.9753L15.7573 27.0537L15.7583 27.1318L15.7603 27.2098L15.763 27.2877L15.7666 27.3656L15.7709 27.4432L15.776 27.5207L15.7819 27.598L15.7887 27.6752L15.7962 27.7521L15.8046 27.829L15.8137 27.9056L15.8235 27.9822L15.8342 28.0582L15.8456 28.1345L15.8578 28.2101L15.8708 28.2859L15.8846 28.3611L15.8991 28.4363L15.9144 28.5113L15.9304 28.5859L15.9472 28.6603L15.9647 28.7343L15.9831 28.8083L16.0021 28.8817L16.0219 28.9551L16.0423 29.0279L16.0636 29.1008L16.0855 29.173L16.1082 29.2452L16.1316 29.3168L16.1557 29.3883L16.1805 29.4593L16.206 29.5299L16.2323 29.6004L16.2592 29.6704L16.2868 29.7399L16.3151 29.8093L16.3441 29.8783L16.3738 29.9467L16.4041 30.0149L16.435 30.0825L16.4667 30.1499L16.499 30.2169L16.532 30.2834L16.5656 30.3495L16.5997 30.4151L16.6348 30.4805L16.6701 30.5452L16.7063 30.6095L16.743 30.6735L16.7805 30.7369L16.8185 30.8L16.857 30.8626L16.8962 30.9245L16.936 30.9862L16.9763 31.0474L17.0172 31.1079L17.0588 31.1681L17.1008 31.2278L17.1435 31.2871L17.1866 31.3455L17.2303 31.4038L17.2746 31.4614L17.3193 31.5184L17.3648 31.5751L17.4106 31.6311L17.457 31.6865L17.5039 31.7415L17.5513 31.796L17.5991 31.8498L17.6476 31.9032L17.6964 31.956L17.7457 32.0082L17.7958 32.0599L17.8459 32.1108L17.8967 32.1615L17.9479 32.2114L17.9994 32.2607L18.0516 32.3095L18.1041 32.3577L18.1571 32.4053L18.2104 32.4523L18.2642 32.4987L18.3185 32.5446L18.373 32.5897L18.428 32.6343L18.4833 32.6784L18.539 32.7217L18.5952 32.7645L18.6517 32.8067L18.7084 32.8481L18.7656 32.889L18.8232 32.9294L18.881 32.969L18.9392 33.008L18.9977 33.0464L19.0565 33.0842L19.1156 33.1213L19.1749 33.1577L19.2346 33.1935L19.2948 33.2288L19.355 33.2632L19.4155 33.2972L19.4764 33.3305L19.5373 33.363L19.5985 33.3949L19.6603 33.4263L19.722 33.4569L19.7839 33.4868L19.8461 33.5161L19.9087 33.5448L19.9711 33.5727L20.0341 33.6L20.0971 33.6267L20.1602 33.6526L20.2237 33.678L20.2873 33.7027L20.3509 33.7267L20.4148 33.7501L20.4788 33.7726L20.5431 33.7946L20.6072 33.816L20.6718 33.8367L20.7361 33.8566L20.8007 33.8759L20.8655 33.8946L20.9304 33.9126L20.9952 33.9298L21.0602 33.9465L21.1254 33.9624L21.1905 33.9778L21.2556 33.9923L21.3209 34.0064L21.3861 34.0196L21.4514 34.0322L21.5168 34.0442L21.5822 34.0554L21.6475 34.0661L21.7129 34.076L21.7783 34.0854L21.8438 34.094L21.9092 34.102L21.9743 34.1093L22.0397 34.1159L22.105 34.1219L22.1703 34.1273L22.2355 34.1319L22.3008 34.136L22.3658 34.1394L22.4308 34.1421L22.4958 34.1442L22.5606 34.1456L22.6253 34.1464L22.6902 34.1465L22.7546 34.146L22.819 34.1449L22.8834 34.1431L22.9476 34.1407L23.0119 34.1376L23.0759 34.134L23.1395 34.1297L23.2032 34.1248L23.2669 34.1192L23.3301 34.113L23.3934 34.1063L23.4563 34.0989L23.5192 34.0909L23.5819 34.0822L23.6442 34.073L23.7066 34.0632L23.7686 34.0527L23.8303 34.0417L23.8922 34.0301L23.9535 34.0178L24.0146 34.005L24.0756 33.9916L24.1364 33.9776L24.1967 33.9631L24.2568 33.948L24.3168 33.9322L24.3766 33.9159L24.4359 33.8992L24.495 33.8818L24.5538 33.8639L24.6126 33.8453L24.6708 33.8263L24.7285 33.8067L24.7865 33.7864L24.8437 33.7658L24.9008 33.7447L24.9575 33.7229L25.0138 33.7006L25.07 33.6778L25.1258 33.6545L25.1811 33.6306L25.2361 33.6064L25.2909 33.5815L25.3454 33.5561L25.3992 33.5303L25.453 33.504L25.5062 33.4772L25.559 33.4499L25.6116 33.4222L25.6636 33.394L25.7154 33.3653L25.7668 33.336L25.8178 33.3064L25.8683 33.2764L25.9185 33.2458L25.9683 33.2148L26.0175 33.1834L26.0664 33.1515L26.115 33.1192L26.163 33.0866L26.2108 33.0534L26.258 33.02L26.3048 32.9859L26.3512 32.9516L26.397 32.9169L26.4425 32.8817L26.4875 32.8462L26.532 32.8102L26.5761 32.7739L26.6199 32.7372L26.663 32.7003L26.7058 32.6629L26.7479 32.6251L26.7897 32.587L26.8311 32.5486L26.8719 32.5097L26.9123 32.4706L26.952 32.4312L26.9914 32.3914L27.0303 32.3513L27.0688 32.3109L27.1067 32.2702L27.144 32.2291L27.1809 32.1879L27.2174 32.1462L27.2532 32.1045L27.2887 32.0622L27.3235 32.0197L27.3578 31.9771L27.3919 31.934L27.425 31.8909L27.458 31.8474L27.4904 31.8037L27.5221 31.7598L27.5534 31.7155L27.5841 31.6712L27.6143 31.6264L27.6441 31.5815L27.6733 31.5366L27.7019 31.4912L27.7301 31.4458L27.7576 31.4001L27.7847 31.3543L27.8112 31.3083L27.8372 31.262L27.8627 31.2157L27.8876 31.1691L27.912 31.1225L27.9359 31.0755L27.9591 31.0286L27.9819 30.9815L28.0042 30.9342L28.0259 30.8868L28.0471 30.8391L28.0677 30.7916L28.0877 30.7438L28.1072 30.6961L28.1263 30.648L28.1447 30.6001L28.1627 30.5517L28.18 30.5037L28.1969 30.4551L28.213 30.4072L28.2289 30.3585L28.2441 30.3099L28.2587 30.2615L28.2728 30.2128L28.2864 30.1643L28.2996 30.1153L28.3119 30.067L28.3241 30.0178L28.3354 29.9695L28.3464 29.9205L28.3567 29.8715L28.3665 29.8229L28.3758 29.7744L28.3846 29.7253L28.3928 29.6767L28.4005 29.6277L28.4077 29.5792L28.4144 29.5306L28.4205 29.4818L28.4261 29.4331L28.4311 29.3845L28.4357 29.3361L28.4398 29.2878L28.4432 29.2391L28.4463 29.1909L28.4488 29.1425L28.4507 29.0943L28.4522 29.0463L28.4531 28.9983L28.4535 28.9506L28.4535 28.9025L28.453 28.8546L28.4519 28.8071L28.4503 28.7597L28.4483 28.7123L28.4457 28.6651L28.4426 28.6177L28.439 28.5712L28.435 28.5236L28.4305 28.4774L28.4255 28.4309L28.42 28.3841L28.414 28.3378L28.4077 28.292L28.4006 28.2456L28.3933 28.2002L28.3854 28.1544L28.3772 28.1093L28.3683 28.0638L28.3591 28.0186L28.3494 27.9739L28.3393 27.9293L28.3287 27.8846L28.3176 27.8405L28.3062 27.7964L28.2942 27.7526L28.282 27.7092L28.269 27.6654L28.256 27.6226L28.2422 27.5793L28.2282 27.5368L28.2137 27.4943L28.1988 27.4521L28.1834 27.4101L28.1676 27.3682L28.1516 27.327L28.1351 27.2858L28.1181 27.2446L28.1007 27.2041L28.083 27.1633L28.065 27.1236L28.0463 27.0834L28.0276 27.0439L28.0083 27.0047L27.9887 26.9656L27.9687 26.9269L27.9484 26.8884L27.9277 26.8502L27.9066 26.8124L27.8851 26.7748L27.8635 26.7376L27.8413 26.7006L27.8188 26.6639L27.7961 26.6276L27.773 26.5916L27.7495 26.5558L27.7257 26.5206L27.7016 26.4856L27.6772 26.4508L27.6525 26.4163L27.6276 26.3824L27.6022 26.3486L27.5766 26.3152L27.5507 26.2822L27.5244 26.2495L27.4981 26.2172L27.4712 26.1851L27.4442 26.1535L27.4169 26.1222L27.3894 26.0912L27.3615 26.0605L27.3335 26.0303L27.3051 26.0004L27.2765 25.9709L27.2477 25.9416L27.2187 25.9129L27.1893 25.8845L27.1597 25.8563L27.1301 25.8287L27.1001 25.8014L27.07 25.7745L27.0393 25.7478L27.0089 25.7216L26.9781 25.6957L26.9471 25.6703L26.9158 25.6452L26.8844 25.6206L26.8528 25.5962L26.8212 25.5723L26.7892 25.5487L26.7571 25.5255L26.7249 25.5028L26.6925 25.4803L26.6598 25.4583L26.6272 25.4368L26.5943 25.4154L26.5614 25.3946L26.5282 25.3742L26.4948 25.3541L26.4616 25.3344L26.4279 25.3151L26.3943 25.2962L26.3607 25.2777L26.3268 25.2596L26.2927 25.2419L26.2587 25.2246L26.2246 25.2076L26.1903 25.191L26.1562 25.1749L26.1215 25.159L26.0872 25.1437L26.0526 25.1288L26.018 25.1142L25.9833 25.1L25.9484 25.0861L25.9139 25.0728L25.8789 25.0598L25.8439 25.0471L25.8091 25.0349L25.7741 25.023L25.7392 25.0116L25.7041 25.0005L25.6691 24.9897L25.6342 24.9795L25.5991 24.9695L25.5639 24.96L25.5291 24.9509L25.4937 24.9421L25.4589 24.9338L25.4238 24.9258L25.3887 24.9181L25.3536 24.9109L25.3187 24.904L25.2837 24.8975L25.2487 24.8914L25.2139 24.8856L25.1791 24.8803L25.1441 24.8753L25.1096 24.8707L25.0746 24.8664L25.0402 24.8625L25.0054 24.8589L24.9709 24.8558L24.9366 24.853L24.9021 24.8506L24.8678 24.8485L24.8336 24.8467L24.7994 24.8454L24.7653 24.8443L24.7313 24.8437L24.6976 24.8434L24.6637 24.8434L24.6301 24.8438L24.5964 24.8445L24.563 24.8456L24.5296 24.847L24.4964 24.8487L24.4632 24.8508L24.4304 24.8532L24.3974 24.856L24.3648 24.859L24.3322 24.8623L24.2997 24.8661L24.2675 24.8701L24.2352 24.8744L24.2033 24.8791L24.1714 24.8841L24.1398 24.8894L24.1081 24.895L24.0768 24.9009L24.0455 24.9071L24.0147 24.9136L23.9836 24.9205L23.953 24.9275L23.9224 24.9349L23.8922 24.9426Z" fill="white"/>
</svg>
