<svg width="211" height="44" viewBox="0 0 211 44" fill="none" xmlns="http://www.w3.org/2000/svg">
<path d="M15.4014 37.365C11.4737 41.4986 4.654 41.6493 2.61809 36.3179C2.21949 35.2741 1.8949 34.1988 1.64863 33.0995C0.643112 28.6108 0.988288 23.9245 2.64051 19.6328C4.29273 15.3412 7.17778 11.637 10.9308 8.98881C14.684 6.34058 19.1365 4.86721 23.7253 4.75502C28.3142 4.64283 32.8334 5.89686 36.7113 8.35852C40.5894 10.8202 43.652 14.3789 45.512 18.5848C47.3719 22.7905 47.9456 27.4544 47.1607 31.9868C46.9685 33.0968 46.6968 34.1867 46.3496 35.2488C44.5767 40.6732 37.7579 40.856 33.6327 36.9193L27.2651 30.8425C26.6567 30.2619 26.6941 29.279 26.8377 28.4496C26.9249 27.9455 26.8611 27.4266 26.6542 26.9587C26.4473 26.4908 26.1066 26.0949 25.6752 25.8211C25.2438 25.5473 24.7411 25.4077 24.2306 25.4202C23.7201 25.4327 23.2248 25.5966 22.8073 25.8912C22.3896 26.1857 22.0687 26.5979 21.8849 27.0753C21.7011 27.5528 21.6627 28.0741 21.7746 28.5734C21.9586 29.3947 22.0438 30.3747 21.4646 30.9843L15.4014 37.365Z" fill="white"/>
<path d="M66.4604 30.531L72.697 30.3785L72.7871 34.0617L61.7894 34.3305L61.3105 14.7432L66.0716 14.6268L66.4604 30.531Z" fill="white"/>
<path d="M81.2988 34.0767C79.7768 34.1139 78.3952 33.822 77.1542 33.2009C75.9319 32.5793 74.9532 31.6726 74.2183 30.4807C73.502 29.2884 73.124 27.8831 73.0844 26.2647C73.0453 24.6651 73.3636 23.252 74.0394 22.0256C74.7148 20.7807 75.657 19.8177 76.8661 19.1367C78.0753 18.4557 79.4409 18.0966 80.9629 18.0594C82.485 18.0222 83.8665 18.3142 85.1074 18.9353C86.3484 19.5563 87.3365 20.4721 88.0719 21.6825C88.8068 22.8744 89.1938 24.2703 89.233 25.8699C89.2721 27.4697 88.9446 28.8922 88.2508 30.1377C87.575 31.364 86.6233 32.3179 85.3955 32.9994C84.1864 33.6804 82.8208 34.0395 81.2988 34.0767ZM81.1978 29.9471C82.1073 29.9248 82.8694 29.5713 83.4842 28.8862C84.1175 28.2006 84.4189 27.2348 84.3884 25.9883C84.358 24.7421 84.0189 23.7919 83.3715 23.1376C82.7426 22.4829 81.9734 22.1667 81.0639 22.1889C80.1358 22.2116 79.3737 22.5653 78.7775 23.2499C78.1808 23.916 77.898 24.8814 77.929 26.1463C77.9594 27.3927 78.2799 28.3433 78.8902 28.9985C79.5192 29.6532 80.2884 29.9693 81.1978 29.9471Z" fill="white"/>
<path d="M96.6304 17.6763C97.7255 17.6495 98.687 17.8494 99.5146 18.2759C100.361 18.7018 101.015 19.2722 101.479 19.9866L101.425 17.7824L106.186 17.6661L106.566 33.2075C106.601 34.6398 106.345 35.9398 105.797 37.107C105.269 38.2926 104.429 39.2438 103.276 39.9605C102.142 40.677 100.712 41.0564 98.9861 41.0986C96.6844 41.1548 94.8055 40.6517 93.3494 39.5891C91.8939 38.5451 91.0412 37.0956 90.7916 35.2404L95.4969 35.1254C95.6599 35.717 96.024 36.1734 96.5891 36.4947C97.1545 36.8344 97.8457 36.9944 98.6624 36.9744C99.6461 36.9503 100.419 36.6429 100.98 36.0523C101.56 35.4797 101.835 34.5703 101.805 33.3239L101.751 31.1197C101.305 31.8564 100.679 32.4674 99.8734 32.9524C99.0676 33.4188 98.1171 33.6654 97.0219 33.6922C95.7413 33.7235 94.5732 33.4263 93.5178 32.8007C92.462 32.1564 91.613 31.2372 90.971 30.0431C90.3471 28.83 90.0155 27.4236 89.9763 25.8238C89.9372 24.224 90.1999 22.8124 90.7643 21.5888C91.3472 20.3647 92.1505 19.4144 93.174 18.7379C94.1975 18.0615 95.3497 17.7076 96.6304 17.6763ZM101.615 25.5671C101.586 24.3766 101.229 23.4454 100.544 22.7735C99.8774 22.1012 99.0708 21.7766 98.1242 21.7997C97.1775 21.8229 96.3785 22.1868 95.7271 22.8913C95.0938 23.5769 94.7918 24.5149 94.8209 25.7053C94.85 26.8958 95.198 27.8366 95.8649 28.5276C96.55 29.1994 97.3658 29.5239 98.3125 29.5007C99.259 29.4776 100.049 29.1139 100.682 28.4098C101.333 27.7051 101.644 26.7577 101.615 25.5671Z" fill="white"/>
<path d="M116.252 33.2222C114.73 33.2594 113.348 32.9675 112.107 32.3464C110.885 31.7248 109.906 30.8181 109.171 29.6263C108.455 28.4339 108.077 27.0286 108.038 25.4102C107.998 23.8106 108.317 22.3975 108.993 21.1711C109.668 19.9262 110.61 18.9632 111.819 18.2822C113.028 17.6013 114.394 17.2422 115.916 17.2049C117.438 17.1677 118.82 17.4597 120.061 18.0808C121.302 18.7019 122.29 19.6177 123.025 20.828C123.76 22.0199 124.147 23.4158 124.186 25.0154C124.225 26.6152 123.898 28.0377 123.204 29.2832C122.528 30.5095 121.576 31.4634 120.349 32.1449C119.14 32.8259 117.774 33.185 116.252 33.2222ZM116.151 29.0926C117.06 29.0703 117.823 28.7168 118.437 28.0317C119.071 27.3461 119.372 26.3803 119.342 25.1339C119.311 23.8876 118.972 22.9374 118.325 22.2831C117.696 21.6284 116.926 21.3122 116.017 21.3344C115.089 21.3571 114.327 21.7108 113.731 22.3954C113.134 23.0615 112.851 24.0269 112.882 25.2918C112.913 26.5382 113.233 27.4888 113.843 28.144C114.472 28.7987 115.241 29.1148 116.151 29.0926Z" fill="white"/>
<path d="M128.04 15.5124C127.205 15.5328 126.512 15.3078 125.962 14.8373C125.43 14.3478 125.155 13.7403 125.138 13.0148C125.119 12.2708 125.364 11.6506 125.872 11.1542C126.398 10.6388 127.079 10.3709 127.914 10.3505C128.731 10.3305 129.405 10.5653 129.937 11.0548C130.487 11.5253 130.771 12.1326 130.79 12.8767C130.807 13.6021 130.553 14.2225 130.027 14.7379C129.519 15.2343 128.857 15.4924 128.04 15.5124ZM130.446 17.0729L130.827 32.6423L126.066 32.7587L125.685 17.1893L130.446 17.0729Z" fill="white"/>
<path d="M137.877 19.0972C138.323 18.3605 138.949 17.7588 139.755 17.2925C140.561 16.826 141.512 16.5794 142.607 16.5527C143.888 16.5213 145.055 16.8185 146.111 17.4441C147.166 18.0698 148.006 18.9799 148.629 20.1745C149.271 21.3686 149.612 22.7655 149.651 24.3652C149.691 25.965 149.418 27.3862 148.836 28.6288C148.272 29.8524 147.478 30.8118 146.454 31.5069C145.431 32.1834 144.279 32.5372 142.998 32.5685C141.921 32.5949 140.961 32.395 140.114 31.969C139.286 31.5425 138.631 30.9816 138.15 30.286L138.385 39.8844L133.624 40.0008L133.062 17.0094L137.823 16.893L137.877 19.0972ZM144.807 24.4837C144.778 23.2932 144.421 22.3713 143.735 21.718C143.069 21.0457 142.254 20.7212 141.288 20.7448C140.342 20.7679 139.543 21.1319 138.891 21.8364C138.259 22.5405 137.957 23.4878 137.986 24.6783C138.015 25.8689 138.363 26.8002 139.029 27.4727C139.714 28.1445 140.53 28.4689 141.477 28.4458C142.423 28.4227 143.223 28.0588 143.873 27.3542C144.525 26.631 144.836 25.6741 144.807 24.4837Z" fill="white"/>
<path d="M157.831 32.2062C156.475 32.2393 155.263 32.0363 154.193 31.5972C153.125 31.1579 152.273 30.5459 151.641 29.761C151.009 28.9575 150.643 28.0544 150.544 27.0517L155.25 26.9367C155.319 27.4748 155.58 27.9058 156.033 28.2297C156.488 28.5537 157.039 28.7077 157.689 28.6918C158.283 28.6773 158.734 28.5546 159.044 28.3236C159.373 28.0737 159.532 27.7626 159.523 27.3906C159.512 26.9442 159.273 26.6243 158.804 26.4311C158.334 26.2192 157.576 25.9958 156.53 25.7607C155.41 25.5276 154.476 25.2805 153.726 25.0197C152.977 24.7402 152.326 24.3001 151.773 23.6994C151.218 23.0802 150.929 22.2403 150.903 21.1801C150.881 20.2872 151.103 19.4721 151.568 18.7348C152.05 17.9786 152.759 17.3749 153.695 16.9239C154.65 16.4725 155.787 16.2307 157.105 16.1985C159.053 16.1508 160.596 16.597 161.734 17.537C162.89 18.4767 163.571 19.7442 163.778 21.3399L159.378 21.4475C159.291 20.9099 159.039 20.488 158.623 20.1816C158.225 19.8749 157.702 19.7295 157.052 19.7454C156.495 19.759 156.071 19.8811 155.78 20.1116C155.488 20.3234 155.347 20.6154 155.356 20.9874C155.367 21.4339 155.607 21.763 156.076 21.9749C156.564 22.1864 157.311 22.3915 158.32 22.59C159.477 22.8596 160.422 23.1344 161.153 23.4142C161.884 23.6755 162.526 24.1251 163.08 24.7631C163.653 25.3819 163.962 26.2305 164.007 27.309C164.03 28.2204 163.789 29.0452 163.287 29.7835C162.804 30.5025 162.084 31.0785 161.128 31.5113C160.192 31.9437 159.093 32.1753 157.831 32.2062Z" fill="white"/>
<path d="M181.156 15.8334L181.537 31.4029L176.776 31.5193L176.724 29.3987C176.258 30.0987 175.612 30.6729 174.788 31.1211C173.981 31.5504 173.077 31.7772 172.074 31.8017C170.886 31.8308 169.831 31.596 168.909 31.0973C167.986 30.5802 167.262 29.8254 166.737 28.8333C166.211 27.841 165.931 26.666 165.898 25.308L165.676 16.2119L170.409 16.0962L170.615 24.5505C170.641 25.5922 170.93 26.3948 171.482 26.9583C172.034 27.5218 172.765 27.7924 173.676 27.7702C174.603 27.7475 175.33 27.4412 175.854 26.8515C176.378 26.2616 176.627 25.4459 176.602 24.4042L176.395 15.9498L181.156 15.8334Z" fill="white"/>
<path d="M203.56 15.1179C205.489 15.0707 207.035 15.6192 208.197 16.7634C209.376 17.9071 209.991 19.5207 210.042 21.604L210.264 30.7002L205.532 30.8159L205.325 22.3616C205.3 21.3571 205.012 20.5917 204.461 20.0654C203.927 19.5201 203.197 19.2587 202.268 19.2814C201.34 19.3041 200.614 19.6011 200.089 20.1723C199.583 20.7244 199.342 21.5027 199.367 22.5073L199.573 30.9616L194.839 31.0774L194.632 22.623C194.608 21.6185 194.321 20.8531 193.77 20.3268C193.235 19.7814 192.505 19.5201 191.577 19.5428C190.649 19.5655 189.923 19.8624 189.398 20.4337C188.891 20.9858 188.651 21.7641 188.675 22.7687L188.882 31.223L184.121 31.3394L183.74 15.77L188.501 15.6536L188.549 17.6067C189.016 16.9438 189.635 16.4168 190.405 16.0258C191.175 15.6161 192.052 15.3992 193.035 15.3752C194.205 15.3466 195.251 15.5722 196.172 16.0523C197.112 16.5319 197.853 17.2304 198.397 18.1477C198.914 17.2788 199.63 16.5633 200.545 16.0012C201.459 15.4391 202.465 15.1447 203.56 15.1179Z" fill="white"/>
</svg>
