<svg width="70" height="70" viewBox="0 0 70 70" fill="none" xmlns="http://www.w3.org/2000/svg">
<circle cx="35" cy="35" r="35" fill="#FDE03B"/>
<path d="M43.9142 33.9707C44.1892 33.9374 44.4496 33.9332 44.6913 33.9707C44.8288 33.6499 44.8538 33.0978 44.7309 32.4957C44.5434 31.602 44.2913 31.0624 43.7705 31.1499C43.2475 31.2332 43.2267 31.879 43.4163 32.7728C43.5205 33.2728 43.708 33.702 43.9142 33.9707ZM39.4371 34.677C39.8121 34.8395 40.0413 34.9457 40.1267 34.8561C40.1871 34.7978 40.1705 34.6811 40.0809 34.5353C39.8398 34.19 39.5041 33.9216 39.1142 33.7624C38.6976 33.5889 38.2433 33.5257 37.7952 33.579C37.347 33.6323 36.9202 33.8002 36.5559 34.0665C36.308 34.2499 36.0725 34.502 36.1017 34.6561C36.1163 34.704 36.1496 34.7436 36.2371 34.7603C36.4434 34.7832 37.1621 34.4186 37.9934 34.3686C38.5809 34.327 39.0621 34.5103 39.4371 34.677ZM38.685 35.104C38.2017 35.1811 37.933 35.3395 37.7621 35.4936C37.6142 35.6228 37.5267 35.7603 37.5267 35.8624L37.5642 35.9499L37.6413 35.979C37.7517 35.979 37.9975 35.8832 37.9975 35.8832C38.6725 35.6436 39.1205 35.6707 39.5642 35.7207C39.808 35.7499 39.9225 35.7624 39.9767 35.679C39.9913 35.654 40.0142 35.6061 39.9621 35.5249C39.8455 35.3353 39.3559 35.0249 38.685 35.104ZM42.4017 36.679C42.733 36.8415 43.0955 36.7749 43.2142 36.5353C43.3371 36.2957 43.1642 35.9686 42.833 35.8082C42.5038 35.6436 42.1392 35.7061 42.0205 35.9457C41.9017 36.1853 42.0746 36.5165 42.4017 36.679ZM44.5225 34.8228C44.2559 34.8186 44.035 35.1103 44.0267 35.4811C44.0205 35.8499 44.2351 36.1499 44.5038 36.152C44.7726 36.1561 44.9934 35.8624 44.9996 35.4957C45.0059 35.129 44.7934 34.829 44.5225 34.8228ZM26.5142 41.454C26.4475 41.3707 26.3371 41.3936 26.2309 41.4228C26.1559 41.4374 26.0725 41.4582 25.983 41.4561C25.8932 41.4579 25.8043 41.4378 25.7241 41.3975C25.6439 41.3572 25.5747 41.298 25.5225 41.2249C25.3996 41.0374 25.4059 40.7561 25.5434 40.4374L25.6059 40.2936C25.8225 39.8124 26.1788 39.004 25.7767 38.2353C25.6453 37.9639 25.4489 37.7292 25.2051 37.5519C24.9612 37.3745 24.6774 37.2601 24.3788 37.2186C24.0964 37.1825 23.8096 37.2142 23.5418 37.3109C23.2741 37.4076 23.0333 37.5667 22.8392 37.7749C22.2475 38.427 22.158 39.3186 22.2705 39.6353C22.3142 39.752 22.3809 39.7832 22.4267 39.7895C22.5267 39.804 22.6746 39.729 22.7684 39.477L22.7975 39.3978C22.8392 39.2645 22.9163 39.0145 23.0434 38.8186C23.2 38.5791 23.4454 38.4116 23.7255 38.353C24.0057 38.2944 24.2976 38.3495 24.5371 38.5061C24.9538 38.779 25.11 39.2874 24.933 39.7728C24.8413 40.0249 24.6934 40.504 24.7246 40.8978C24.7913 41.6957 25.2871 42.0165 25.7246 42.0561C26.1538 42.0707 26.4538 41.8311 26.5309 41.654C26.5746 41.5436 26.5371 41.479 26.5142 41.454Z" fill="black"/>
<path d="M51.2933 39.9936C51.2745 39.9332 51.1662 39.5436 51.0224 39.077L50.7224 38.277C51.3079 37.3957 51.3183 36.6124 51.2412 36.1666C51.1533 35.593 50.8813 35.0636 50.4662 34.6582C50.0037 34.1749 49.0558 33.6749 47.7266 33.302L47.0287 33.1082C47.0245 33.077 46.9912 31.4624 46.9641 30.7686C46.9412 30.2686 46.8995 29.4853 46.6558 28.7145C46.3641 27.6686 45.862 26.7603 45.2308 26.1707C46.9703 24.3707 48.0537 22.3853 48.0516 20.6832C48.0453 17.4103 44.0245 16.4145 39.0683 18.4686L38.0203 18.9145C38.0162 18.9103 36.1224 17.052 36.0953 17.029C30.4412 12.0999 12.7787 31.7374 18.4287 36.5061L19.6641 37.5499C19.3304 38.4438 19.2119 39.4037 19.3183 40.352C19.4537 41.6666 20.1287 42.9228 21.2245 43.8957C22.2662 44.8166 23.6391 45.4041 24.9662 45.402C27.1641 50.4686 32.1849 53.5728 38.0724 53.7499C44.3891 53.9374 49.6891 50.9728 51.9141 45.6478C52.0578 45.2749 52.6745 43.5916 52.6745 42.1061C52.6724 40.6103 51.8287 39.9916 51.2933 39.9936ZM25.4495 43.977C25.2571 44.0114 25.0616 44.026 24.8662 44.0207C22.9578 43.9666 20.8974 42.2499 20.6933 40.2145C20.4662 37.9645 21.6162 36.2311 23.6537 35.8228C23.8953 35.7707 24.1912 35.7436 24.5078 35.7582C25.6495 35.8249 27.3287 36.6999 27.7141 39.1853C28.0558 41.3832 27.5141 43.627 25.4495 43.977ZM23.3224 34.4728C22.0838 34.7017 20.983 35.4042 20.2537 36.4311C19.8433 36.0895 19.0828 35.4311 18.9495 35.1728C17.8578 33.102 20.1391 29.0728 21.7349 26.7978C25.6703 21.177 31.8412 16.9249 34.6995 17.6915C35.162 17.8249 36.6995 19.6103 36.6995 19.6103C36.6995 19.6103 33.8453 21.1915 31.1953 23.3999C27.6308 26.1499 24.9328 30.1415 23.3224 34.4728ZM43.3453 43.1353C43.3669 43.1263 43.3847 43.1103 43.396 43.0899C43.4074 43.0695 43.4115 43.0458 43.4078 43.0228C43.4066 43.0089 43.4025 42.9954 43.3959 42.9831C43.3893 42.9708 43.3803 42.96 43.3694 42.9512C43.3585 42.9425 43.346 42.936 43.3325 42.9322C43.3191 42.9284 43.305 42.9273 43.2912 42.9291C43.2912 42.9291 40.3037 43.3707 37.4808 42.3395C37.787 41.3416 38.6078 41.6978 39.8433 41.7999C41.7637 41.9132 43.6895 41.7048 45.5412 41.1832C46.8183 40.8145 48.4974 40.0916 49.8016 39.0624C50.2433 40.0311 50.3974 41.0936 50.3974 41.0936C50.3974 41.0936 50.737 41.0332 51.0224 41.2082C51.2933 41.3749 51.4891 41.7186 51.3558 42.6061C51.0787 44.2686 50.3745 45.6166 49.1849 46.8582C48.4447 47.6615 47.5626 48.3211 46.5828 48.8041C46.0385 49.0908 45.4713 49.3319 44.887 49.5249C40.4099 50.9853 35.8266 49.3791 34.3495 45.927C34.2305 45.6626 34.1316 45.3896 34.0537 45.1103C33.4245 42.8353 33.9578 40.1103 35.6266 38.3895C35.7328 38.2811 35.8391 38.152 35.8391 37.9895C35.8391 37.8561 35.7516 37.7124 35.6787 37.6082C35.0953 36.7624 33.0683 35.3186 33.4766 32.5249C33.7662 30.5165 35.5224 29.104 37.1599 29.1874L37.5766 29.2124C38.2849 29.254 38.9037 29.3436 39.487 29.3707C40.4662 29.4103 41.3433 29.2686 42.3849 28.402C42.737 28.1061 43.0183 27.854 43.4933 27.7749C43.5433 27.7624 43.6683 27.7228 43.9162 27.7311C44.1704 27.7414 44.4172 27.8198 44.6308 27.9582C45.4641 28.5124 45.5828 29.8582 45.6287 30.8436C45.6537 31.404 45.7224 32.7645 45.7433 33.152C45.7974 34.0436 46.0328 34.1707 46.5037 34.3249C46.7724 34.4165 47.0203 34.479 47.3849 34.5853C48.487 34.8916 49.1454 35.2103 49.5579 35.6124C49.7716 35.8195 49.9096 36.0924 49.9495 36.3874C50.0849 37.3395 49.2141 38.5145 46.9183 39.5811C44.4058 40.7457 41.3578 41.0416 39.2537 40.8061L38.5162 40.7228C36.8287 40.4978 35.8724 42.6728 36.8828 44.1624C37.5349 45.1228 39.3078 45.7478 41.0849 45.7478C45.1537 45.752 48.2829 44.0145 49.4495 42.5103L49.5412 42.3791C49.5953 42.2916 49.5516 42.2478 49.4787 42.2936C48.5308 42.9436 44.3058 45.527 39.7891 44.752C39.7891 44.752 39.2391 44.6603 38.7391 44.4645C38.3433 44.3145 37.5078 43.927 37.4078 43.0728C41.0474 44.2041 43.3453 43.1374 43.3453 43.1353ZM30.5953 26.777C31.9953 25.1603 33.7183 23.752 35.2641 22.9645C35.3162 22.9353 35.3724 22.9957 35.3433 23.0436C35.1537 23.3762 35.008 23.7319 34.9099 24.102C34.8974 24.1582 34.9578 24.204 35.0058 24.1686C35.9683 23.5145 37.6391 22.8124 39.1058 22.7249C39.12 22.7224 39.1347 22.725 39.1473 22.7322C39.1599 22.7393 39.1696 22.7506 39.1748 22.7642C39.1799 22.7777 39.1802 22.7926 39.1756 22.8063C39.171 22.8201 39.1618 22.8318 39.1495 22.8395C38.9065 23.0259 38.6893 23.2438 38.5037 23.4874C38.4745 23.529 38.5016 23.5895 38.5537 23.5895C39.5828 23.5957 41.0349 23.954 41.9787 24.4853C42.0412 24.5228 41.9953 24.6457 41.9266 24.629C40.4933 24.302 38.1537 24.052 35.7203 24.6457C33.5453 25.1749 31.887 25.9915 30.6808 26.8728C30.6183 26.9145 30.5453 26.8332 30.5953 26.777Z" fill="black"/>
</svg>
