<svg width="70" height="70" viewBox="0 0 70 70" fill="none" xmlns="http://www.w3.org/2000/svg">
<circle cx="35" cy="35" r="35" fill="#9ABF51"/>
<path d="M41.9542 19.1561C41.9781 19.1728 42.0004 19.1916 42.0208 19.2123L44.4792 21.6519L47.8125 21.9019C47.9646 21.9144 48.1458 22.029 48.175 22.2373L52.7 52.8478L39.8917 55.6186L16.25 51.1894C16.25 51.1894 19.2833 27.7269 19.3979 26.8957C19.55 25.804 19.5875 25.7686 20.7479 25.404L24.4896 24.2436C25.2896 20.8498 27.8437 14.1665 33.1875 14.1665C33.8854 14.1665 34.6937 14.5415 35.3479 15.404L35.5417 15.3978C37.8354 15.3978 39.1396 17.354 39.8792 19.4811L41.1187 19.0978C41.2854 19.0478 41.6979 18.9811 41.9521 19.1561H41.9542ZM35.5437 28.979C35.5437 28.979 34.475 28.3603 32.3146 28.3603C26.7062 28.3603 23.9271 32.1061 23.9271 35.9769C23.9271 40.5769 28.5167 40.7019 28.5167 43.4998C28.5167 44.1769 28.0375 45.104 26.8604 45.104C25.0604 45.104 22.9271 43.2707 22.9271 43.2707L21.8417 46.8623C21.8417 46.8623 23.9167 49.3873 27.975 49.3873C31.3562 49.3873 33.8646 46.8415 33.8646 42.8873C33.8646 37.8603 28.2708 37.0394 28.2708 34.8936C28.2708 34.4978 28.3958 32.9394 30.8833 32.9394C31.9514 32.9561 33.0027 33.2079 33.9625 33.6769L35.5437 28.979ZM38.575 19.8832C38.0687 18.3353 37.2813 16.9894 36.0979 16.8415C36.3917 17.6853 36.5771 18.7498 36.5771 20.0707L36.575 20.504L38.575 19.8832ZM34.6312 17.104C33.3271 17.6623 31.8354 19.1457 31.0417 22.2165L35.1729 20.9373V20.7061C35.1729 19.1103 34.9604 17.929 34.6312 17.104ZM33.0437 15.5998C29.2021 15.5998 27.0458 20.6415 26.1375 23.7353L29.4021 22.7228C30.1792 18.6686 32.0146 16.6394 33.7292 15.8332C33.5288 15.6882 33.2889 15.6083 33.0417 15.604L33.0437 15.5998Z" fill="white"/>
</svg>
