<svg width="90" height="91" viewBox="0 0 90 91" fill="none" xmlns="http://www.w3.org/2000/svg">
<g clip-path="url(#clip0_4317_733)">
<path d="M18.9294 56.7163C18.9294 61.9307 14.7152 66.1452 9.50081 66.1452C4.28644 66.1452 0.0722656 61.9307 0.0722656 56.7163C0.0722656 51.5023 4.28644 47.2881 9.50116 47.2881H18.929V56.7166L18.9294 56.7163ZM23.6438 56.7163C23.6438 51.5023 27.858 47.2881 33.0724 47.2881C38.2867 47.2881 42.5009 51.5023 42.5009 56.7166V80.2878C42.5009 85.5022 38.2867 89.7167 33.072 89.7167C27.8583 89.7167 23.6438 85.5022 23.6438 80.2878V56.7163Z" fill="#E01E5A"/>
<path d="M33.0715 18.8595C27.8571 18.8595 23.6426 14.6454 23.6426 9.43099C23.6426 4.21662 27.8575 0.00244141 33.0715 0.00244141C38.2855 0.00244141 42.5 4.21662 42.5 9.43099V18.8599H33.0711L33.0715 18.8595ZM33.0715 23.6454C38.2858 23.6454 42.5 27.8595 42.5 33.0739C42.5 38.2883 38.2858 42.5025 33.0711 42.5025H9.4289C4.21418 42.5025 0 38.2883 0 33.0736C0 27.8599 4.21418 23.6454 9.42855 23.6454H33.0715Z" fill="#36C5F0"/>
<path d="M70.8567 33.0739C70.8567 27.8595 75.0709 23.645 80.2849 23.645C85.4993 23.645 89.7138 27.8595 89.7138 33.0739C89.7138 38.2883 85.4993 42.5025 80.2849 42.5025H70.8567V33.0739ZM66.1422 33.0739C66.1422 38.2883 61.9277 42.5025 56.7134 42.5025C51.4993 42.5025 47.2852 38.2883 47.2852 33.0736V9.43134C47.2852 4.21662 51.4993 0.00244141 56.7134 0.00244141C61.9274 0.00244141 66.1419 4.21662 66.1419 9.43099V33.0736L66.1422 33.0739Z" fill="#2EB67D"/>
<path d="M56.7134 70.8596C61.9277 70.8596 66.1423 75.0738 66.1423 80.2878C66.1423 85.5022 61.9277 89.7167 56.7134 89.7167C51.4993 89.7167 47.2852 85.5022 47.2852 80.2878V70.8596H56.7134ZM56.7134 66.1452C51.4993 66.1452 47.2852 61.9307 47.2852 56.7163C47.2852 51.5023 51.4993 47.2881 56.7137 47.2881H80.3563C85.5706 47.2881 89.7852 51.5023 89.7852 56.7166C89.7852 61.9307 85.5706 66.1452 80.3563 66.1452H56.7134Z" fill="#ECB22E"/>
</g>
<defs>
<clipPath id="clip0_4317_733">
<rect width="90" height="90" fill="white" transform="translate(0 0.00244141)"/>
</clipPath>
</defs>
</svg>
