<svg width="70" height="70" viewBox="0 0 70 70" fill="none" xmlns="http://www.w3.org/2000/svg">
<circle cx="35" cy="35" r="35" fill="#4F1852"/>
<g clip-path="url(#clip0_4281_510)">
<path d="M21.0942 41.2476C21.0942 44.0286 18.8467 46.2764 16.0657 46.2764C13.2847 46.2764 11.0371 44.0286 11.0371 41.2476C11.0371 38.4668 13.2847 36.2192 16.0659 36.2192H21.094V41.2478L21.0942 41.2476ZM23.6086 41.2476C23.6086 38.4668 25.8562 36.2192 28.6372 36.2192C31.4182 36.2192 33.6657 38.4668 33.6657 41.2478V53.8191C33.6657 56.6001 31.4182 58.8479 28.637 58.8479C25.8564 58.8479 23.6086 56.6001 23.6086 53.8191V41.2476Z" fill="#E01E5A"/>
<path d="M28.6381 21.0571C25.8571 21.0571 23.6094 18.8096 23.6094 16.0286C23.6094 13.2476 25.8573 11 28.6381 11C31.4189 11 33.6667 13.2476 33.6667 16.0286V21.0573H28.6379L28.6381 21.0571ZM28.6381 23.6096C31.4191 23.6096 33.6667 25.8571 33.6667 28.6381C33.6667 31.4191 31.4191 33.6667 28.6379 33.6667H16.0287C13.2476 33.6667 11 31.4191 11 28.6379C11 25.8573 13.2476 23.6096 16.0286 23.6096H28.6381Z" fill="#36C5F0"/>
<path d="M48.7903 28.6381C48.7903 25.8571 51.0378 23.6094 53.8186 23.6094C56.5996 23.6094 58.8474 25.8571 58.8474 28.6381C58.8474 31.4191 56.5996 33.6667 53.8186 33.6667H48.7903V28.6381ZM46.2759 28.6381C46.2759 31.4191 44.0281 33.6667 41.2471 33.6667C38.4663 33.6667 36.2188 31.4191 36.2188 28.6379V16.0287C36.2188 13.2476 38.4663 11 41.2471 11C44.0279 11 46.2757 13.2476 46.2757 16.0286V28.6379L46.2759 28.6381Z" fill="#2EB67D"/>
<path d="M41.2471 48.7907C44.0281 48.7907 46.2759 51.0383 46.2759 53.8191C46.2759 56.6001 44.0281 58.8479 41.2471 58.8479C38.4663 58.8479 36.2188 56.6001 36.2188 53.8191V48.7907H41.2471ZM41.2471 46.2764C38.4663 46.2764 36.2188 44.0286 36.2188 41.2476C36.2188 38.4668 38.4663 36.2192 41.2473 36.2192H53.8567C56.6377 36.2192 58.8854 38.4668 58.8854 41.2478C58.8854 44.0286 56.6377 46.2764 53.8567 46.2764H41.2471Z" fill="#ECB22E"/>
</g>
<defs>
<clipPath id="clip0_4281_510">
<rect width="48" height="48" fill="white" transform="translate(11 11)"/>
</clipPath>
</defs>
</svg>
