<svg width="70" height="70" viewBox="0 0 70 70" fill="none" xmlns="http://www.w3.org/2000/svg">
<circle cx="35" cy="35" r="35" fill="#F74C1D"/>
<g clip-path="url(#clip0_4281_531)">
<path d="M38.5 35.0047C38.5 36.0465 38.3075 37.0417 37.9622 37.9622C37.0169 38.3185 36.0149 38.5007 35.0047 38.5H34.9942C33.9844 38.5 32.9829 38.3178 32.0378 37.9622C31.6817 37.0168 31.4995 36.0149 31.5 35.0047V34.9942C31.5 33.9523 31.6913 32.9583 32.0378 32.0378C32.9828 31.6817 33.9843 31.4995 34.9942 31.5H35.0047C36.0465 31.5 37.044 31.6913 37.9622 32.039C38.3087 32.9583 38.5 33.9535 38.5 34.9965V35.0047ZM48.8075 32.6667H40.635L46.4077 26.8893C45.5005 25.6133 44.3865 24.4978 43.1118 23.5888L37.3322 29.3627V21.1925C36.5627 21.0666 35.7844 21.0022 35.0047 21H34.993C34.1997 21 33.4227 21.0712 32.6655 21.1925V29.365L26.8905 23.5912C25.6131 24.498 24.4971 25.6129 23.5888 26.8893L29.3627 32.6667H21.1925C21.1925 32.6667 21 34.202 21 34.9942V35.0047C21 35.798 21.0712 36.5773 21.1925 37.3322H29.365L23.5912 43.1095C24.4978 44.3871 25.6127 45.5032 26.8893 46.4112L32.6667 40.6362V48.8075C33.4345 48.9338 34.2113 48.9982 34.9895 49H35.0093C35.8015 49 36.5773 48.93 37.3322 48.8075V40.6362L43.1095 46.4112C43.7488 45.9737 44.3462 45.4638 44.8933 44.9062H44.8992C45.451 44.3637 45.9562 43.7675 46.4112 43.12L40.6362 37.3462H48.8075C48.93 36.5937 49 35.8248 49 35.0362V35C49 34.209 48.93 33.4332 48.8075 32.6783" fill="white"/>
</g>
<defs>
<clipPath id="clip0_4281_531">
<rect width="28" height="28" fill="white" transform="translate(21 21)"/>
</clipPath>
</defs>
</svg>
