<svg width="170" height="41" viewBox="0 0 170 41" fill="none" xmlns="http://www.w3.org/2000/svg">
<g clip-path="url(#clip0_4592_2066)">
<path d="M51.8594 28.1375H63.8114V24.5375H56.1074V10.9775H51.8594V28.1375Z" fill="white"/>
<path d="M70.8938 25.7377C69.1898 25.7377 68.3018 24.2497 68.3018 22.0177C68.3018 19.7857 69.1898 18.2737 70.8938 18.2737C72.5978 18.2737 73.5098 19.7857 73.5098 22.0177C73.5098 24.2497 72.5978 25.7377 70.8938 25.7377ZM70.9178 28.5217C74.8778 28.5217 77.4698 25.7137 77.4698 22.0177C77.4698 18.3217 74.8778 15.5137 70.9178 15.5137C66.9818 15.5137 64.3418 18.3217 64.3418 22.0177C64.3418 25.7137 66.9818 28.5217 70.9178 28.5217Z" fill="white"/>
<path d="M84.3245 32.3862C86.1485 32.3862 87.7565 31.9782 88.8365 31.0182C89.8205 30.1302 90.4685 28.7862 90.4685 26.9382V15.8502H86.7245V17.1702H86.6765C85.9565 16.1382 84.8526 15.4902 83.2206 15.4902C80.1726 15.4902 78.0605 18.0342 78.0605 21.6342C78.0605 25.4022 80.6285 27.4662 83.3885 27.4662C84.8765 27.4662 85.8125 26.8662 86.5325 26.0502H86.6285V27.2742C86.6285 28.7622 85.9326 29.6262 84.2766 29.6262C82.9806 29.6262 82.3325 29.0742 82.1165 28.4262H78.3245C78.7085 30.9942 80.9405 32.3862 84.3245 32.3862ZM84.3005 24.5622C82.8365 24.5622 81.8765 23.3622 81.8765 21.5142C81.8765 19.6422 82.8365 18.4422 84.3005 18.4422C85.9325 18.4422 86.7965 19.8342 86.7965 21.4902C86.7965 23.2182 86.0045 24.5622 84.3005 24.5622Z" fill="white"/>
<path d="M98.1653 25.7377C96.4613 25.7377 95.5733 24.2497 95.5733 22.0177C95.5733 19.7857 96.4613 18.2737 98.1653 18.2737C99.8693 18.2737 100.781 19.7857 100.781 22.0177C100.781 24.2497 99.8693 25.7377 98.1653 25.7377ZM98.1893 28.5217C102.149 28.5217 104.741 25.7137 104.741 22.0177C104.741 18.3217 102.149 15.5137 98.1893 15.5137C94.2533 15.5137 91.6133 18.3217 91.6133 22.0177C91.6133 25.7137 94.2533 28.5217 98.1893 28.5217Z" fill="white"/>
<path d="M105.885 28.1375H109.797V15.8495H105.885V28.1375ZM105.885 14.1455H109.797V10.9775H105.885V14.1455Z" fill="white"/>
<path d="M111.494 32.1942H115.406V26.8662H115.454C116.222 27.8982 117.35 28.5222 118.934 28.5222C122.15 28.5222 124.286 25.9782 124.286 21.9942C124.286 18.2982 122.294 15.4902 119.03 15.4902C117.35 15.4902 116.15 16.2342 115.31 17.3382H115.238V15.8502H111.494V32.1942ZM117.926 25.4982C116.246 25.4982 115.286 24.1302 115.286 22.1382C115.286 20.1462 116.15 18.6342 117.854 18.6342C119.534 18.6342 120.326 20.0262 120.326 22.1382C120.326 24.2262 119.414 25.4982 117.926 25.4982Z" fill="white"/>
<path d="M130.656 28.5222C133.872 28.5222 136.248 27.1302 136.248 24.4422C136.248 21.2982 133.704 20.7462 131.544 20.3862C129.984 20.0982 128.592 19.9782 128.592 19.1142C128.592 18.3462 129.336 17.9862 130.296 17.9862C131.376 17.9862 132.12 18.3222 132.264 19.4262H135.864C135.672 17.0022 133.8 15.4902 130.32 15.4902C127.416 15.4902 125.016 16.8342 125.016 19.4262C125.016 22.3062 127.296 22.8822 129.432 23.2422C131.064 23.5302 132.552 23.6502 132.552 24.7542C132.552 25.5462 131.808 25.9782 130.632 25.9782C129.336 25.9782 128.52 25.3782 128.376 24.1542H124.68C124.8 26.8662 127.056 28.5222 130.656 28.5222Z" fill="white"/>
<path d="M141.56 28.4976C143.264 28.4976 144.344 27.8256 145.232 26.6256H145.304V28.1376H149.048V15.8496H145.136V22.7136C145.136 24.1776 144.32 25.1856 142.976 25.1856C141.728 25.1856 141.128 24.4416 141.128 23.0976V15.8496H137.24V23.9136C137.24 26.6496 138.728 28.4976 141.56 28.4976Z" fill="white"/>
<path d="M150.75 28.1382H154.662V21.2502C154.662 19.7862 155.382 18.7542 156.606 18.7542C157.782 18.7542 158.334 19.5222 158.334 20.8422V28.1382H162.246V21.2502C162.246 19.7862 162.942 18.7542 164.19 18.7542C165.366 18.7542 165.918 19.5222 165.918 20.8422V28.1382H169.83V20.1462C169.83 17.3862 168.438 15.4902 165.654 15.4902C164.07 15.4902 162.75 16.1622 161.79 17.6502H161.742C161.118 16.3302 159.894 15.4902 158.286 15.4902C156.51 15.4902 155.334 16.3302 154.566 17.6022H154.494V15.8502H150.75V28.1382Z" fill="white"/>
<path fill-rule="evenodd" clip-rule="evenodd" d="M20.6836 40.1377C31.7293 40.1377 40.6836 31.1834 40.6836 20.1377C40.6836 9.092 31.7293 0.137695 20.6836 0.137695C9.63788 0.137695 0.683594 9.092 0.683594 20.1377C0.683594 31.1834 9.63788 40.1377 20.6836 40.1377ZM26.9229 9.45453C27.2266 8.37574 26.1797 7.73782 25.2236 8.41899L11.8767 17.9273C10.8398 18.666 11.0029 20.1377 12.1217 20.1377H15.6363V20.1105H22.4861L16.9048 22.0798L14.4443 30.8209C14.1406 31.8997 15.1874 32.5376 16.1436 31.8564L29.4905 22.3482C30.5274 21.6095 30.3642 20.1377 29.2455 20.1377H23.9157L26.9229 9.45453Z" fill="white"/>
</g>
<defs>
<clipPath id="clip0_4592_2066">
<rect width="170" height="41" fill="white"/>
</clipPath>
</defs>
</svg>
