<svg width="163" height="40" viewBox="0 0 163 40" fill="none" xmlns="http://www.w3.org/2000/svg">
<g clip-path="url(#clip0_4592_2150)">
<path d="M47.8105 28.2463H59.4068V24.7341H51.9321V11.5049H47.8105V28.2463Z" fill="white"/>
<path d="M66.2769 25.9043C64.6236 25.9043 63.7621 24.4526 63.7621 22.2751C63.7621 20.0975 64.6236 18.6224 66.2769 18.6224C67.9302 18.6224 68.8151 20.0975 68.8151 22.2751C68.8151 24.4526 67.9302 25.9043 66.2769 25.9043ZM66.3002 28.6204C70.1424 28.6204 72.6572 25.8809 72.6572 22.2751C72.6572 18.6692 70.1424 15.9297 66.3002 15.9297C62.4814 15.9297 59.9199 18.6692 59.9199 22.2751C59.9199 25.8809 62.4814 28.6204 66.3002 28.6204Z" fill="white"/>
<path d="M79.308 32.3902C81.0778 32.3902 82.6379 31.9921 83.6858 31.0555C84.6405 30.1892 85.2692 28.878 85.2692 27.075V16.2575H81.6366V17.5453H81.59C80.8915 16.5384 79.8203 15.9062 78.2369 15.9062C75.2796 15.9062 73.2305 18.3882 73.2305 21.9004C73.2305 25.5765 75.722 27.5902 78.3999 27.5902C79.8436 27.5902 80.7518 27.0048 81.4503 26.2087H81.5435V27.4028C81.5435 28.8545 80.8682 29.6975 79.2615 29.6975C78.004 29.6975 77.3753 29.1589 77.1658 28.5267H73.4866C73.8592 31.0321 76.0248 32.3902 79.308 32.3902ZM79.2848 24.757C77.8643 24.757 76.9329 23.5862 76.9329 21.7833C76.9329 19.957 77.8643 18.7862 79.2848 18.7862C80.8682 18.7862 81.7065 20.1443 81.7065 21.7599C81.7065 23.4458 80.938 24.757 79.2848 24.757Z" fill="white"/>
<path d="M92.7379 25.9043C91.0846 25.9043 90.223 24.4526 90.223 22.2751C90.223 20.0975 91.0846 18.6224 92.7379 18.6224C94.3911 18.6224 95.276 20.0975 95.276 22.2751C95.276 24.4526 94.3911 25.9043 92.7379 25.9043ZM92.7611 28.6204C96.6033 28.6204 99.1177 25.8809 99.1177 22.2751C99.1177 18.6692 96.6033 15.9297 92.7611 15.9297C88.9423 15.9297 86.3809 18.6692 86.3809 22.2751C86.3809 25.8809 88.9423 28.6204 92.7611 28.6204Z" fill="white"/>
<path d="M100.227 28.2463H104.022V16.2581H100.227V28.2463ZM100.227 14.5956H104.022V11.5049H100.227V14.5956Z" fill="white"/>
<path d="M105.67 32.2028H109.465V27.0048H109.512C110.257 28.0116 111.352 28.6204 112.888 28.6204C116.009 28.6204 118.081 26.1384 118.081 22.2516C118.081 18.6458 116.148 15.9062 112.982 15.9062C111.352 15.9062 110.187 16.6321 109.372 17.7092H109.302V16.2575H105.67V32.2028ZM111.91 25.6702C110.28 25.6702 109.349 24.3355 109.349 22.3921C109.349 20.4487 110.187 18.9736 111.841 18.9736C113.471 18.9736 114.239 20.3316 114.239 22.3921C114.239 24.4292 113.354 25.6702 111.91 25.6702Z" fill="white"/>
<path d="M124.261 28.6204C127.381 28.6204 129.687 27.2623 129.687 24.6399C129.687 21.5726 127.218 21.0341 125.123 20.6828C123.609 20.4019 122.258 20.2848 122.258 19.4419C122.258 18.6926 122.98 18.3414 123.912 18.3414C124.96 18.3414 125.681 18.6692 125.821 19.7463H129.314C129.128 17.3814 127.311 15.9062 123.935 15.9062C121.117 15.9062 118.789 17.2175 118.789 19.7463C118.789 22.556 121.001 23.118 123.073 23.4692C124.657 23.7502 126.101 23.8672 126.101 24.9443C126.101 25.717 125.379 26.1384 124.238 26.1384C122.98 26.1384 122.189 25.5531 122.049 24.3589H118.463C118.579 27.0048 120.768 28.6204 124.261 28.6204Z" fill="white"/>
<path d="M134.842 28.5973C136.495 28.5973 137.543 27.9417 138.405 26.771H138.474V28.2461H142.107V16.2578H138.311V22.9544C138.311 24.3827 137.52 25.3661 136.216 25.3661C135.005 25.3661 134.423 24.6403 134.423 23.329V16.2578H130.65V24.1251C130.65 26.7944 132.094 28.5973 134.842 28.5973Z" fill="white"/>
<path d="M143.758 28.2458H147.553V21.5258C147.553 20.0975 148.252 19.0906 149.44 19.0906C150.581 19.0906 151.116 19.8399 151.116 21.1277V28.2458H154.912V21.5258C154.912 20.0975 155.587 19.0906 156.798 19.0906C157.939 19.0906 158.474 19.8399 158.474 21.1277V28.2458H162.27V20.4487C162.27 17.756 160.919 15.9062 158.218 15.9062C156.681 15.9062 155.401 16.5619 154.469 18.0136H154.423C153.817 16.7258 152.63 15.9062 151.07 15.9062C149.346 15.9062 148.205 16.7258 147.46 17.9667H147.39V16.2575H143.758V28.2458Z" fill="white"/>
<path d="M24.6543 1.92855L20.8384 0.900391L17.6226 12.9683L14.7194 2.07331L10.9033 3.10146L14.0401 14.8727L6.22712 7.01647L3.43362 9.82543L12.0035 18.4428L1.33109 15.5673L0.308594 19.4044L11.9695 22.5462C11.836 21.9672 11.7654 21.3639 11.7654 20.744C11.7654 16.3561 15.3029 12.799 19.6666 12.799C24.0303 12.799 27.5678 16.3561 27.5678 20.744C27.5678 21.3599 27.4981 21.9595 27.3662 22.5351L37.9638 25.3904L38.9863 21.5533L27.279 18.399L37.9521 15.5233L36.9296 11.6862L25.2228 14.8404L33.0357 6.98421L30.2422 4.17525L21.7912 12.673L24.6543 1.92855Z" fill="#FFE2CD"/>
<path d="M27.3543 22.5801C27.0271 23.9709 26.3364 25.2204 25.3887 26.2214L33.0662 33.9415L35.8597 31.1326L27.3543 22.5801Z" fill="#FFE2CD"/>
<path d="M25.3119 26.3018C24.3527 27.2868 23.1406 28.022 21.7812 28.4008L24.575 38.8847L28.3909 37.8565L25.3119 26.3018Z" fill="#FFE2CD"/>
<path d="M21.6383 28.4394C21.0076 28.6024 20.3466 28.6891 19.6654 28.6891C18.9356 28.6891 18.2289 28.5896 17.5579 28.4033L14.7617 38.8968L18.5777 39.9249L21.6383 28.4394Z" fill="#FFE2CD"/>
<path d="M17.4229 28.3644C16.0844 27.9668 14.8938 27.2223 13.9542 26.2344L6.25781 33.9734L9.05131 36.7824L17.4229 28.3644Z" fill="#FFE2CD"/>
<path d="M13.8903 26.1666C12.9669 25.1725 12.2942 23.9397 11.974 22.5703L1.3418 25.435L2.36428 29.2721L13.8903 26.1666Z" fill="#FFE2CD"/>
</g>
<defs>
<clipPath id="clip0_4592_2150">
<rect width="163" height="40" fill="white"/>
</clipPath>
</defs>
</svg>
