<svg width="159" height="41" viewBox="0 0 159 41" fill="none" xmlns="http://www.w3.org/2000/svg">
<path d="M47.2773 12.9023H51.1241V28.4438H47.2773V12.9023ZM52.65 22.5757C52.65 18.732 55.0094 16.4385 58.651 16.4385C62.2926 16.4385 64.6519 18.732 64.6519 22.5757C64.6519 26.4195 62.3439 28.7257 58.651 28.7257C54.9581 28.7257 52.65 26.4835 52.65 22.5757ZM60.7923 22.5757C60.7923 20.4617 59.9589 19.2188 58.651 19.2188C57.3431 19.2188 56.5224 20.5001 56.5224 22.5757C56.5224 24.6513 57.3303 25.907 58.651 25.907C59.9717 25.907 60.7923 24.7282 60.7923 22.5885V22.5757ZM66.1009 29.1998H69.7938C69.9696 29.5899 70.2667 29.9129 70.641 30.1207C71.0153 30.3284 71.4468 30.4099 71.8711 30.3529C73.3328 30.3529 74.1022 29.5585 74.1022 28.4054V26.2529H74.0252C73.7188 26.9126 73.2214 27.4654 72.5975 27.84C71.9735 28.2145 71.2515 28.3936 70.5247 28.3542C67.7165 28.3542 65.8573 26.2145 65.8573 22.5373C65.8573 18.8601 67.6268 16.541 70.576 16.541C71.3256 16.5117 72.0662 16.712 72.6988 17.1149C73.3313 17.518 73.8255 18.1045 74.115 18.796V16.6563H77.9618V28.3157C77.9618 31.1217 75.487 32.8642 71.8326 32.8642C68.4346 32.8642 66.3189 31.3395 66.1009 29.2126V29.1998ZM74.115 22.5629C74.115 20.6923 73.2559 19.5135 71.8967 19.5135C70.5375 19.5135 69.704 20.6795 69.704 22.5629C69.704 24.4463 70.5247 25.5098 71.8967 25.5098C73.2687 25.5098 74.115 24.472 74.115 22.5757V22.5629ZM79.4107 22.5629C79.4107 18.7192 81.7701 16.4257 85.4117 16.4257C89.0533 16.4257 91.4255 18.7192 91.4255 22.5629C91.4255 26.4067 89.1174 28.7129 85.4117 28.7129C81.706 28.7129 79.4107 26.4835 79.4107 22.5757V22.5629ZM87.5531 22.5629C87.5531 20.4488 86.7196 19.206 85.4117 19.206C84.1038 19.206 83.3473 20.5001 83.3473 22.5885C83.3473 24.677 84.1551 25.9198 85.463 25.9198C86.7709 25.9198 87.5531 24.7282 87.5531 22.5885V22.5629ZM92.8873 13.8632C92.8771 13.4751 92.9827 13.0928 93.1903 12.7647C93.398 12.4366 93.6984 12.1774 94.0536 12.0202C94.4088 11.8629 94.8027 11.8145 95.1855 11.8812C95.5682 11.9479 95.9225 12.1266 96.2034 12.3948C96.4845 12.6629 96.6794 13.0084 96.7637 13.3874C96.8479 13.7664 96.8176 14.1618 96.6766 14.5236C96.5357 14.8853 96.2904 15.1971 95.9719 15.4194C95.6535 15.6417 95.276 15.7646 94.8876 15.7723C94.6301 15.79 94.3717 15.7542 94.1287 15.6674C93.8856 15.5805 93.6633 15.4444 93.4754 15.2675C93.2876 15.0907 93.1383 14.8768 93.0372 14.6395C92.9359 14.4024 92.8848 14.1468 92.8873 13.8888V13.8632ZM92.8873 16.682H96.734V28.4438H92.8873V16.682ZM110.698 22.5629C110.698 26.4067 108.992 28.5976 106.069 28.5976C105.319 28.6456 104.573 28.4626 103.931 28.0731C103.289 27.6834 102.782 27.1062 102.479 26.4195H102.402V32.2107H98.5548V16.6563H102.402V18.7576H102.479C102.768 18.0594 103.265 17.4673 103.903 17.0615C104.54 16.6557 105.288 16.4561 106.043 16.4898C108.992 16.541 110.749 18.7448 110.749 22.5885L110.698 22.5629ZM106.851 22.5629C106.851 20.6923 105.992 19.5007 104.646 19.5007C103.299 19.5007 102.44 20.7051 102.427 22.5629C102.414 24.4207 103.299 25.6123 104.646 25.6123C105.992 25.6123 106.851 24.4463 106.851 22.5885V22.5629ZM117.301 16.4129C120.494 16.4129 122.43 17.9248 122.52 20.3463H119.02C119.02 19.5135 118.327 18.9882 117.263 18.9882C116.199 18.9882 115.724 19.3982 115.724 20.0004C115.724 20.6026 116.147 20.7948 117.007 20.9742L119.468 21.4738C121.815 21.9735 122.815 22.9217 122.815 24.7026C122.815 27.137 120.597 28.7001 117.327 28.7001C114.057 28.7001 111.916 27.137 111.749 24.741H115.455C115.57 25.6123 116.263 26.1248 117.391 26.1248C118.52 26.1248 119.033 25.7532 119.033 25.1382C119.033 24.5232 118.673 24.3951 117.75 24.2029L115.532 23.7288C113.237 23.2548 112.031 22.0376 112.031 20.2438C112.057 17.9376 114.121 16.4385 117.301 16.4385V16.4129ZM135.651 28.4182H131.945V26.2273H131.868C131.664 26.9628 131.215 27.6067 130.595 28.0519C129.974 28.497 129.22 28.7168 128.457 28.6745C127.873 28.7077 127.288 28.6152 126.742 28.4031C126.197 28.1911 125.703 27.8646 125.295 27.4455C124.886 27.0265 124.573 26.5247 124.375 25.9741C124.177 25.4236 124.1 24.837 124.149 24.2542V16.6563H127.995V23.3701C127.995 24.7667 128.714 25.5098 129.906 25.5098C130.186 25.5103 130.463 25.4512 130.718 25.3363C130.972 25.2214 131.2 25.0533 131.384 24.8434C131.568 24.6334 131.706 24.3865 131.787 24.1192C131.868 23.8518 131.892 23.5702 131.855 23.2932V16.6563H135.702L135.651 28.4182ZM137.51 16.6563H141.228V18.9242H141.305C141.509 18.1983 141.949 17.5605 142.554 17.1108C143.159 16.6611 143.898 16.4246 144.652 16.4385C145.42 16.3772 146.182 16.6066 146.788 17.0815C147.393 17.5563 147.799 18.2415 147.922 19.001H147.999C148.231 18.2334 148.713 17.5651 149.368 17.1012C150.022 16.6373 150.813 16.4041 151.615 16.4385C152.138 16.421 152.658 16.5136 153.143 16.7104C153.629 16.9071 154.066 17.2037 154.429 17.5806C154.792 17.9577 155.072 18.4068 155.25 18.8987C155.427 19.3905 155.5 19.9144 155.461 20.436V28.4438H151.615V21.461C151.615 20.1798 151.038 19.5904 149.961 19.5904C149.721 19.5884 149.482 19.6378 149.263 19.7354C149.044 19.8331 148.848 19.9766 148.689 20.1563C148.53 20.3361 148.41 20.5478 148.34 20.7772C148.269 21.0068 148.25 21.2487 148.281 21.4867V28.4438H144.626V21.4098C144.626 20.231 144.049 19.5904 142.998 19.5904C142.756 19.5905 142.514 19.642 142.294 19.7416C142.072 19.8413 141.873 19.9867 141.713 20.1683C141.552 20.3498 141.431 20.5635 141.358 20.7953C141.286 21.0269 141.263 21.2713 141.293 21.5123V28.4438H137.446L137.51 16.6563Z" fill="#394149"/>
<path d="M36.5181 13.6068C35.8656 12.1159 35.002 10.7264 33.9536 9.48114C32.404 7.58533 30.4701 6.03892 28.2792 4.94372C26.0883 3.84854 23.6901 3.22937 21.2426 3.12699C18.795 3.0246 16.3534 3.44132 14.0786 4.34972C11.8038 5.25812 9.74733 6.6376 8.04453 8.39737C6.34172 10.1571 5.03118 12.2573 4.19919 14.5596C3.3672 16.8619 3.03259 19.3142 3.21742 21.755C3.40225 24.1959 4.1023 26.5699 5.27152 28.7209C6.44073 30.872 8.05259 32.7512 10.001 34.2349C11.2512 35.2059 12.6327 35.9953 14.1042 36.5796C16.1674 37.4244 18.3756 37.8595 20.6053 37.8608C25.2078 37.8507 29.6185 36.0175 32.8707 32.7631C36.1228 29.5087 37.9509 25.0988 37.9542 20.4999C37.9576 18.1277 37.4686 15.7805 36.5181 13.6068ZM20.5924 6.64957C22.5948 6.64936 24.573 7.08665 26.3883 7.93082C25.9456 8.12194 25.4802 8.25543 25.0034 8.32802C23.4347 8.55491 21.9815 9.28264 20.8607 10.4026C19.7399 11.5225 19.0116 12.9746 18.7845 14.5421C18.6848 15.4211 18.2846 16.239 17.6516 16.8576C17.0185 17.4761 16.1914 17.8574 15.3095 17.9374C13.7408 18.1643 12.2876 18.892 11.1668 20.012C10.046 21.1319 9.31768 22.584 9.09061 24.1515C9.01372 24.9873 8.65681 25.7729 8.07762 26.3808C7.0783 24.271 6.62938 21.9427 6.77263 19.6129C6.91589 17.2831 7.64666 15.0273 8.89695 13.0554C10.1472 11.0837 11.8764 9.46001 13.9236 8.3355C15.9707 7.21098 18.2693 6.62221 20.6053 6.62394L20.5924 6.64957ZM9.98819 29.4686C10.1421 29.3277 10.2959 29.1996 10.4498 29.0458C11.5906 27.9408 12.3228 26.4819 12.5271 24.9074C12.6099 24.0223 13.0053 23.1956 13.6426 22.5755C14.2559 21.9377 15.0813 21.5458 15.9635 21.4736C17.5322 21.2467 18.9854 20.519 20.1062 19.399C21.227 18.2791 21.9554 16.8271 22.1824 15.2596C22.238 14.3339 22.6355 13.4617 23.298 12.8124C23.9264 12.1869 24.7597 11.8093 25.6445 11.7489C27.0857 11.5508 28.4297 10.9106 29.4913 9.91677C30.7001 10.9188 31.7241 12.1242 32.5175 13.4786C32.4687 13.5444 32.4128 13.6046 32.3508 13.658C31.7387 14.3015 30.9144 14.702 30.0299 14.7855C28.4595 15.0085 27.0041 15.7349 25.8825 16.8555C24.7611 17.9762 24.034 19.4304 23.8109 20.9996C23.7205 21.8816 23.3278 22.7053 22.6992 23.3311C22.0705 23.957 21.2447 24.3463 20.3616 24.4333C18.7883 24.6584 17.3297 25.3848 16.2024 26.5042C15.0752 27.6238 14.3393 29.0767 14.1042 30.6474C14.0352 31.2735 13.8199 31.8748 13.4759 32.4027C12.1603 31.6222 10.9821 30.631 9.98819 29.4686ZM20.5924 34.4143C19.2913 34.4157 17.9964 34.2345 16.7457 33.8761C17.1736 33.0792 17.4517 32.2106 17.5663 31.3136C17.6562 30.4336 18.0472 29.6114 18.6732 28.9859C19.2992 28.3604 20.122 27.9697 21.0028 27.8799C22.5738 27.6555 24.0299 26.9289 25.1533 25.8088C26.2766 24.6887 27.0068 23.2351 27.2345 21.6658C27.3244 20.7857 27.7154 19.9636 28.3414 19.3381C28.9674 18.7125 29.7902 18.3219 30.671 18.2321C31.8532 18.0785 32.9801 17.6386 33.9536 16.9508C34.4942 18.9981 34.5582 21.1419 34.1408 23.2178C33.7234 25.2937 32.8356 27.2466 31.5456 28.9264C30.2557 30.6061 28.5978 31.9685 26.6991 32.9087C24.8004 33.8489 22.7115 34.342 20.5924 34.3502V34.4143Z" fill="#4395C2"/>
</svg>
