<svg width="168" height="37" viewBox="0 0 168 37" fill="none" xmlns="http://www.w3.org/2000/svg">
<path d="M26.9021 16.5453C26.4473 17.0029 26.099 17.5551 25.8821 18.1625C25.6651 18.7701 25.5848 19.418 25.6469 20.0601L25.6253 20.0385C25.6891 20.7944 25.5871 21.5549 25.3266 22.2674C25.0661 22.9797 24.6533 23.6266 24.117 24.163C23.5806 24.6993 22.9337 25.1122 22.2212 25.3726C21.5089 25.6331 20.7482 25.7351 19.9925 25.6713L20.0141 25.6929C19.11 25.6088 18.202 25.8055 17.4137 26.2563C16.6255 26.7071 15.9955 27.3901 15.6097 28.2121C15.2239 29.0341 15.1009 29.9549 15.2576 30.8494C15.4145 31.7438 15.8432 32.5681 16.4856 33.2098C17.128 33.8516 17.9526 34.2796 18.8471 34.4355C19.7417 34.5915 20.6624 34.4677 21.4841 34.0811C22.3057 33.6945 22.988 33.064 23.4382 32.2754C23.8883 31.4867 24.0842 30.5786 23.9993 29.6745L24.0221 29.6961C23.9582 28.9403 24.0601 28.1797 24.3206 27.4672C24.5812 26.7549 24.9941 26.108 25.5304 25.5716C26.0668 25.0353 26.7137 24.6224 27.426 24.362C28.1384 24.1015 28.899 23.9995 29.6549 24.0633L29.6321 24.0417C30.3706 24.1081 31.114 23.987 31.7933 23.6896C32.4725 23.3923 33.0658 22.9282 33.5179 22.3406C33.9701 21.7529 34.2667 21.0605 34.38 20.3278C34.4934 19.595 34.42 18.8455 34.1665 18.1485C33.9131 17.4517 33.4878 16.8301 32.9302 16.3413C32.3725 15.8525 31.7005 15.5125 30.9764 15.3526C30.2524 15.1928 29.4996 15.2182 28.788 15.4267C28.0764 15.6352 27.429 16.0199 26.9057 16.5453H26.9021Z" fill="white"/>
<path d="M18.0514 22.8634L18.0286 22.8418C18.6709 22.9065 19.3196 22.8276 19.9279 22.6109C20.5361 22.3942 21.0886 22.0451 21.5453 21.5888C22.0019 21.1324 22.3516 20.5802 22.5686 19.9721C22.7858 19.3641 22.8652 18.7155 22.801 18.073L22.8238 18.0946C22.7599 17.3387 22.8619 16.5782 23.1223 15.8657C23.3828 15.1534 23.7958 14.5065 24.332 13.9701C24.8684 13.4338 25.5154 13.0209 26.2277 12.7605C26.9401 12.4999 27.7007 12.398 28.4566 12.4618L28.4338 12.4402C29.338 12.5252 30.2462 12.329 31.0349 11.8787C31.8236 11.4284 32.4541 10.7458 32.8405 9.92391C33.2269 9.10208 33.3504 8.18104 33.1942 7.28643C33.0379 6.39182 32.6095 5.5672 31.9673 4.92503C31.3252 4.28288 30.5005 3.85443 29.6059 3.69817C28.7113 3.54189 27.7903 3.66538 26.9684 4.05181C26.1466 4.43822 25.464 5.06876 25.0136 5.85741C24.5633 6.64605 24.3672 7.55441 24.4522 8.45859L24.4306 8.43579C24.4945 9.19166 24.3928 9.95239 24.1324 10.6649C23.872 11.3773 23.459 12.0243 22.9228 12.5608C22.3864 13.0971 21.7393 13.51 21.0269 13.7704C20.3143 14.0308 19.5536 14.1326 18.7978 14.0686L18.8194 14.0914C18.177 14.0267 17.5282 14.1056 16.92 14.3223C16.3118 14.5389 15.7594 14.8881 15.3026 15.3444C14.8459 15.8008 14.4964 16.353 14.2792 16.9611C14.0621 17.5691 13.9828 18.2177 14.047 18.8602L14.0254 18.8386C14.089 19.5944 13.9868 20.3549 13.7263 21.0672C13.4657 21.7794 13.0529 22.4264 12.5166 22.9626C11.9803 23.4989 11.3334 23.9117 10.6212 24.1724C9.90889 24.4329 9.14834 24.535 8.39257 24.4714L8.41417 24.493C7.50999 24.408 6.60163 24.6041 5.81297 25.0545C5.02433 25.5048 4.39379 26.1874 4.00738 27.0093C3.62096 27.8312 3.49745 28.7522 3.65373 29.6468C3.81001 30.5414 4.23845 31.366 4.88061 32.0081C5.52278 32.6504 6.34739 33.0788 7.24201 33.235C8.13662 33.3912 9.05765 33.2678 9.8795 32.8814C10.7013 32.495 11.384 31.8645 11.8343 31.0758C12.2846 30.2871 12.4807 29.3788 12.3958 28.4746L12.4186 28.4962C12.3547 27.7403 12.4567 26.9798 12.7172 26.2673C12.9776 25.555 13.3906 24.9081 13.9268 24.3717C14.4632 23.8354 15.1102 23.4225 15.8225 23.1621C16.5349 22.9016 17.2955 22.7996 18.0514 22.8634Z" fill="white"/>
<path d="M10.0083 20.4546C10.4631 19.9972 10.8113 19.445 11.0281 18.8374C11.2448 18.2298 11.3248 17.5818 11.2623 16.9398L11.285 16.9614C11.2212 16.2054 11.3232 15.4445 11.5838 14.7319C11.8445 14.0194 12.2575 13.3723 12.7942 12.8359C13.3308 12.2996 13.978 11.8868 14.6907 11.6264C15.4033 11.3661 16.1643 11.2645 16.9203 11.3286L16.8975 11.307C17.8013 11.3917 18.7093 11.1955 19.4976 10.7452C20.2859 10.295 20.916 9.61249 21.3023 8.79091C21.6885 7.96931 21.8118 7.04861 21.6556 6.15434C21.4993 5.26006 21.0709 4.43576 20.4291 3.79383C19.7872 3.1519 18.9628 2.7236 18.0685 2.56733C17.1743 2.41106 16.2535 2.53444 15.432 2.92063C14.6104 3.30681 13.9279 3.93701 13.4777 4.72529C13.0273 5.51357 12.8311 6.42157 12.9159 7.32543L12.8943 7.30383C12.9581 8.05965 12.8561 8.82029 12.5956 9.53266C12.3351 10.245 11.9223 10.892 11.3859 11.4283C10.8496 11.9647 10.2026 12.3775 9.49027 12.6379C8.77791 12.8985 8.01727 13.0005 7.26145 12.9366L7.28305 12.9582C6.54454 12.892 5.80125 13.0133 5.12207 13.3108C4.44289 13.6083 3.84979 14.0724 3.39774 14.6602C2.94569 15.2478 2.64931 15.9402 2.53606 16.6729C2.42281 17.4058 2.49636 18.1553 2.74989 18.852C3.00341 19.5489 3.42873 20.1703 3.9864 20.659C4.54408 21.1477 5.21608 21.4877 5.94013 21.6476C6.66418 21.8073 7.41685 21.7817 8.12842 21.5733C8.83997 21.3647 9.48737 20.98 10.0106 20.4546H10.0083Z" fill="white"/>
<path d="M47.1797 8.48584H50.7437V25.8294H47.1797V8.48584Z" fill="white"/>
<path d="M52.7619 19.8909C52.757 18.6446 53.122 17.4247 53.8108 16.386C54.4996 15.3472 55.4812 14.5363 56.6313 14.0559C57.7814 13.5754 59.0481 13.4472 60.2711 13.6873C61.4942 13.9274 62.6184 14.525 63.5015 15.4046C64.3846 16.2841 64.9868 17.406 65.2318 18.628C65.4768 19.8501 65.3536 21.1174 64.8778 22.2694C64.402 23.4213 63.595 24.4063 62.559 25.0992C61.523 25.7922 60.3047 26.1621 59.0583 26.1621C58.231 26.1716 57.4101 26.016 56.6435 25.7044C55.877 25.3929 55.1802 24.9318 54.594 24.348C54.0077 23.764 53.5438 23.0691 53.2293 22.3039C52.9146 21.5386 52.7558 20.7183 52.7619 19.8909ZM61.7907 19.8909C61.7758 19.3537 61.6029 18.8328 61.2936 18.3932C60.9843 17.9538 60.5523 17.6151 60.0516 17.4199C59.5509 17.2245 59.0038 17.1811 58.4786 17.2951C57.9533 17.4091 57.4733 17.6752 57.0986 18.0606C56.7239 18.4458 56.471 18.933 56.3717 19.4612C56.2724 19.9893 56.3308 20.5351 56.54 21.0302C56.7491 21.5253 57.0995 21.9477 57.5474 22.2447C57.9953 22.5417 58.5209 22.7001 59.0583 22.7001C59.4263 22.71 59.7924 22.6434 60.1336 22.5046C60.4746 22.3659 60.7833 22.1581 61.04 21.8942C61.2966 21.6302 61.496 21.3159 61.6251 20.9712C61.7543 20.6264 61.8107 20.2586 61.7907 19.8909Z" fill="white"/>
<path d="M79.5607 13.951V25.231C79.5607 29.2222 76.4479 30.9094 73.2883 30.9094C72.1759 30.9926 71.0619 30.7679 70.0687 30.2599C69.0756 29.7518 68.2414 28.9801 67.6579 28.0294L70.6987 26.2714C70.944 26.767 71.3348 27.1758 71.8188 27.4433C72.3028 27.7106 72.857 27.8239 73.4071 27.7678C73.7587 27.8165 74.1168 27.7855 74.4548 27.6772C74.7927 27.5688 75.1021 27.3858 75.3598 27.1418C75.6176 26.8978 75.8172 26.599 75.9439 26.2673C76.0705 25.9357 76.1209 25.5799 76.0915 25.2262V24.1402C75.6741 24.6508 75.143 25.0565 74.5405 25.3247C73.938 25.5929 73.2811 25.7161 72.6223 25.6846C71.0548 25.6351 69.5682 24.9778 68.4769 23.8514C67.3856 22.7252 66.7754 21.2185 66.7754 19.6504C66.7754 18.0822 67.3856 16.5755 68.4769 15.4493C69.5682 14.323 71.0548 13.6656 72.6223 13.6162C73.2811 13.5846 73.938 13.7078 74.5405 13.976C75.143 14.2442 75.6741 14.65 76.0915 15.1606V13.9486L79.5607 13.951ZM76.0927 19.6522C76.1167 19.0778 75.9681 18.5094 75.6663 18.0202C75.3645 17.5308 74.9232 17.1431 74.3991 16.9068C73.8751 16.6704 73.2924 16.5964 72.7258 16.694C72.1593 16.7917 71.635 17.0567 71.2203 17.455C70.8057 17.8531 70.5198 18.3662 70.3992 18.9283C70.2787 19.4904 70.3291 20.0758 70.5441 20.6089C70.759 21.1421 71.1286 21.5988 71.6053 21.9202C72.0819 22.2415 72.6439 22.4129 73.2187 22.4122C73.5932 22.4383 73.9689 22.3858 74.3218 22.2578C74.6748 22.1299 74.997 21.9294 75.2677 21.6695C75.5384 21.4094 75.7518 21.0956 75.8938 20.7481C76.0359 20.4007 76.1037 20.0274 76.0927 19.6522Z" fill="white"/>
<path d="M81.5783 19.8909C81.5734 18.6446 81.9383 17.4247 82.6272 16.386C83.316 15.3472 84.2976 14.5363 85.4477 14.0559C86.5978 13.5754 87.8645 13.4472 89.0875 13.6873C90.3106 13.9274 91.4349 14.525 92.3179 15.4046C93.201 16.2841 93.8032 17.406 94.0482 18.628C94.2932 19.8501 94.17 21.1174 93.6942 22.2694C93.2184 23.4213 92.4114 24.4063 91.3755 25.0992C90.3394 25.7922 89.1211 26.1621 87.8747 26.1621C87.0474 26.1716 86.2264 26.016 85.4599 25.7044C84.6934 25.3929 83.9966 24.9318 83.4104 24.348C82.8241 23.764 82.3602 23.0691 82.0457 22.3039C81.7311 21.5386 81.5722 20.7183 81.5783 19.8909ZM90.6071 19.8909C90.5922 19.3537 90.4193 18.8328 90.11 18.3932C89.8007 17.9538 89.3687 17.6151 88.8681 17.4199C88.3673 17.2245 87.8201 17.1811 87.295 17.2951C86.7697 17.4091 86.2897 17.6752 85.915 18.0606C85.5403 18.4458 85.2874 18.933 85.188 19.4612C85.0886 19.9893 85.1472 20.5351 85.3564 21.0302C85.5655 21.5253 85.9159 21.9477 86.3638 22.2447C86.8117 22.5417 87.3372 22.7001 87.8747 22.7001C88.2427 22.71 88.6089 22.6434 88.9499 22.5046C89.2911 22.3659 89.5997 22.1581 89.8564 21.8942C90.1131 21.6302 90.3124 21.3159 90.4415 20.9712C90.5707 20.6264 90.6271 20.2586 90.6071 19.8909Z" fill="white"/>
<path d="M95.834 10.7673C95.834 10.3444 95.9594 9.93093 96.1943 9.57928C96.4293 9.22762 96.7634 8.95353 97.1541 8.79169C97.5448 8.62983 97.9748 8.58748 98.3896 8.67C98.8043 8.75251 99.1855 8.95617 99.4845 9.25524C99.7835 9.55429 99.9872 9.93531 100.07 10.3501C100.152 10.7649 100.11 11.1949 99.9481 11.5856C99.7862 11.9764 99.5121 12.3104 99.1604 12.5453C98.8088 12.7803 98.3954 12.9057 97.9724 12.9057C97.4071 12.9001 96.8663 12.673 96.4665 12.2732C96.0668 11.8733 95.8396 11.3327 95.834 10.7673ZM96.194 13.9509H99.7592V25.8309H96.1892L96.194 13.9509Z" fill="white"/>
<path d="M115.146 19.8908C115.188 20.676 115.073 21.4615 114.81 22.2023C114.546 22.943 114.139 23.6244 113.611 24.2072C113.084 24.79 112.446 25.2628 111.735 25.5983C111.024 25.9337 110.253 26.1253 109.468 26.162C108.808 26.198 108.147 26.0867 107.535 25.836C106.923 25.5852 106.375 25.2014 105.929 24.7124V30.5816H102.365V13.9508H105.929V15.0668C106.375 14.5782 106.924 14.1947 107.536 13.9442C108.148 13.6937 108.808 13.5824 109.468 13.6184C110.254 13.655 111.024 13.8466 111.735 14.1821C112.447 14.5176 113.084 14.9904 113.612 15.5734C114.14 16.1563 114.547 16.8379 114.81 17.5789C115.074 18.3198 115.188 19.1056 115.146 19.8908ZM111.582 19.8908C111.569 19.3349 111.391 18.7954 111.072 18.3397C110.753 17.8842 110.306 17.5328 109.789 17.3298C109.271 17.1266 108.705 17.0807 108.161 17.1978C107.617 17.3148 107.12 17.5896 106.732 17.9878C106.344 18.386 106.082 18.8898 105.978 19.4364C105.875 19.9829 105.935 20.5476 106.151 21.0601C106.367 21.5726 106.73 22.0099 107.193 22.3175C107.657 22.6249 108.2 22.789 108.756 22.7888C109.138 22.8059 109.519 22.7419 109.875 22.6013C110.23 22.4608 110.552 22.2466 110.819 21.973C111.086 21.6992 111.291 21.3724 111.423 21.0136C111.555 20.6548 111.609 20.2721 111.582 19.8908Z" fill="white"/>
<path d="M126.145 22.2655C126.145 24.9979 123.77 26.1619 121.204 26.1619C120.167 26.2558 119.127 26.0366 118.216 25.5325C117.305 25.0285 116.567 24.2629 116.096 23.3347L119.183 21.5767C119.308 22.0057 119.577 22.379 119.943 22.634C120.31 22.8892 120.754 23.0107 121.199 22.9783C122.054 22.9783 122.482 22.7167 122.482 22.2427C122.482 20.9347 116.637 21.6247 116.637 17.5147C116.637 14.9239 118.823 13.6183 121.294 13.6183C122.223 13.5889 123.142 13.8092 123.957 14.2562C124.772 14.7034 125.452 15.3607 125.926 16.1599L122.885 17.7991C122.752 17.488 122.53 17.2229 122.247 17.037C121.964 16.8511 121.633 16.7527 121.294 16.7539C120.676 16.7539 120.296 16.9939 120.296 17.4187C120.301 18.7735 126.145 17.8699 126.145 22.2655Z" fill="white"/>
<path d="M139.164 13.9507V25.8307H135.6V24.7135C135.188 25.2064 134.666 25.5949 134.076 25.8469C133.485 26.0989 132.844 26.2072 132.204 26.1631C129.804 26.1631 127.764 24.4531 127.764 21.2431V13.9507H131.328V20.7211C131.298 21.004 131.33 21.2901 131.422 21.5593C131.514 21.8286 131.664 22.0746 131.86 22.2801C132.057 22.4857 132.296 22.6459 132.561 22.7497C132.825 22.8535 133.11 22.8984 133.394 22.8811C134.701 22.8811 135.603 22.1215 135.603 20.4343V13.9543L139.164 13.9507Z" fill="white"/>
<path d="M159.6 18.5361V25.8297H156.036V18.8445C156.036 17.6565 155.466 16.8969 154.326 16.8969C153.138 16.8969 152.472 17.7285 152.472 19.1301V25.8297H148.909V18.8445C148.909 17.6565 148.339 16.8969 147.198 16.8969C146.01 16.8969 145.345 17.7285 145.345 19.1301V25.8297H141.781V13.9497H145.345V15.0417C145.715 14.5572 146.2 14.173 146.755 13.9242C147.312 13.6754 147.922 13.5699 148.529 13.6173C149.138 13.5874 149.746 13.7162 150.292 13.9908C150.836 14.2654 151.301 14.6768 151.64 15.1845C152.035 14.6532 152.558 14.2308 153.161 13.9568C153.763 13.6827 154.426 13.5659 155.086 13.6173C157.813 13.6185 159.6 15.5661 159.6 18.5361Z" fill="white"/>
<path d="M162.614 13.8775C164.074 13.8775 165.258 12.6933 165.258 11.2327C165.258 9.772 164.074 8.58789 162.614 8.58789C161.153 8.58789 159.969 9.772 159.969 11.2327C159.969 12.6933 161.153 13.8775 162.614 13.8775Z" fill="white"/>
</svg>
