<svg width="168" height="41" viewBox="0 0 168 41" fill="none" xmlns="http://www.w3.org/2000/svg">
<g clip-path="url(#clip0_4557_1535)">
<path d="M49.2773 28.9525H61.2293V25.3525H53.5253V11.7925H49.2773V28.9525Z" fill="white"/>
<path d="M68.3098 26.5526C66.6058 26.5526 65.7178 25.0646 65.7178 22.8326C65.7178 20.6006 66.6058 19.0886 68.3098 19.0886C70.0138 19.0886 70.9258 20.6006 70.9258 22.8326C70.9258 25.0646 70.0138 26.5526 68.3098 26.5526ZM68.3338 29.3366C72.2938 29.3366 74.8858 26.5286 74.8858 22.8326C74.8858 19.1366 72.2938 16.3286 68.3338 16.3286C64.3978 16.3286 61.7578 19.1366 61.7578 22.8326C61.7578 26.5286 64.3978 29.3366 68.3338 29.3366Z" fill="white"/>
<path d="M81.7406 33.2002C83.5646 33.2002 85.1726 32.7922 86.2526 31.8322C87.2366 30.9442 87.8846 29.6002 87.8846 27.7522V16.6642H84.1406V17.9842H84.0926C83.3726 16.9522 82.2686 16.3042 80.6366 16.3042C77.5886 16.3042 75.4766 18.8482 75.4766 22.4482C75.4766 26.2162 78.0446 28.2802 80.8046 28.2802C82.2926 28.2802 83.2286 27.6802 83.9486 26.8642H84.0446V28.0882C84.0446 29.5762 83.3486 30.4402 81.6926 30.4402C80.3966 30.4402 79.7486 29.8882 79.5326 29.2402H75.7406C76.1246 31.8082 78.3566 33.2002 81.7406 33.2002ZM81.7166 25.3762C80.2526 25.3762 79.2926 24.1762 79.2926 22.3282C79.2926 20.4562 80.2526 19.2562 81.7166 19.2562C83.3486 19.2562 84.2126 20.6482 84.2126 22.3042C84.2126 24.0322 83.4206 25.3762 81.7166 25.3762Z" fill="white"/>
<path d="M95.5833 26.5526C93.8793 26.5526 92.9912 25.0646 92.9912 22.8326C92.9912 20.6006 93.8793 19.0886 95.5833 19.0886C97.2873 19.0886 98.1992 20.6006 98.1992 22.8326C98.1992 25.0646 97.2873 26.5526 95.5833 26.5526ZM95.6072 29.3366C99.5672 29.3366 102.159 26.5286 102.159 22.8326C102.159 19.1366 99.5672 16.3286 95.6072 16.3286C91.6712 16.3286 89.0312 19.1366 89.0312 22.8326C89.0312 26.5286 91.6712 29.3366 95.6072 29.3366Z" fill="white"/>
<path d="M103.303 28.9525H107.215V16.6645H103.303V28.9525ZM103.303 14.9605H107.215V11.7925H103.303V14.9605Z" fill="white"/>
<path d="M108.91 33.0082H112.822V27.6802H112.87C113.638 28.7122 114.766 29.3362 116.35 29.3362C119.566 29.3362 121.702 26.7922 121.702 22.8082C121.702 19.1122 119.71 16.3042 116.446 16.3042C114.766 16.3042 113.566 17.0482 112.726 18.1522H112.654V16.6642H108.91V33.0082ZM115.342 26.3122C113.662 26.3122 112.702 24.9442 112.702 22.9522C112.702 20.9602 113.566 19.4482 115.27 19.4482C116.95 19.4482 117.742 20.8402 117.742 22.9522C117.742 25.0402 116.83 26.3122 115.342 26.3122Z" fill="white"/>
<path d="M128.072 29.3362C131.288 29.3362 133.664 27.9442 133.664 25.2562C133.664 22.1122 131.12 21.5602 128.96 21.2002C127.4 20.9122 126.008 20.7922 126.008 19.9282C126.008 19.1602 126.752 18.8002 127.712 18.8002C128.792 18.8002 129.536 19.1362 129.68 20.2402H133.28C133.088 17.8162 131.216 16.3042 127.736 16.3042C124.832 16.3042 122.432 17.6482 122.432 20.2402C122.432 23.1202 124.712 23.6962 126.848 24.0562C128.48 24.3442 129.968 24.4642 129.968 25.5682C129.968 26.3602 129.224 26.7922 128.048 26.7922C126.752 26.7922 125.936 26.1922 125.792 24.9682H122.096C122.216 27.6802 124.472 29.3362 128.072 29.3362Z" fill="white"/>
<path d="M138.978 29.3126C140.682 29.3126 141.762 28.6405 142.65 27.4405H142.722V28.9526H146.466V16.6646H142.554V23.5286C142.554 24.9926 141.738 26.0006 140.394 26.0006C139.146 26.0006 138.546 25.2565 138.546 23.9125V16.6646H134.658V24.7285C134.658 27.4646 136.146 29.3126 138.978 29.3126Z" fill="white"/>
<path d="M148.168 28.9522H152.08V22.0642C152.08 20.6002 152.8 19.5682 154.024 19.5682C155.2 19.5682 155.752 20.3362 155.752 21.6562V28.9522H159.664V22.0642C159.664 20.6002 160.36 19.5682 161.608 19.5682C162.784 19.5682 163.336 20.3362 163.336 21.6562V28.9522H167.248V20.9602C167.248 18.2002 165.856 16.3042 163.072 16.3042C161.488 16.3042 160.168 16.9762 159.208 18.4642H159.16C158.536 17.1442 157.312 16.3042 155.704 16.3042C153.928 16.3042 152.752 17.1442 151.984 18.4162H151.912V16.6642H148.168V28.9522Z" fill="white"/>
<path d="M25.4109 1.97671L21.4779 0.922852L18.1635 13.2924L15.1712 2.12509L11.2381 3.17895L14.4711 15.2444L6.41844 7.19183L3.53925 10.071L12.372 18.9038L1.37222 15.9564L0.318359 19.8894L12.337 23.1098C12.1994 22.5163 12.1266 21.8979 12.1266 21.2625C12.1266 16.7649 15.7726 13.1189 20.2702 13.1189C24.7678 13.1189 28.4138 16.7649 28.4138 21.2625C28.4138 21.8938 28.3419 22.5084 28.206 23.0984L39.1287 26.0251L40.1825 22.0921L28.1161 18.8589L39.1166 15.9113L38.0627 11.9783L25.9968 15.2113L34.0494 7.15877L31.1702 4.27958L22.46 12.9898L25.4109 1.97671Z" fill="white"/>
<path d="M28.1939 23.1445C27.8567 24.5701 27.1448 25.8508 26.168 26.8769L34.081 34.79L36.9602 31.9108L28.1939 23.1445Z" fill="white"/>
<path d="M26.0881 26.9595C25.0995 27.9692 23.8502 28.7227 22.4492 29.111L25.3286 39.857L29.2616 38.8031L26.0881 26.9595Z" fill="white"/>
<path d="M22.3023 29.1503C21.6523 29.3174 20.971 29.4062 20.2689 29.4062C19.5167 29.4062 18.7883 29.3042 18.0968 29.1133L15.2148 39.8691L19.1478 40.9229L22.3023 29.1503Z" fill="white"/>
<path d="M17.9588 29.0739C16.5792 28.6663 15.3521 27.9032 14.3837 26.8906L6.45117 34.8231L9.33036 37.7023L17.9588 29.0739Z" fill="white"/>
<path d="M14.3163 26.8205C13.3645 25.8015 12.6712 24.5379 12.3412 23.1343L1.38281 26.0706L2.43666 30.0036L14.3163 26.8205Z" fill="white"/>
</g>
<defs>
<clipPath id="clip0_4557_1535">
<rect width="168" height="41" fill="white"/>
</clipPath>
</defs>
</svg>
